<svg id="Component_35_1" data-name="Component 35 – 1" xmlns="http://www.w3.org/2000/svg" width="49.379" height="32.557" viewBox="0 0 49.379 32.557">
  <path id="Path_1156" data-name="Path 1156" d="M-1044,913.563h-42.941a3.219,3.219,0,0,0-3.219,3.219V942.9a3.219,3.219,0,0,0,3.219,3.219H-1044a3.218,3.218,0,0,0,3.219-3.219V916.782A3.218,3.218,0,0,0-1044,913.563Zm-32.292,12.457a1.356,1.356,0,0,1-1.356,1.357h-7.461a1.356,1.356,0,0,1-1.356-1.357V921a1.356,1.356,0,0,1,1.356-1.357h7.461A1.356,1.356,0,0,1-1076.29,921Z" transform="translate(1090.158 -913.563)" fill="#525d65"/>
</svg>
