<svg id="Component_32_2-l" data-name="Component 32 – 2-l" xmlns="http://www.w3.org/2000/svg" width="344.257" height="73.244" viewBox="0 0 344.257 73.244">
  <g id="Group_849" data-name="Group 849">
    <g id="Group_841" data-name="Group 841" transform="translate(4.15 24.174)">
      <path id="Path_988" data-name="Path 988" d="M113,99.479H79.251L63.335,69.842l-6.266,10.34L73.233,109.54H107Z" transform="translate(-57.068 -69.842)" fill="#ffce00"/>
    </g>
    <g id="Group_842" data-name="Group 842" transform="translate(14.216 7.505)">
      <path id="Path_989" data-name="Path 989" d="M61.1,73.51h40.641l6.343-10.34H67.363Z" transform="translate(-61.097 -63.17)" fill="#ffce00"/>
    </g>
    <g id="Group_843" data-name="Group 843" transform="translate(14.216 7.505)">
      <path id="Path_990" data-name="Path 990" d="M117.5,92.057H83.661L67.363,63.17,61.1,73.51l16.569,28.609h33.721Z" transform="translate(-61.097 -63.17)" fill="#ffce00"/>
    </g>
    <g id="Group_844" data-name="Group 844" transform="translate(48.458 31.473)" opacity="0.32">
      <path id="Path_991" data-name="Path 991" d="M74.866,114.534,74.8,114.5,99.768,72.763l.064.039Z" transform="translate(-74.802 -72.763)" fill="#ffce00"/>
    </g>
    <g id="Group_845" data-name="Group 845" opacity="0.32">
      <path id="Path_992" data-name="Path 992" d="M55.472,101.938l-.064-.039L80.372,60.166l.064.039Z" transform="translate(-55.407 -60.166)" fill="#ffce00"/>
    </g>
    <g id="Group_846" data-name="Group 846" transform="translate(18.058 25.839)" opacity="0.32">
      <path id="Path_993" data-name="Path 993" d="M62.7,112.279l-.064-.038L87.6,70.508l.064.039Z" transform="translate(-62.635 -70.508)" fill="#ffce00"/>
    </g>
    <g id="Group_847" data-name="Group 847" transform="translate(53.042 4.649)" opacity="0.32">
      <path id="Path_994" data-name="Path 994" d="M76.7,78.283l-.064-.039,9.7-16.217.064.039Z" transform="translate(-76.637 -62.027)" fill="#ffce00"/>
    </g>
    <g id="Group_848" data-name="Group 848" transform="translate(50.672 27.649)">
      <path id="Path_995" data-name="Path 995" d="M87.824,75.982h-9.5l-2.637-4.75h9.5Z" transform="translate(-75.688 -71.232)" fill="#ffce00"/>
    </g>
    <path id="Path_996" data-name="Path 996" d="M91.434,73.551,88.8,68.8H79.28l0,0h-9.5l5.246,9.5h9.5L81.9,73.551Z" transform="translate(-33.872 -47.231)" fill="#ffce00"/>
  </g>
  <g id="Group_850" data-name="Group 850" transform="translate(95.675 15.567)">
    <path id="Path_997" data-name="Path 997" d="M100.34,99.252c-.155,1.409.21,1.931,1.2,1.931a5.626,5.626,0,0,0,1.567-.312l.989,4.695a11.074,11.074,0,0,1-4.59.989c-4.17,0-6.361-2.556-5.684-7.563l4.485-31.866,6.676-.73Z" transform="translate(-93.7 -66.397)" fill="#fff"/>
    <path id="Path_998" data-name="Path 998" d="M106.093,89.055c.157,4.277,2.349,5.739,5.372,5.739a11.914,11.914,0,0,0,7.2-2.558l2.556,4.172a17.861,17.861,0,0,1-10.484,3.548c-7.51,0-11.371-4.487-11.371-11.476,0-7.51,3.913-17.679,15.021-17.679,6.311,0,9.544,3.39,9.544,7.3C123.93,85.872,115.168,88.118,106.093,89.055Zm11.056-10.691c0-1.2-.677-2.816-3.128-2.816-4.745,0-6.883,4.64-7.613,9.072C113.811,83.945,117.149,81.909,117.149,78.364Z" transform="translate(-85.212 -59.798)" fill="#fff"/>
    <path id="Path_999" data-name="Path 999" d="M136.028,73.462l-2.661,18.514c-.26,1.879-.1,2.868,1.462,3.493l-1.879,4.382c-2.921-.312-5.057-1.617-5.684-4.59-2.034,2.766-4.747,4.695-8.24,4.695-5.736,0-8.865-4.277-8.865-10.8,0-7.773,4.067-18.359,15.331-18.359A22.394,22.394,0,0,1,136.028,73.462Zm-18.983,15.7c0,4.172,1.514,5.736,3.805,5.736,2.5,0,4.382-1.771,6.259-4.38l1.984-14.081a8.384,8.384,0,0,0-3.7-.732C119.285,75.7,117.044,83.423,117.044,89.16Z" transform="translate(-69.035 -59.798)" fill="#fff"/>
    <path id="Path_1000" data-name="Path 1000" d="M150.246,67.116l-5.424,38.594H139.03l.052-4.225c-1.876,2.868-4.59,5.007-8.292,5.007-5.736,0-8.707-4.277-8.707-11.058,0-7.353,3.6-18.1,13.089-18.1a8.434,8.434,0,0,1,6.624,3.026l1.981-13.924ZM128.966,95.644c0,4.225,1.512,5.789,3.755,5.789,2.816,0,4.9-2.4,6.936-5.632l1.512-10.848a5.417,5.417,0,0,0-4.642-2.608C130.635,82.344,128.966,90.637,128.966,95.644Z" transform="translate(-51.17 -66.334)" fill="#fff"/>
    <path id="Path_1001" data-name="Path 1001" d="M141.023,89.055c.157,4.277,2.349,5.739,5.374,5.739a11.908,11.908,0,0,0,7.2-2.558l2.556,4.172a17.855,17.855,0,0,1-10.484,3.548c-7.51,0-11.368-4.487-11.368-11.476,0-7.51,3.91-17.679,15.021-17.679,6.309,0,9.542,3.39,9.542,7.3C158.86,85.872,150.1,88.118,141.023,89.055Zm11.058-10.691c0-1.2-.677-2.816-3.131-2.816-4.745,0-6.883,4.64-7.613,9.072C148.743,83.945,152.081,81.909,152.081,78.364Z" transform="translate(-32.867 -59.798)" fill="#fff"/>
    <path id="Path_1002" data-name="Path 1002" d="M165.265,71.239l-1.931,6.414a8.428,8.428,0,0,0-2.294-.312c-3.493,0-5.579,3.286-7.3,8.188l-1.931,13.614h-6.571l3.86-27.588h5.684l-.207,5.369c2.034-4.067,4.9-6.1,7.928-6.1A9.26,9.26,0,0,1,165.265,71.239Z" transform="translate(-16.474 -59.766)" fill="#fff"/>
    <path id="Path_1003" data-name="Path 1003" d="M176.14,74.089,172.8,78.052a6.949,6.949,0,0,0-5.059-1.981c-6.259,0-7.928,7.455-7.928,12.62,0,4.275,1.879,5.841,4.9,5.841,2.139,0,3.755-.732,5.894-2.034l2.5,4.432a15.571,15.571,0,0,1-9.129,3.026c-7.041,0-11.108-4.432-11.108-11.63S156.947,70.8,167.692,70.8A11.625,11.625,0,0,1,176.14,74.089Z" transform="translate(-5.023 -59.798)" fill="#fff"/>
    <path id="Path_1004" data-name="Path 1004" d="M188.248,73.462l-2.661,18.514c-.26,1.879-.1,2.868,1.462,3.493l-1.879,4.382c-2.921-.312-5.057-1.617-5.684-4.59-2.034,2.766-4.747,4.695-8.24,4.695-5.736,0-8.867-4.277-8.867-10.8,0-7.773,4.068-18.359,15.333-18.359A22.394,22.394,0,0,1,188.248,73.462Zm-18.983,15.7c0,4.172,1.512,5.736,3.805,5.736,2.5,0,4.382-1.771,6.259-4.38l1.984-14.081a8.383,8.383,0,0,0-3.7-.732C171.506,75.7,169.265,83.423,169.265,89.16Z" transform="translate(9.213 -59.798)" fill="#fff"/>
    <path id="Path_1005" data-name="Path 1005" d="M194.329,71.239,192.4,77.653a8.442,8.442,0,0,0-2.294-.312c-3.493,0-5.579,3.286-7.3,8.188l-1.931,13.614H174.3l3.86-27.588h5.684l-.207,5.369c2.034-4.067,4.9-6.1,7.925-6.1A9.264,9.264,0,0,1,194.329,71.239Z" transform="translate(27.077 -59.766)" fill="#fff"/>
    <path id="Path_1006" data-name="Path 1006" d="M210.085,67.116l-5.424,38.594h-5.789l.052-4.225c-1.876,2.868-4.59,5.007-8.292,5.007-5.737,0-8.71-4.277-8.71-11.058,0-7.353,3.6-18.1,13.092-18.1a8.434,8.434,0,0,1,6.623,3.026l1.981-13.924ZM188.808,95.644c0,4.225,1.512,5.789,3.755,5.789,2.816,0,4.9-2.4,6.936-5.632l1.512-10.848a5.417,5.417,0,0,0-4.642-2.608C190.477,82.344,188.808,90.637,188.808,95.644Z" transform="translate(38.497 -66.334)" fill="#fff"/>
  </g>
</svg>
