<svg id="Component_33_6" data-name="Component 33 – 6" xmlns="http://www.w3.org/2000/svg" width="43.237" height="28.508" viewBox="0 0 43.237 28.508">
  <path id="Path_1173" data-name="Path 1173" d="M-1049.739,913.563h-37.6a2.818,2.818,0,0,0-2.819,2.819v22.871a2.819,2.819,0,0,0,2.819,2.818h37.6a2.818,2.818,0,0,0,2.818-2.818V916.381A2.817,2.817,0,0,0-1049.739,913.563Zm-28.276,10.907a1.188,1.188,0,0,1-1.188,1.188h-6.533a1.187,1.187,0,0,1-1.187-1.188v-4.395a1.187,1.187,0,0,1,1.187-1.188h6.533a1.188,1.188,0,0,1,1.188,1.188Z" transform="translate(1090.158 -913.563)" fill="#00aeef"/>
</svg>
