<svg id="Component_37_1" data-name="Component 37 – 1" xmlns="http://www.w3.org/2000/svg" width="328.546" height="64.953" viewBox="0 0 328.546 64.953">
  <g id="Group_948" data-name="Group 948">
    <g id="Group_947" data-name="Group 947" transform="translate(0)">
      <g id="Group_946" data-name="Group 946">
        <path id="Path_1111" data-name="Path 1111" d="M141.107,428.913a17.875,17.875,0,0,1-3.379-15.309l4.468-18.749a11.956,11.956,0,0,1,1.2-3.077,32.484,32.484,0,0,0,2.4,53.877l2.652-11.218A17.92,17.92,0,0,1,141.107,428.913Z" transform="translate(-130.207 -385.432)" fill="#ffbd13"/>
        <path id="Path_1112" data-name="Path 1112" d="M184.2,433.4l3.4.026h.048a5.993,5.993,0,0,0,5.87-4.662l.265-1.137a6.028,6.028,0,0,0-11.738-2.753l-2,8.478-.009.034H182.4Z" transform="translate(-146.991 -395.018)" fill="#ffbd13"/>
        <path id="Path_1113" data-name="Path 1113" d="M172.325,382.208a32.626,32.626,0,0,0-6.1.572l-7.238,30.37a5.994,5.994,0,0,0,1.15,5.154,5.854,5.854,0,0,0,.806.829l2.322-9.819a17.977,17.977,0,0,1,35,8.209l-.265,1.137a17.971,17.971,0,0,1-15.745,13.816c-.192.019-.385.036-.578.048q-.593.04-1.189.04h-.137l-5.143-.04h-5.157l-3.315,14.159a32.479,32.479,0,1,0,5.581-64.475Z" transform="translate(-139.848 -382.208)" fill="#ffbd13"/>
      </g>
    </g>
    <path id="Path_1114" data-name="Path 1114" d="M188.768,402.561A17.977,17.977,0,0,0,157.2,409.6l-2.322,9.819a5.857,5.857,0,0,1-.806-.829,5.994,5.994,0,0,1-1.15-5.154l7.238-30.37a32.32,32.32,0,0,0-13.193,5.775,11.96,11.96,0,0,0-1.2,3.077L141.3,410.671A18,18,0,0,0,152.018,431.5l-2.652,11.219q1.326.809,2.732,1.491a32.231,32.231,0,0,0,8.574,2.76l3.315-14.159h5.157l5.143.04h.137q.6,0,1.189-.04c.193-.013.385-.029.578-.048a17.971,17.971,0,0,0,15.745-13.816l.265-1.137A17.881,17.881,0,0,0,188.768,402.561Zm-8.206,12.545-.265,1.137a5.993,5.993,0,0,1-5.87,4.662h-.048l-3.4-.026-1.793-.014h-2.377l.009-.034,2-8.478a6.028,6.028,0,0,1,11.738,2.753Z" transform="translate(-133.775 -382.498)" fill="#002b7f"/>
  </g>
  <g id="Group_949" data-name="Group 949" transform="translate(78.58 14.725)">
    <path id="Path_1115" data-name="Path 1115" d="M377.559,438.367a30.225,30.225,0,0,1-2.586,1.711,12.408,12.408,0,0,1-10.213.971c-2.916-1.017-4.408-3.261-4.846-6.261a17.747,17.747,0,0,1,.65-6.417,36.671,36.671,0,0,1,2.027-7.33,11.272,11.272,0,0,1,14.7-6.008,24.363,24.363,0,0,1,3.41,2.062c.328-1.509.694-3.152,1.04-4.8.164-.784.335-1.572.426-2.367.2-1.786-.07-2.205-1.79-2.837.156-.806.3-1.631.485-2.448a.432.432,0,0,1,.338-.23c2.386.028,4.782-.045,7.154.153a2.481,2.481,0,0,1,2.467,3.036,45.232,45.232,0,0,1-.912,5.127c-1.983,9.355-3.993,18.7-5.968,28.061-.109.517-.308.631-.786.621-1.451-.028-2.9-.023-4.353,0-.5.007-.781-.125-.843-.687C377.872,439.936,377.7,439.159,377.559,438.367ZM374.733,420.5a4.561,4.561,0,0,0-4.808,3.477,64.518,64.518,0,0,0-1.66,7.353,3.17,3.17,0,0,0,2.617,3.991,7.091,7.091,0,0,0,2.518-.036c2.591-.536,3.842-2.413,4.446-4.808.408-1.618.741-3.257,1.073-4.893C379.532,422.565,377.83,420.511,374.733,420.5Z" transform="translate(-286.14 -404.414)" fill="#002b7f"/>
    <path id="Path_1116" data-name="Path 1116" d="M488.584,444.846l-2.347,11h-8.243c.328-1.554.651-3.091.977-4.628q2.676-12.628,5.346-25.258a8.91,8.91,0,0,0,.188-1.725,1.674,1.674,0,0,0-1.284-1.81c-.553-.146-.641-.417-.485-.922a12.356,12.356,0,0,0,.33-1.5c.06-.338.2-.5.572-.489,2.166.032,4.332,0,6.5.08a2.874,2.874,0,0,1,2.894,1.94,33.542,33.542,0,0,1,3.166-1.506,12.811,12.811,0,0,1,8.665-.164,6.831,6.831,0,0,1,4.741,6,15.593,15.593,0,0,1-.518,5.9,49.489,49.489,0,0,1-1.642,6.329,13.059,13.059,0,0,1-12.874,8.576A9.754,9.754,0,0,1,488.584,444.846Zm1.832-8.668c-.058,2.526.84,3.749,2.577,4.133a5.4,5.4,0,0,0,6.475-3.35,47.807,47.807,0,0,0,1.757-7.662,3.047,3.047,0,0,0-2.262-3.622,5.535,5.535,0,0,0-6.563,2.829,14.658,14.658,0,0,0-.938,2.909C491.03,433.186,490.676,434.977,490.416,436.178Z" transform="translate(-325.954 -409.393)" fill="#002b7f"/>
    <path id="Path_1117" data-name="Path 1117" d="M571.791,449.27a9.4,9.4,0,0,0,5.556-.09,7.158,7.158,0,0,0,3.938-3.628.778.778,0,0,0,.042-.508q-2.117-9.667-4.252-19.33a8.494,8.494,0,0,0-.268-.9c-.4-1.169-.954-2.186-2.4-2.377.183-.846.338-1.65.549-2.438a.606.606,0,0,1,.477-.3c2.076,0,4.153-.024,6.226.061a3.342,3.342,0,0,1,3.375,2.643c.62,2.462,1.165,4.944,1.688,7.429.368,1.744.647,3.506.969,5.26.027.151.074.3.139.548.164-.256.279-.433.392-.611,3-4.754,6.008-9.5,8.986-14.267a2.051,2.051,0,0,1,1.967-1.084c2.366.041,4.733.009,7.1.009a3.981,3.981,0,0,1,.438.053,3.888,3.888,0,0,1-.186.386c-5.892,9.153-11.756,18.324-17.7,27.446a18.261,18.261,0,0,1-7.363,6.656,17.162,17.162,0,0,1-8.932,1.5c-1.019-.076-2.034-.2-3.141-.311Z" transform="translate(-356.745 -409.558)" fill="#002b7f"/>
    <path id="Path_1118" data-name="Path 1118" d="M334.529,422.258c.3-.674.593-1.417.956-2.125.125-.245.418-.57.64-.574,2.337-.042,4.675-.026,7.1-.026-.332,1.576-.651,3.1-.971,4.614-1.066,5.061-2.159,10.117-3.176,15.189a11.759,11.759,0,0,0-.054,2.859,1.6,1.6,0,0,0,.45,1.082c.674.528.538,1.113.353,1.765-.114.4-.186.822-.317,1.417-1.682-.117-3.378-.115-5.028-.387a4.411,4.411,0,0,1-3.237-2.8c-.228.178-.424.337-.626.489a12.58,12.58,0,0,1-12.166,2.209c-2.9-.974-4.362-3.248-4.8-6.218a17.686,17.686,0,0,1,.645-6.419,36.454,36.454,0,0,1,2.05-7.394A11.363,11.363,0,0,1,332.1,420.48,23.444,23.444,0,0,1,334.529,422.258Zm-6.066,3.194a4.48,4.48,0,0,0-4.711,3.234A57.411,57.411,0,0,0,322,436.361c-.377,2.437.96,3.841,3.421,4.022a5.766,5.766,0,0,0,6.148-4.818c.391-1.762.78-3.526,1.074-5.306a5.424,5.424,0,0,0-.077-2.17C332.134,426.384,330.6,425.456,328.463,425.452Z" transform="translate(-270.553 -409.365)" fill="#002b7f"/>
    <path id="Path_1119" data-name="Path 1119" d="M546.671,443.426a35.954,35.954,0,0,1-3.735,2.142,12.054,12.054,0,0,1-9.069.436,7.233,7.233,0,0,1-4.845-6.267,17.783,17.783,0,0,1,.651-6.419,36.7,36.7,0,0,1,2.028-7.33,11.365,11.365,0,0,1,15.733-5.532,23.519,23.519,0,0,1,2.474,1.8c.3-.678.583-1.432.964-2.134a1.157,1.157,0,0,1,.779-.576c2.231-.05,4.465-.034,6.7-.034a.918.918,0,0,1,.237.089q-.542,2.578-1.085,5.156c-1.026,4.865-2.073,9.725-3.057,14.6a7.828,7.828,0,0,0-.064,2.591,6.815,6.815,0,0,0,.78,1.712,1.22,1.22,0,0,1,.2.619c-.125.675-.117,1.563-.542,1.94-.383.34-1.267.131-1.929.135a16.232,16.232,0,0,1-2.074-.052A4.943,4.943,0,0,1,546.671,443.426ZM543.8,425.452a4.5,4.5,0,0,0-4.7,3.337,59.2,59.2,0,0,0-1.713,7.547c-.382,2.432.948,3.859,3.4,4.045a5.778,5.778,0,0,0,6.183-4.857c.371-1.721.769-3.438,1.048-5.174a5.738,5.738,0,0,0-.08-2.3C547.485,426.353,545.949,425.447,543.8,425.452Z" transform="translate(-343.111 -409.364)" fill="#002b7f"/>
    <path id="Path_1120" data-name="Path 1120" d="M289.724,437.83l4.05,3.449a11.963,11.963,0,0,1-5.225,4.187,18.978,18.978,0,0,1-8.876,1.129,11.835,11.835,0,0,1-4.322-1.076,6.06,6.06,0,0,1-3.657-5.762,24.1,24.1,0,0,1,.53-4.564c.44-2.32.906-4.644,1.542-6.916,1.455-5.2,5-8.063,10.3-8.8a20.091,20.091,0,0,1,7.91.284c3.8.99,5.8,3.621,5.425,7.537a71.532,71.532,0,0,1-1.347,7.287c-.04.2-.358.391-.589.481a2.122,2.122,0,0,1-.729.032c-4.509,0-9.019.009-13.528-.011-.536,0-.828.091-.86.7-.037.709-.231,1.413-.232,2.119a2.185,2.185,0,0,0,1.881,2.342,8.41,8.41,0,0,0,7.4-2A3.291,3.291,0,0,0,289.724,437.83Zm-8.114-7.757h5.745c1.9,0,2.022-.129,2.007-2.1a2.185,2.185,0,0,0-1.9-2.373C284.335,424.911,281.932,426.713,281.61,430.073Z" transform="translate(-256.453 -409.401)" fill="#002b7f"/>
    <path id="Path_1121" data-name="Path 1121" d="M423.931,437.889l3.969,3.381a11.9,11.9,0,0,1-3.827,3.5,14.435,14.435,0,0,1-6.307,1.824,17.714,17.714,0,0,1-7.532-.764,6.428,6.428,0,0,1-4.455-6.267,24.289,24.289,0,0,1,.958-6.2,56.152,56.152,0,0,1,1.7-6.589c1.507-4.138,4.692-6.392,8.944-7.177a20.036,20.036,0,0,1,8.7.143c3.768.967,5.765,3.517,5.446,7.39a66.68,66.68,0,0,1-1.362,7.485c-.037.186-.4.414-.622.434-.687.06-1.383.031-2.074.032-4.063,0-8.126.009-12.189-.011-.524,0-.77.127-.806.679-.046.731-.235,1.458-.234,2.186a2.166,2.166,0,0,0,1.861,2.288A8.605,8.605,0,0,0,423.931,437.889Zm-8.234-7.822h5.9c1.776,0,1.88-.106,1.9-1.94,0-.09,0-.178,0-.268a2.046,2.046,0,0,0-1.811-2.216,7.909,7.909,0,0,0-2.834.088C416.7,426.259,416.075,428.034,415.7,430.067Z" transform="translate(-301.623 -409.395)" fill="#002b7f"/>
    <path id="Path_1122" data-name="Path 1122" d="M252.374,407.086c.155-.808.3-1.634.485-2.453a.434.434,0,0,1,.344-.219c2.407.032,4.823-.028,7.219.164a2.435,2.435,0,0,1,2.4,2.9,37.541,37.541,0,0,1-.8,4.737q-2.206,10.468-4.457,20.927a3.842,3.842,0,0,0-.073.53c-.074,1.032.332,1.493,1.373,1.531.356.013.714-.025,1.07-.044.33-.019.661-.044,1.107-.074l-1.282,6.007a26.815,26.815,0,0,1-6.953.145c-3.209-.526-4.6-2.564-3.925-5.849,1.392-6.768,2.845-13.522,4.264-20.284.362-1.723.765-3.442,1.011-5.181C254.4,408.131,254.108,407.757,252.374,407.086Z" transform="translate(-248.71 -404.414)" fill="#002b7f"/>
    <path id="Path_1123" data-name="Path 1123" d="M448.789,422.245c.171-.775.308-1.52.515-2.246a.706.706,0,0,1,.5-.426c1.986-.013,3.977-.059,5.958.058,1.661.1,2.83.62,3.1,2.89,3.459-3.048,7.434-3.812,11.941-2.863-.625,2.261-1.215,4.394-1.816,6.564a11.21,11.21,0,0,0-4.822-.341,7.6,7.6,0,0,0-6.692,6.282c-1,4.574-1.963,9.154-2.935,13.734-.066.31-.118.526-.524.523-2.522-.018-5.046-.011-7.568-.014a1.491,1.491,0,0,1-.253-.055q.512-2.421,1.023-4.83,1.679-7.916,3.357-15.831a4.135,4.135,0,0,0,.07-.462C450.823,423.291,450.624,422.965,448.789,422.245Z" transform="translate(-315.241 -409.42)" fill="#002b7f"/>
  </g>
</svg>
