<svg id="Component_31_1" data-name="Component 31 – 1" xmlns="http://www.w3.org/2000/svg" width="364.32" height="77.512" viewBox="0 0 364.32 77.512">
  <g id="Component_33_66" data-name="Component 33 – 66">
    <g id="Group_849" data-name="Group 849">
      <g id="Group_841" data-name="Group 841" transform="translate(4.392 25.583)">
        <path id="Path_988" data-name="Path 988" d="M116.263,101.206H80.544L63.7,69.842,57.068,80.784l17.106,31.069h35.739Z" transform="translate(-57.068 -69.842)" fill="#ffce00"/>
      </g>
      <g id="Group_842" data-name="Group 842" transform="translate(15.044 7.942)">
        <path id="Path_989" data-name="Path 989" d="M61.1,74.113h43.009l6.713-10.943H67.729Z" transform="translate(-61.097 -63.17)" fill="#ffce00"/>
      </g>
      <g id="Group_843" data-name="Group 843" transform="translate(15.044 7.942)">
        <path id="Path_990" data-name="Path 990" d="M120.787,93.741H84.976L67.729,63.17,61.1,74.113l17.535,30.276h35.686Z" transform="translate(-61.097 -63.17)" fill="#ffce00"/>
      </g>
      <g id="Group_844" data-name="Group 844" transform="translate(51.282 33.307)" opacity="0.32">
        <path id="Path_991" data-name="Path 991" d="M74.87,116.968l-.068-.04,26.421-44.165.068.041Z" transform="translate(-74.802 -72.763)" fill="#ffce00"/>
      </g>
      <g id="Group_845" data-name="Group 845" opacity="0.32">
        <path id="Path_992" data-name="Path 992" d="M55.475,104.372l-.068-.041,26.42-44.165.068.041Z" transform="translate(-55.407 -60.166)" fill="#ffce00"/>
      </g>
      <g id="Group_846" data-name="Group 846" transform="translate(19.11 27.345)" opacity="0.32">
        <path id="Path_993" data-name="Path 993" d="M62.7,114.713l-.068-.04,26.42-44.165.068.041Z" transform="translate(-62.635 -70.508)" fill="#ffce00"/>
      </g>
      <g id="Group_847" data-name="Group 847" transform="translate(56.133 4.92)" opacity="0.32">
        <path id="Path_994" data-name="Path 994" d="M76.705,79.23l-.068-.041L86.9,62.027l.068.041Z" transform="translate(-76.637 -62.027)" fill="#ffce00"/>
      </g>
      <g id="Group_848" data-name="Group 848" transform="translate(53.625 29.26)">
        <path id="Path_995" data-name="Path 995" d="M88.532,76.259H78.479l-2.79-5.026H85.741Z" transform="translate(-75.688 -71.232)" fill="#ffce00"/>
      </g>
      <path id="Path_996" data-name="Path 996" d="M92.7,73.828,89.906,68.8H79.834l0,0H69.779L75.33,78.851H85.383l-2.773-5.023Z" transform="translate(-31.779 -45.974)" fill="#ffce00"/>
    </g>
    <g id="Group_850" data-name="Group 850" transform="translate(101.25 16.475)">
      <path id="Path_997" data-name="Path 997" d="M100.727,101.167c-.164,1.491.222,2.044,1.269,2.044a5.954,5.954,0,0,0,1.658-.331l1.047,4.968a11.72,11.72,0,0,1-4.857,1.047c-4.413,0-6.732-2.7-6.015-8l4.746-33.723,7.065-.772Z" transform="translate(-93.7 -66.397)" fill="#323e54"/>
      <path id="Path_998" data-name="Path 998" d="M106.486,90.119c.167,4.527,2.485,6.073,5.685,6.073a12.608,12.608,0,0,0,7.618-2.708l2.7,4.416a18.9,18.9,0,0,1-11.095,3.755c-7.948,0-12.033-4.749-12.033-12.144,0-7.948,4.141-18.71,15.9-18.71,6.679,0,10.1,3.588,10.1,7.729C125.362,86.75,116.089,89.127,106.486,90.119Zm11.7-11.314c0-1.269-.717-2.98-3.31-2.98-5.021,0-7.284,4.91-8.057,9.6C114.653,84.711,118.186,82.557,118.186,78.8Z" transform="translate(-84.387 -59.156)" fill="#323e54"/>
      <path id="Path_999" data-name="Path 999" d="M137.535,73.617,134.719,93.21c-.275,1.988-.108,3.035,1.547,3.7l-1.988,4.638c-3.091-.331-5.352-1.711-6.015-4.857-2.152,2.927-5.024,4.968-8.72,4.968-6.071,0-9.381-4.527-9.381-11.425,0-8.226,4.3-19.429,16.224-19.429A23.7,23.7,0,0,1,137.535,73.617ZM117.445,90.23c0,4.416,1.6,6.071,4.027,6.071,2.649,0,4.638-1.875,6.623-4.635l2.1-14.9a8.872,8.872,0,0,0-3.919-.775C119.817,75.989,117.445,84.159,117.445,90.23Z" transform="translate(-66.638 -59.156)" fill="#323e54"/>
      <path id="Path_1000" data-name="Path 1000" d="M151.887,67.156,146.147,108h-6.129l.056-4.471c-1.986,3.035-4.857,5.3-8.776,5.3-6.071,0-9.215-4.527-9.215-11.7,0-7.782,3.8-19.151,13.852-19.151a8.926,8.926,0,0,1,7.009,3.2l2.1-14.735Zm-22.52,30.19c0,4.471,1.6,6.126,3.974,6.126,2.98,0,5.188-2.538,7.34-5.96l1.6-11.481a5.732,5.732,0,0,0-4.913-2.76C131.134,83.271,129.367,92.047,129.367,97.346Z" transform="translate(-47.037 -66.328)" fill="#323e54"/>
      <path id="Path_1001" data-name="Path 1001" d="M141.415,90.119c.167,4.527,2.485,6.073,5.687,6.073a12.6,12.6,0,0,0,7.615-2.708l2.7,4.416a18.9,18.9,0,0,1-11.095,3.755c-7.948,0-12.031-4.749-12.031-12.144,0-7.948,4.138-18.71,15.9-18.71,6.676,0,10.1,3.588,10.1,7.729C160.291,86.75,151.021,89.127,141.415,90.119Zm11.7-11.314c0-1.269-.717-2.98-3.313-2.98-5.021,0-7.284,4.91-8.056,9.6C149.585,84.711,153.118,82.557,153.118,78.8Z" transform="translate(-26.956 -59.156)" fill="#323e54"/>
      <path id="Path_1002" data-name="Path 1002" d="M166.432,71.264l-2.044,6.787a8.919,8.919,0,0,0-2.427-.331c-3.7,0-5.9,3.477-7.726,8.665l-2.044,14.408h-6.954l4.085-29.2h6.015l-.219,5.682c2.152-4.3,5.188-6.457,8.39-6.457A9.8,9.8,0,0,1,166.432,71.264Z" transform="translate(-8.97 -59.122)" fill="#323e54"/>
      <path id="Path_1003" data-name="Path 1003" d="M177.5,74.281l-3.533,4.194a7.353,7.353,0,0,0-5.354-2.1c-6.623,0-8.39,7.89-8.39,13.355,0,4.524,1.988,6.182,5.19,6.182,2.263,0,3.974-.775,6.237-2.152l2.649,4.691a16.479,16.479,0,0,1-9.661,3.2c-7.451,0-11.756-4.691-11.756-12.308s4.3-18.546,15.677-18.546A12.3,12.3,0,0,1,177.5,74.281Z" transform="translate(3.594 -59.156)" fill="#323e54"/>
      <path id="Path_1004" data-name="Path 1004" d="M189.756,73.617,186.94,93.21c-.275,1.988-.111,3.035,1.547,3.7l-1.988,4.638c-3.091-.331-5.352-1.711-6.015-4.857-2.152,2.927-5.024,4.968-8.72,4.968-6.071,0-9.384-4.527-9.384-11.425,0-8.226,4.3-19.429,16.227-19.429A23.7,23.7,0,0,1,189.756,73.617ZM169.666,90.23c0,4.416,1.6,6.071,4.027,6.071,2.649,0,4.638-1.875,6.623-4.635l2.1-14.9a8.872,8.872,0,0,0-3.919-.775C172.038,75.989,169.666,84.159,169.666,90.23Z" transform="translate(19.213 -59.156)" fill="#323e54"/>
      <path id="Path_1005" data-name="Path 1005" d="M195.5,71.264l-2.044,6.787a8.934,8.934,0,0,0-2.427-.331c-3.7,0-5.9,3.477-7.726,8.665l-2.044,14.408H174.3l4.085-29.2H184.4l-.219,5.682c2.152-4.3,5.188-6.457,8.387-6.457A9.8,9.8,0,0,1,195.5,71.264Z" transform="translate(38.814 -59.122)" fill="#323e54"/>
      <path id="Path_1006" data-name="Path 1006" d="M211.726,67.156,205.986,108h-6.126l.056-4.471c-1.986,3.035-4.857,5.3-8.776,5.3-6.071,0-9.217-4.527-9.217-11.7,0-7.782,3.807-19.151,13.855-19.151a8.926,8.926,0,0,1,7.009,3.2l2.1-14.735Zm-22.517,30.19c0,4.471,1.6,6.126,3.974,6.126,2.98,0,5.188-2.538,7.34-5.96l1.6-11.481a5.732,5.732,0,0,0-4.913-2.76C190.975,83.271,189.209,92.047,189.209,97.346Z" transform="translate(51.343 -66.328)" fill="#323e54"/>
    </g>
  </g>
</svg>
