<svg id="Component_31_26" data-name="Component 31 – 26" xmlns="http://www.w3.org/2000/svg" width="130.831" height="130.83" viewBox="0 0 130.831 130.83">
  <ellipse id="Ellipse_34" data-name="Ellipse 34" cx="65.416" cy="65.415" rx="65.416" ry="65.415" fill="#32cc4d"/>
  <g id="Group_1035" data-name="Group 1035" transform="translate(39.307 39.846)">
    <path id="Path_1135" data-name="Path 1135" d="M119.187-1913.394a12.062,12.062,0,0,1,1.236-1.815q12.468-12.513,24.983-24.98c3.7-3.68,8.77-3.523,12.028.278a7.791,7.791,0,0,1,.3,9.963,14.094,14.094,0,0,1-1.265,1.414Q140.69-1912.75,124.9-1896.98c-3.8,3.79-8.269,3.8-12.052.045q-7.957-7.893-15.842-15.855a7.683,7.683,0,0,1-1.725-9.06,7.852,7.852,0,0,1,8.366-4.608,9.218,9.218,0,0,1,4.458,2.183c3.235,2.928,6.228,6.123,9.321,9.208C117.86-1914.629,118.321-1914.214,119.187-1913.394Z" transform="translate(-94.484 1942.858)" fill="#fff"/>
  </g>
</svg>
