<svg id="Component_34_1-lead" data-name="Component 34 – 1-lead" xmlns="http://www.w3.org/2000/svg" width="107" height="108" viewBox="0 0 107 108">
  <ellipse id="Ellipse_2" data-name="Ellipse 2" cx="53.5" cy="54" rx="53.5" ry="54" fill="#ffce00"/>
  <g id="Group_1015" data-name="Group 1015" transform="translate(27.312 31.23)">
    <g id="Group_841" data-name="Group 841" transform="translate(0 13.389)">
      <path id="Path_988" data-name="Path 988" d="M101.995,93.646H74.886L62.1,69.842l-5.033,8.305,12.983,23.58H97.176Z" transform="translate(-57.068 -69.842)" fill="#fff"/>
    </g>
    <path id="Path_989" data-name="Path 989" d="M61.1,71.475H93.739l5.1-8.305H66.13Z" transform="translate(-53.012 -63.17)" fill="#fff"/>
    <g id="Group_843" data-name="Group 843" transform="translate(8.085 0)">
      <path id="Path_990" data-name="Path 990" d="M106.4,86.372H79.22L66.13,63.17,61.1,71.475,74.4,94.453h27.084Z" transform="translate(-61.097 -63.17)" fill="#fff"/>
    </g>
    <g id="Group_848" data-name="Group 848" transform="translate(37.366 16.18)">
      <path id="Path_995" data-name="Path 995" d="M85.436,75.047h-7.63l-2.118-3.815h7.63Z" transform="translate(-75.688 -71.232)" fill="#fff"/>
    </g>
    <path id="Path_996" data-name="Path 996" d="M87.172,72.616,85.055,68.8H77.41l0,0h-7.63l4.213,7.63h7.63l-2.1-3.812Z" transform="translate(-44.272 -57.503)" fill="#fff"/>
  </g>
</svg>
