<svg id="Component_38_1" data-name="Component 38 – 1" xmlns="http://www.w3.org/2000/svg" width="63.333" height="44.5" viewBox="0 0 63.333 44.5">
  <path id="Path_1170" data-name="Path 1170" d="M135.8-2049.795c-7.146-.335-14.294-.639-21.437-1.023a10.5,10.5,0,0,1-6.135-1.906c-2.2-1.712-2.971-4.118-3.307-6.729a99.673,99.673,0,0,1,0-25.451c.377-2.951,1.339-5.576,4.041-7.233a11.139,11.139,0,0,1,5.4-1.406c6.124-.311,12.252-.74,18.38-.751,7.515-.014,15.031.323,22.545.566a28.987,28.987,0,0,1,4.508.561,7.667,7.667,0,0,1,6.458,6.272,59.8,59.8,0,0,1,1.163,14.364c-.108,4.7-.436,9.418-.994,14.089-.537,4.49-3.264,7.08-7.791,7.414-6.638.489-13.3.694-19.948,1-.954.045-1.913.006-2.869.006C135.808-2049.943,135.8-2049.869,135.8-2049.795Zm-6.285-31.85v18.928l16.389-9.464Z" transform="translate(-104.105 2094.295)" fill="#f10042"/>
</svg>
