<svg id="Component_32_2-el" data-name="Component 32 – 2-el" xmlns="http://www.w3.org/2000/svg" width="107" height="107" viewBox="0 0 107 107">
  <circle id="Ellipse_2" data-name="Ellipse 2" cx="53.5" cy="53.5" r="53.5" fill="#f10078"/>
  <g id="Group_1055" data-name="Group 1055" transform="translate(17.169 34.255)">
    <path id="Path_526" data-name="Path 526" d="M226.31,411.3a20.129,20.129,0,1,1,19.927,20.164A20.133,20.133,0,0,1,226.31,411.3Zm21.09,10.142c-.418-1.242.493-1.228,1.208-1.564a8.141,8.141,0,0,0,2.781-1.78c1.975-2.318,1.1-5.716-1.792-7.372-1.238-.708-2.618-1.183-3.8-1.965a2.434,2.434,0,0,1-1.046-1.817,2.045,2.045,0,0,1,1.512-1.271,29.23,29.23,0,0,1,3.96.267c.422.027,1.054.085,1.245-.15a2.159,2.159,0,0,0-1.189-3.1,6.876,6.876,0,0,0-1.539-.21c-.85,0-1.582-.088-1.479-1.212H245.6l-.243,1.217c-.543.173-1,.3-1.449.464a4.669,4.669,0,0,0-3.376,3.909,4.54,4.54,0,0,0,2.287,4.749c1.366.826,2.909,1.364,4.252,2.221.561.358,1.218,1.315,1.091,1.811a2.294,2.294,0,0,1-1.691,1.4,33.9,33.9,0,0,1-4.537-.636c-.4-.056-1.033-.126-1.21.093a2.358,2.358,0,0,0,1.121,3.29c1.129.276,2.291.414,3.527.627l.268,1.025Zm-1.778-24.787c9.819.121,15.016,7.663,15.187,14.132a14.3,14.3,0,0,1-3.278,9.761,14.7,14.7,0,0,1-11.895,5.439v2.223c6.513-.107,11.651-2.635,14.944-8.2,3.628-6.126,3.408-12.367-.589-18.254-3.379-4.977-8.294-7.222-14.369-7.268Z" transform="translate(-200.88 -391.214)" fill="#fff"/>
    <path id="Path_527" data-name="Path 527" d="M150.266,464.255c-.389.024-.768.068-1.147.068q-8.768,0-17.536-.009a4.362,4.362,0,0,1-1.531-.2A1.811,1.811,0,0,1,128.728,462a4.868,4.868,0,0,1,1.4-1.971c.244-.242.823-.195,1.25-.2q9.028-.019,18.056-.009c.254,0,.507.043.837.073Z" transform="translate(-128.672 -441.944)" fill="#fff"/>
    <path id="Path_528" data-name="Path 528" d="M179.659,498.77c-4.372,0-8.537.025-12.7-.015a2.19,2.19,0,0,1-2.223-2.243A2.166,2.166,0,0,1,167,494.325c3.385-.032,6.771-.024,10.156.007a1.172,1.172,0,0,1,.908.446C178.625,496.029,179.092,497.323,179.659,498.77Z" transform="translate(-155.342 -467.446)" fill="#fff"/>
    <path id="Path_529" data-name="Path 529" d="M180.29,425.5c-.569,1.451-1.022,2.708-1.569,3.923a1.14,1.14,0,0,1-.871.5q-5.009.051-10.02.009a2.207,2.207,0,0,1-.163-4.411C171.825,425.465,175.983,425.5,180.29,425.5Z" transform="translate(-155.976 -416.551)" fill="#fff"/>
    <path id="Path_530" data-name="Path 530" d="M220.169,532.966c-3.245,0-6.421.074-9.589-.041-1.105-.04-1.687-.986-1.734-2.1a2.144,2.144,0,0,1,1.958-2.214c1.418-.111,2.85-.054,4.275-.034a1.14,1.14,0,0,1,.676.3C217.2,530.2,218.637,531.543,220.169,532.966Z" transform="translate(-187.963 -492.768)" fill="#fff"/>
    <path id="Path_531" data-name="Path 531" d="M220.521,391.186c-1.606,1.491-3.039,2.846-4.509,4.159a1.571,1.571,0,0,1-.939.292c-1.125.035-2.253.042-3.378.01a2.277,2.277,0,0,1-2.451-2.3,2.212,2.212,0,0,1,2.416-2.16C214.558,391.17,217.457,391.186,220.521,391.186Z" transform="translate(-188.258 -391.181)" fill="#fff"/>
  </g>
</svg>
