<svg id="Component_35_1-ot" data-name="Component 35 – 1-ot" xmlns="http://www.w3.org/2000/svg" width="107" height="108" viewBox="0 0 107 108">
  <ellipse id="Ellipse_2" data-name="Ellipse 2" cx="53.5" cy="54" rx="53.5" ry="54" fill="#30528b"/>
  <g id="Group_1090" data-name="Group 1090" transform="translate(-895.236 13.821)">
    <path id="Path_533" data-name="Path 533" d="M948.816,13.8a25.975,25.975,0,1,1-25.96,25.843A25.99,25.99,0,0,1,948.816,13.8Zm.017,47.518A21.543,21.543,0,1,0,927.287,39.7,21.571,21.571,0,0,0,948.833,61.32Z" transform="translate(0 0)" fill="#fff"/>
    <path id="Path_534" data-name="Path 534" d="M1081.978,168.49a4.448,4.448,0,1,1-4.442,4.489A4.468,4.468,0,0,1,1081.978,168.49Z" transform="translate(-133.154 -133.162)" fill="#fff"/>
    <path id="Path_535" data-name="Path 535" d="M1171.708,172.977a4.438,4.438,0,0,1-4.433,4.412,4.448,4.448,0,1,1,0-8.9A4.433,4.433,0,0,1,1171.708,172.977Z" transform="translate(-206.571 -133.165)" fill="#fff"/>
    <path id="Path_536" data-name="Path 536" d="M992.32,172.936a4.427,4.427,0,0,1,4.475-4.438,4.448,4.448,0,0,1-.017,8.9A4.435,4.435,0,0,1,992.32,172.936Z" transform="translate(-59.798 -133.168)" fill="#fff"/>
  </g>
</svg>
