<svg xmlns="http://www.w3.org/2000/svg" xmlns:xlink="http://www.w3.org/1999/xlink" width="501.842" height="87.681" viewBox="0 0 501.842 87.681">
  <defs>
    <clipPath id="clip-path">
      <rect id="Rectangle_804" data-name="Rectangle 804" width="501.842" height="87.681" transform="translate(0 0)" fill="none"/>
    </clipPath>
  </defs>
  <g id="Component_48_4" data-name="Component 48 – 4" transform="translate(0 0)" clip-path="url(#clip-path)">
    <path id="Path_575" data-name="Path 575" d="M102.2,17.262C101.472,16.114,90.586,0,71.712,0H31.357A23.665,23.665,0,0,0,7.694,23.66V67.939c0,1.307-2.033.581-2.033.581a6.239,6.239,0,0,0-1.743-.293A3.9,3.9,0,0,0,0,72.148c0,4.658,7.258,6.532,10.163,6.532a13.283,13.283,0,0,0,2.466-.145,23.956,23.956,0,0,0,18.728,9.146h40.21A23.665,23.665,0,0,0,95.23,64.021V39.777s4.932-6.242,5.516-6.823h0s3.918-5.37,4.932-7.4.145-2.9-3.485-8.275" transform="translate(0 0)" fill="#fff"/>
    <path id="Path_576" data-name="Path 576" d="M77.625,59.487a8.73,8.73,0,0,0,2.9.436c4.354,0,6.242-1.743,6.242-3.773,0-2.324-3.195-2.324-3.485-4.5-.436-2.614-.145-14.226,4.354-20.613l3.05,1.307a4.727,4.727,0,0,0,1.888.436,2.74,2.74,0,0,0,2.033-1.017,58.721,58.721,0,0,0,7.845-10.741c.436-.726-5.951-8.711-9.437-11.467A14.522,14.522,0,0,0,84.165,6.5,14.013,14.013,0,0,0,70.81,15.937a67.816,67.816,0,0,1-20.032,9.59c-9.727,2.614-19.742.145-26.419.581A13.76,13.76,0,0,0,10.568,40.334c.145,7.549,5.37,14.371,5.37,21.485a7.771,7.771,0,0,1-7.7,7.976c-3.773,0-3.918-1.452-5.08-1.452A.929.929,0,0,0,2,69.211c0,1.888,4.658,3.631,7.258,3.631a11.508,11.508,0,0,0,9.864-4.932,8.675,8.675,0,0,0,8.711,5.08c5.516,0,7.839-2.614,7.839-4.79,0-1.743-1.017-2.466-1.888-3.631a5.255,5.255,0,0,1-1.017-3.34,25.883,25.883,0,0,0,2.9.145c3.918,0,5.225-1.6,5.225-3.195,0-2.033-2.324-1.888-2.324-5.225,0-2.614,1.452-3.34,2.614-3.34,1.307,0,6.387.436,12.629,1.162,2.033.145,7.124,2.178,7.124,10.163v2.9c0,4.79,1.888,10.889,10.6,10.889,5.806,0,9.146-3.195,9.146-5.661,0-1.6-1.307-2.178-2.033-3.195a7.5,7.5,0,0,1-1.017-6.387" transform="translate(0.904 2.936)" fill="#f26724"/>
    <path id="Path_577" data-name="Path 577" d="M64.117,19.1a1.017,1.017,0,1,0,1.017,1.017A.992.992,0,0,0,64.117,19.1" transform="translate(28.499 8.626)" fill="#fff"/>
    <path id="Path_578" data-name="Path 578" d="M66.471,17a.871.871,0,1,0,.871.871A.836.836,0,0,0,66.471,17" transform="translate(29.63 7.679)" fill="#fff"/>
    <path id="Path_579" data-name="Path 579" d="M67.626,14.7a.726.726,0,1,0,.726.726.778.778,0,0,0-.726-.726" transform="translate(30.218 6.639)" fill="#fff"/>
    <path id="Path_580" data-name="Path 580" d="M47.762,18.724A1.162,1.162,0,1,0,46.6,17.562c.145.726.581,1.162,1.162,1.162" transform="translate(21.049 7.408)" fill="#fff"/>
    <path id="Path_581" data-name="Path 581" d="M50.621,36.2A1.036,1.036,0,0,0,49.6,37.362a1.121,1.121,0,0,0,1.017,1.162,1.145,1.145,0,0,0,1.162-1.162c-.145-.581-.581-1.162-1.162-1.162" transform="translate(22.398 16.351)" fill="#fff"/>
    <path id="Path_582" data-name="Path 582" d="M55.162,37a1.162,1.162,0,1,0,1.162,1.162C56.178,37.436,55.743,37,55.162,37" transform="translate(24.39 16.713)" fill="#fff"/>
    <path id="Path_583" data-name="Path 583" d="M51.262,29.4a1.162,1.162,0,0,0,0,2.324,1.069,1.069,0,0,0,1.162-1.162A1.145,1.145,0,0,0,51.262,29.4" transform="translate(22.629 13.279)" fill="#fff"/>
    <path id="Path_584" data-name="Path 584" d="M53.807,25.024a1.173,1.173,0,1,0-1.013-1.162,1.162,1.162,0,0,0,1.013,1.162" transform="translate(23.859 10.254)" fill="#fff"/>
    <path id="Path_585" data-name="Path 585" d="M42.062,21.924A1.162,1.162,0,1,0,40.9,20.762c.145.726.581,1.162,1.162,1.162" transform="translate(18.474 8.852)" fill="#fff"/>
    <path id="Path_586" data-name="Path 586" d="M46.362,34.7a1.162,1.162,0,1,0,1.162,1.162c-.145-.726-.581-1.162-1.162-1.162" transform="translate(20.416 15.673)" fill="#fff"/>
    <path id="Path_587" data-name="Path 587" d="M44.262,25.624a1.036,1.036,0,0,0,1.017-1.162A1.121,1.121,0,0,0,44.262,23.3a1.162,1.162,0,0,0,0,2.324" transform="translate(19.466 10.523)" fill="#fff"/>
    <path id="Path_588" data-name="Path 588" d="M39.462,29.2a1.162,1.162,0,1,0,1.162,1.162A1.249,1.249,0,0,0,39.462,29.2" transform="translate(17.298 13.188)" fill="#fff"/>
    <path id="Path_589" data-name="Path 589" d="M47.262,29.124A1.162,1.162,0,1,0,46.1,27.962c.145.726.581,1.162,1.162,1.162" transform="translate(20.823 12.106)" fill="#fff"/>
    <path id="Path_590" data-name="Path 590" d="M35.362,21.7a1.162,1.162,0,1,0,1.162,1.162A1.145,1.145,0,0,0,35.362,21.7" transform="translate(15.447 9.802)" fill="#fff"/>
    <path id="Path_591" data-name="Path 591" d="M37.062,25.6a1.162,1.162,0,1,0,1.162,1.162c-.145-.726-.581-1.162-1.162-1.162" transform="translate(16.215 11.563)" fill="#fff"/>
    <path id="Path_592" data-name="Path 592" d="M42.562,32.1a1.162,1.162,0,1,0,1.162,1.162c-.145-.581-.581-1.162-1.162-1.162" transform="translate(18.7 14.5)" fill="#fff"/>
    <path id="Path_593" data-name="Path 593" d="M50.262,22.224A1.162,1.162,0,1,0,49.1,21.062c.145.726.581,1.162,1.162,1.162" transform="translate(22.176 8.988)" fill="#fff"/>
    <path id="Path_594" data-name="Path 594" d="M55.762,30.8a1.162,1.162,0,1,0,1.162,1.162A1.145,1.145,0,0,0,55.762,30.8" transform="translate(24.661 13.912)" fill="#fff"/>
    <path id="Path_595" data-name="Path 595" d="M57.662,24.7a1.162,1.162,0,0,0,0,2.324,1.069,1.069,0,0,0,1.162-1.162A1.145,1.145,0,0,0,57.662,24.7" transform="translate(25.52 11.156)" fill="#fff"/>
    <path id="Path_596" data-name="Path 596" d="M57.162,18.5a1.162,1.162,0,1,0,1.162,1.162A1.069,1.069,0,0,0,57.162,18.5" transform="translate(25.294 8.352)" fill="#fff"/>
    <path id="Path_597" data-name="Path 597" d="M60.762,19.6a1.162,1.162,0,1,0,1.162,1.162A1.249,1.249,0,0,0,60.762,19.6" transform="translate(26.919 8.852)" fill="#fff"/>
    <path id="Path_598" data-name="Path 598" d="M54.562,16.2a1.162,1.162,0,1,0,1.162,1.162c-.145-.726-.581-1.162-1.162-1.162" transform="translate(24.118 7.318)" fill="#fff"/>
    <path id="Path_599" data-name="Path 599" d="M53.062,13.3a1.162,1.162,0,1,0,1.162,1.162c-.145-.581-.581-1.162-1.162-1.162" transform="translate(23.443 6.006)" fill="#fff"/>
    <path id="Path_600" data-name="Path 600" d="M56.162,13.3a1.162,1.162,0,1,0,1.162,1.162A1.249,1.249,0,0,0,56.162,13.3" transform="translate(24.842 6.006)" fill="#fff"/>
    <path id="Path_601" data-name="Path 601" d="M52.2,11.572a.937.937,0,0,1,.871-.871.836.836,0,0,1,.871.871.871.871,0,0,1-1.743,0" transform="translate(23.578 4.833)" fill="#fff"/>
    <path id="Path_602" data-name="Path 602" d="M54.1,9.226a.726.726,0,1,1,.726.726.778.778,0,0,1-.726-.726" transform="translate(24.435 3.838)" fill="#fff"/>
    <path id="Path_603" data-name="Path 603" d="M56.5,8.081a.581.581,0,1,1,.581.581.625.625,0,0,1-.581-.581" transform="translate(25.52 3.389)" fill="#fff"/>
    <path id="Path_604" data-name="Path 604" d="M66.9,13.281a.581.581,0,1,1,.581.581.625.625,0,0,1-.581-.581" transform="translate(30.218 5.735)" fill="#fff"/>
    <path id="Path_605" data-name="Path 605" d="M66.3,20.781a.581.581,0,1,1,.581.581c-.145,0-.436-.29-.581-.581" transform="translate(29.946 9.124)" fill="#fff"/>
    <path id="Path_606" data-name="Path 606" d="M67.4,19.381a.581.581,0,1,1,.581.581.625.625,0,0,1-.581-.581" transform="translate(30.444 8.491)" fill="#fff"/>
    <path id="Path_607" data-name="Path 607" d="M65.2,22.281a.581.581,0,1,1,.581.581.625.625,0,0,1-.581-.581" transform="translate(29.449 9.802)" fill="#fff"/>
    <path id="Path_608" data-name="Path 608" d="M63.9,23.581a.581.581,0,1,1,.581.581c-.29,0-.436-.29-.581-.581" transform="translate(28.861 10.387)" fill="#fff"/>
    <path id="Path_609" data-name="Path 609" d="M68.4,17.881a.581.581,0,1,1,.581.581.625.625,0,0,1-.581-.581" transform="translate(30.893 7.815)" fill="#fff"/>
    <path id="Path_610" data-name="Path 610" d="M69.1,16.581a.581.581,0,1,1,.581.581c-.29,0-.436-.145-.581-.581" transform="translate(31.21 7.227)" fill="#fff"/>
    <path id="Path_611" data-name="Path 611" d="M23.557,55.029A17.58,17.58,0,0,1,22.25,41.093c3.05-7.839,11.9-6.823,11.9-6.823a10.2,10.2,0,0,0-4.658-.871A11.61,11.61,0,0,0,18.923,45.883a13.363,13.363,0,0,0,4.658,9.146" transform="translate(8.523 15.086)" fill="#fff"/>
    <path id="Path_612" data-name="Path 612" d="M12.859,38.125A9.316,9.316,0,0,1,10.1,31.447a9.607,9.607,0,0,1,9.437-9.437c5.37-.29,15.243,1.307,21.63.436,2.178,9.727,9.437,16.55,14.8,20.9-6.532-2.9-13.064-10.6-20.613-14.8-7.839-4.354-15.824-5.08-20.032-1.162a10.845,10.845,0,0,0-2.466,10.744" transform="translate(4.562 9.924)" fill="#fff"/>
    <path id="Path_613" data-name="Path 613" d="M28.858,39.9c.436,2.759-4.658,3.773-4.658,3.773,4.658.871,6.1-1.6,6.1-1.6A11.083,11.083,0,0,0,28.844,39.9" transform="translate(10.93 18.02)" fill="#fff"/>
    <path id="Path_614" data-name="Path 614" d="M54.642,40.912h0s-3.05,4.209-.871,12.056a15.675,15.675,0,0,1-5.37,2.74s6.968.871,9.146-2.759c-4.354-3.34-3.05-11.467-2.9-12.056" transform="translate(21.86 18.462)" fill="#fff"/>
    <path id="Path_615" data-name="Path 615" d="M63.954,10.377a4.622,4.622,0,0,0-5.661,3.195A4.51,4.51,0,0,0,62.5,18.5a4.622,4.622,0,0,0,5.661-3.195,4.51,4.51,0,0,0-4.209-4.932m3.485,4.79a3.37,3.37,0,0,1-4.063,2.324A3.195,3.195,0,0,1,60.471,14a3.37,3.37,0,0,1,4.063-2.324,3.195,3.195,0,0,1,2.9,3.485" transform="translate(26.341 4.575)" fill="#fff"/>
    <path id="Path_616" data-name="Path 616" d="M62.1,13.525a1.871,1.871,0,0,1,2.178-1.307,1.754,1.754,0,0,1,1.6,1.888A1.871,1.871,0,0,1,63.7,15.413a1.754,1.754,0,0,1-1.6-1.888" transform="translate(28.052 5.493)" fill="#fff"/>
    <path id="Path_617" data-name="Path 617" d="M59.33,38.3h0c1.6,3.05-3.631,4.209-3.631,4.209,3.773.581,5.806-1.6,5.806-2.614a9.4,9.4,0,0,1-2.178-1.6" transform="translate(25.157 17.296)" fill="#fff"/>
    <path id="Path_618" data-name="Path 618" d="M35.952,31.49s.726.871,1.888,2.033A46.583,46.583,0,0,0,42.5,37.442a35.5,35.5,0,0,0,5.08,3.195,9.546,9.546,0,0,0,1.743.871,6.1,6.1,0,0,1,.726.29,6.1,6.1,0,0,0-.726-.29,9.976,9.976,0,0,1-1.888-.871,43.607,43.607,0,0,1-5.37-3.05,36.812,36.812,0,0,1-4.79-3.773,21.291,21.291,0,0,1-2.033-2.033.441.441,0,0,1,0-.581,1.1,1.1,0,0,1,.726.29h0" transform="translate(15.873 14.093)" fill="#fff"/>
    <path id="Path_619" data-name="Path 619" d="M70.681,13.622a7.842,7.842,0,0,0-13.21-.581,1.236,1.236,0,1,1-1.885-1.6A8.881,8.881,0,0,1,62.409,8.4a8.768,8.768,0,0,1,8.275,5.225" transform="translate(24.984 3.799)" fill="#fff"/>
    <path id="Path_620" data-name="Path 620" d="M64.951,26.853a19.1,19.1,0,0,1-9.727-3.918,20.328,20.328,0,0,1-6.1-6.823c-.145-.436-.145-1.017.29-1.162a.784.784,0,0,1,1.162.29,22.071,22.071,0,0,0,5.806,7.4,21.391,21.391,0,0,0,8.565,4.214" transform="translate(22.149 6.693)" fill="#fff"/>
    <path id="Path_621" data-name="Path 621" d="M63.658,33.116a23.564,23.564,0,0,1-15.24-7.549,31.875,31.875,0,0,1-4.79-6.677.847.847,0,1,1,1.452-.871,28.612,28.612,0,0,0,5.661,8.42,21.937,21.937,0,0,0,12.919,6.677" transform="translate(19.666 7.966)" fill="#fff"/>
    <path id="Path_622" data-name="Path 622" d="M38.075,20.507a.822.822,0,0,1,1.017.581,31.02,31.02,0,0,0,7.4,11.9,27.51,27.51,0,0,0,18.147,8.13,27.8,27.8,0,0,1-19.6-8.13,32.11,32.11,0,0,1-7.4-11.322.77.77,0,0,1,.436-1.162" transform="translate(16.942 9.252)" fill="#fff"/>
    <path id="Path_623" data-name="Path 623" d="M58.73,17.04a8.522,8.522,0,0,0,4.79,1.452A5.894,5.894,0,0,0,69.764,13.7a6.85,6.85,0,0,1-6.823,6.1,10.116,10.116,0,0,1-5.08-1.162.915.915,0,0,1-.436-1.162c.436-.436,1.017-.726,1.307-.436" transform="translate(25.901 6.187)" fill="#fff"/>
    <path id="Path_624" data-name="Path 624" d="M93.674,44.2a3.7,3.7,0,0,1-2.324,3.485,4.074,4.074,0,0,1,2.759,3.631c0,3.195-2.178,4.658-6.1,4.658H80.9V39.7h6.677c3.628,0,6.1,1.307,6.1,4.5m-9.727,2.178h3.34c1.6,0,2.9-.29,2.9-1.888s-1.307-1.888-2.9-1.888H83.95Zm0,6.823h3.631c1.743,0,2.9-.436,2.9-2.033,0-1.452-1.162-1.888-2.9-1.888H83.95Z" transform="translate(36.541 17.931)" fill="#6e6f71"/>
    <path id="Path_625" data-name="Path 625" d="M103.91,56.1l-1.452-3.773H95.49L94.037,56.1H90.7l6.387-16.4h3.918l6.387,16.4ZM101.3,49.282l-2.324-6.387-2.321,6.4Z" transform="translate(40.967 17.931)" fill="#6e6f71"/>
    <path id="Path_626" data-name="Path 626" d="M115.312,56.1l-8.42-11.031V56.1H103.7V39.7h3.05l8.275,10.889V39.7h3.34V56.1Z" transform="translate(46.837 17.931)" fill="#6e6f71"/>
    <path id="Path_627" data-name="Path 627" d="M119.64,49.29v6.823H116.3V39.7h3.34v6.532h1.452l5.516-6.532h4.063l-6.823,7.984,7.4,8.42h-4.209l-5.951-6.823Z" transform="translate(52.53 17.931)" fill="#6e6f71"/>
    <path id="Path_628" data-name="Path 628" d="M148.331,47.966a8.494,8.494,0,1,1-2.488-6.078,8.565,8.565,0,0,1,2.488,6.078m-13.936,0a5.228,5.228,0,1,0,5.225-5.37,5.069,5.069,0,0,0-5.225,5.37" transform="translate(59.26 17.795)" fill="#6e6f71"/>
    <path id="Path_629" data-name="Path 629" d="M148.195,49.427V56.1H145V39.7h12.056v2.9H148.2v3.773h8.275v3.05Z" transform="translate(65.492 17.931)" fill="#6e6f71"/>
    <path id="Path_630" data-name="Path 630" d="M173.549,42.1l-2.324,2.324a5.233,5.233,0,0,0-3.918-1.743,5.376,5.376,0,0,0-.145,10.744A4.244,4.244,0,0,0,171.82,49.8h-4.063V47.039H175.3v.871a7.9,7.9,0,0,1-7.984,8.42,8.566,8.566,0,0,1,.145-17.131,10.078,10.078,0,0,1,6.1,2.9" transform="translate(71.772 17.705)" fill="#6e6f71"/>
    <path id="Path_631" data-name="Path 631" d="M172.3,56.1V39.7h12.056v2.9H175.5v3.631h8.565V49.29H175.5v3.773h9v3.05Z" transform="translate(77.824 17.931)" fill="#6e6f71"/>
    <path id="Path_632" data-name="Path 632" d="M199.631,47.966a8.494,8.494,0,1,1-2.488-6.078,8.565,8.565,0,0,1,2.488,6.078m-13.936,0a5.228,5.228,0,1,0,5.225-5.37,5.069,5.069,0,0,0-5.225,5.37" transform="translate(82.431 17.795)" fill="#6e6f71"/>
    <path id="Path_633" data-name="Path 633" d="M209.174,44.632a4.732,4.732,0,0,1-4.79,4.79h-.145l5.08,6.532H205.4l-4.79-6.532h-1.017V56.1H196.4V39.7h6.968c3.773,0,5.806,1.743,5.806,4.932m-9.727,2.033h3.631c1.743,0,2.759-.726,2.759-2.033S204.82,42.6,203.077,42.6h-3.631Z" transform="translate(88.709 17.931)" fill="#6e6f71"/>
    <path id="Path_634" data-name="Path 634" d="M221.6,42.1l-2.324,2.324a5.233,5.233,0,0,0-3.918-1.743,5.376,5.376,0,0,0-.145,10.744,4.244,4.244,0,0,0,4.658-3.631H215.66V47.039h7.549v.871a7.9,7.9,0,0,1-7.985,8.42A8.566,8.566,0,0,1,215.37,39.2a10.494,10.494,0,0,1,6.242,2.9" transform="translate(93.415 17.705)" fill="#6e6f71"/>
    <rect id="Rectangle_493" data-name="Rectangle 493" width="3.195" height="16.405" transform="translate(319.658 57.631)" fill="#6e6f71"/>
    <path id="Path_635" data-name="Path 635" d="M237.11,56.1l-1.452-3.773H228.69L227.237,56.1H223.9l6.387-16.4h3.918l6.387,16.4Zm-2.466-6.823-2.324-6.387L230,49.282Z" transform="translate(101.131 17.931)" fill="#6e6f71"/>
    <path id="Path_636" data-name="Path 636" d="M80.8,28.31V15.1h4.354V28.019c0,3.773,1.743,5.37,4.354,5.37,2.759,0,4.5-1.452,4.5-3.918,0-2.9-3.195-3.485-3.195-6.968h4.354c.145,1.888,3.34,2.759,3.34,7.4,0,4.354-3.773,7.549-9,7.549S80.8,34.406,80.8,28.31" transform="translate(36.495 6.82)" fill="#6e6f71"/>
    <path id="Path_637" data-name="Path 637" d="M94.935,28.31V26.857h4.354v1.162c0,3.773,1.743,5.37,4.5,5.37a3.973,3.973,0,0,0,4.354-4.354c0-5.08-6.968-6.532-6.968-12.629V15.1h4.354v1.017c0,4.79,7.124,5.225,7.124,12.919a8.091,8.091,0,0,1-9,8.42,8.22,8.22,0,0,1-8.716-9.146" transform="translate(42.829 6.82)" fill="#6e6f71"/>
    <path id="Path_638" data-name="Path 638" d="M109.222,29.271V27.819h4.354v1.162a4,4,0,0,0,4.209,4.354c2.614,0,4.354-1.6,4.354-5.37V24.627a3.584,3.584,0,0,0-3.773-4.063,3.178,3.178,0,0,0-3.631,3.195v.436h-4.354v-.436a6.946,6.946,0,0,1,7.124-7.124,5.258,5.258,0,0,1,4.658,2.466V14.9h4.321V28.11c0,6.1-3.485,9.146-8.711,9.146a7.5,7.5,0,0,1-8.565-7.984" transform="translate(49.3 6.73)" fill="#6e6f71"/>
    <path id="Path_639" data-name="Path 639" d="M123.231,28.31V26.857h4.354v1.162c0,3.773,1.743,5.37,4.5,5.37a3.973,3.973,0,0,0,4.354-4.354c0-5.08-6.968-6.532-6.968-12.629V15.1h4.354v1.017c0,4.79,7.124,5.225,7.124,12.919a8.091,8.091,0,0,1-9,8.42,8.22,8.22,0,0,1-8.711-9.146" transform="translate(55.616 6.82)" fill="#6e6f71"/>
    <path id="Path_640" data-name="Path 640" d="M163.639,29.952v7.124h-4.5V30.254c0-2.466-1.162-3.773-2.9-3.773a3.211,3.211,0,0,0-3.195,3.485v4.488h-4.5V29.8c0-2.178-1.162-3.485-3.05-3.485-1.743,0-3.195,1.307-3.195,3.918V36.92h-4.5V27.056C137.8,17.192,144.924,15,150.719,15h6.535v4.063h-6.1c-4.79,0-8.565,1.452-9.146,5.08a4.886,4.886,0,0,1,3.918-1.888,5.233,5.233,0,0,1,4.79,3.485,6.486,6.486,0,0,1,5.951-3.485,7.242,7.242,0,0,1,6.968,7.694" transform="translate(62.242 6.775)" fill="#6e6f71"/>
    <path id="Path_641" data-name="Path 641" d="M157.8,28.416V24.063c0-6.1,3.631-9.146,8.275-9.146a6.354,6.354,0,0,1,6.387,3.773,6.406,6.406,0,0,1,6.242-3.773,7.584,7.584,0,0,1,7.4,8.275V37.272h-4.354V23.191c0-2.614-1.452-4.209-3.485-4.209s-3.474,1.595-3.474,4.209v5.225c0,6.1-3.631,9.146-8.565,9.146s-8.42-3.05-8.42-9.146m12.629-.29V24.063c0-3.631-1.743-5.225-4.063-5.225s-4.063,1.6-4.063,5.225v4.063c0,3.773,1.743,5.37,4.063,5.37,2.178,0,4.063-1.6,4.063-5.37" transform="translate(71.275 6.713)" fill="#6e6f71"/>
    <path id="Path_642" data-name="Path 642" d="M180.1,29.6V28.445h4.354v.877a4.143,4.143,0,0,0,4.658,4.063c2.9,0,4.658-1.162,4.658-2.9,0-1.888-1.743-2.614-3.628-2.614H187.82V23.949h2.324c1.888,0,3.195-.581,3.195-2.324,0-1.6-1.6-2.9-4.209-2.9-2.9,0-4.658,1.743-4.658,3.773v.581H180.1v-.726c0-4.209,3.631-7.549,9.146-7.549,5.08,0,8.711,3.05,8.711,6.823a4.348,4.348,0,0,1-3.485,4.354,4.384,4.384,0,0,1,3.773,4.79c0,3.918-3.631,6.677-9.146,6.677-5.516.145-9-2.9-9-7.839" transform="translate(81.344 6.685)" fill="#6e6f71"/>
    <path id="Path_643" data-name="Path 643" d="M194.709,29.38V27.927h4.354V29.24a4,4,0,0,0,4.354,4.209c2.614,0,4.209-1.6,4.209-5.225V24.009c0-3.631-1.743-5.225-4.209-5.225a4.077,4.077,0,0,0-4.354,4.209v.436h-4.354v-.436a8.045,8.045,0,0,1,8.711-8.275,8.22,8.22,0,0,1,8.711,9.146v4.354c0,6.1-3.485,9.146-8.711,9.146a7.612,7.612,0,0,1-8.711-7.984" transform="translate(87.931 6.622)" fill="#6e6f71"/>
    <path id="Path_644" data-name="Path 644" d="M208.908,25.112V22.353a7.124,7.124,0,0,1,6.968-7.549,6.028,6.028,0,0,1,5.516,3.485,5.97,5.97,0,0,1,5.37-3.485,5.754,5.754,0,0,1,5.08,3.485,6.138,6.138,0,0,1,5.809-3.485,6.921,6.921,0,0,1,6.823,7.549v5.806H240.12V22.5c0-2.466-1.162-3.773-2.9-3.773a3.288,3.288,0,0,0-3.195,3.485v5.225h-4.354V22.2a3.107,3.107,0,0,0-3.05-3.485,3.187,3.187,0,0,0-3.05,3.485v5.225h-4.354V22.2c0-2.178-1.162-3.485-2.9-3.485-1.6,0-3.05,1.307-3.05,3.918v2.178c0,5.661,2.466,8.42,10.308,8.42h14.385V37.3H223c-6.387-.145-14.081-2.324-14.081-12.193" transform="translate(94.348 6.681)" fill="#6e6f71"/>
    <path id="Path_645" data-name="Path 645" d="M261.842,22.351v14.8h-4.5V22.625c0-2.466-1.162-3.773-2.9-3.773a3.211,3.211,0,0,0-3.195,3.485v9.146h-4.5V22.351c0-2.178-1.162-3.485-3.05-3.485-1.743,0-3.195,1.307-3.195,3.918V37.155H236v-14.8a7.258,7.258,0,0,1,7.258-7.549,6.075,6.075,0,0,1,5.661,3.485,6.206,6.206,0,0,1,5.951-3.485,7.031,7.031,0,0,1,6.968,7.549" transform="translate(106.591 6.683)" fill="#6e6f71"/>
    <path id="Path_646" data-name="Path 646" d="M256.9,28.31V15.1h4.354V28.019c0,3.773,1.743,5.37,4.354,5.37,2.759,0,4.5-1.452,4.5-3.918,0-2.9-3.195-3.485-3.195-6.968h4.354c.145,1.888,3.34,2.759,3.34,7.4,0,4.354-3.773,7.549-9,7.549S256.9,34.4,256.9,28.3" transform="translate(116.031 6.82)" fill="#6e6f71"/>
    <path id="Path_647" data-name="Path 647" d="M294.112,29.9c0,4.354-3.485,7.549-8.856,7.549S276.4,34.265,276.4,29.9a7.456,7.456,0,0,1,7.124-7.4V20.9c0-2.324-2.759-2.324-2.759-5.806h4.354c0,2.033,2.759,2.324,2.759,5.08v2.466A7.291,7.291,0,0,1,294.12,29.9m-4.5-.145a3.94,3.94,0,1,0-1.3,2.931,3.94,3.94,0,0,0,1.3-2.931" transform="translate(124.842 6.817)" fill="#6e6f71"/>
    <path id="Path_648" data-name="Path 648" d="M290.531,28.31V26.857h4.354v1.162c0,3.773,1.743,5.37,4.5,5.37a3.973,3.973,0,0,0,4.354-4.354c0-5.08-6.968-6.532-6.968-12.629V15.1h4.354v1.017c0,4.79,7.124,5.225,7.124,12.919a8.091,8.091,0,0,1-9,8.42,8.22,8.22,0,0,1-8.711-9.146" transform="translate(131.179 6.82)" fill="#6e6f71"/>
    <path id="Path_649" data-name="Path 649" d="M305,29.916V21.506a6.919,6.919,0,0,1,7.549-6.387h8.565v3.773H313.13c-2.033,0-3.776.871-3.776,3.05v2.9a5.666,5.666,0,0,1,5.371-2.466,7.557,7.557,0,0,1,7.839,7.549c0,4.354-3.628,7.549-8.856,7.549S305,34.28,305,29.916m12.919-.145a3.863,3.863,0,1,0-3.7,3.935,3.866,3.866,0,0,0,3.7-3.935" transform="translate(137.759 6.801)" fill="#6e6f71"/>
    <path id="Path_650" data-name="Path 650" d="M318.9,29.281V28.41h4.354v.726a4.2,4.2,0,0,0,4.658,4.354c2.9,0,4.658-1.162,4.658-3.631,0-2.324-1.743-3.34-4.658-3.34h-1.888V22.6h2.324c2.614,0,3.773-1.017,3.773-3.34V15.2h4.354v4.658a4.932,4.932,0,0,1-3.773,4.79,5.557,5.557,0,0,1,4.354,5.951c0,4.063-3.631,7.124-9.146,7.124-5.516-.29-9-3.34-9-8.42" transform="translate(144.039 6.865)" fill="#6e6f71"/>
    <path id="Path_651" data-name="Path 651" d="M333.907,23.907a8.576,8.576,0,1,1,17.131,0V37.261h-4.354V24.052c0-3.485-1.743-5.08-4.209-5.08-2.324,0-4.063,1.6-4.063,5.08v13.21h-4.354V23.907Z" transform="translate(150.807 6.724)" fill="#6e6f71"/>
  </g>
</svg>
