<svg xmlns="http://www.w3.org/2000/svg" width="260.137" height="67.281" viewBox="0 0 260.137 67.281">
  <g id="Group_1077" data-name="Group 1077" transform="translate(-1728.283 -671.954)">
    <path id="Path_1059" data-name="Path 1059" d="M1988.263,689.677a6.3,6.3,0,0,0-5.958-4.311,63.76,63.76,0,0,1-6.554-.146c-4.584-.536-7.591.666-9.956,4.864-.681,1.209-1.452,2.368-2.291,3.727-.136-1-.245-1.728-.335-2.462-.493-4-2.676-6.323-6.768-6.483-3.1-.121-6.213-.046-9.32-.015a5.016,5.016,0,0,0-4.153,2.018,15.6,15.6,0,0,0-1.07,1.935c-5.136-5.166-11.622-5.685-18.19-5.2a24.527,24.527,0,0,0-17.218,8.455,11.408,11.408,0,0,0-4.418-6.113,16.035,16.035,0,0,0-15.027-1.966c-1.373.485-2.589.985-3.9-.012a1.1,1.1,0,0,0-.606-.164c-3.363-.1-6.729-.328-10.086-.226a6.034,6.034,0,0,0-6.137,4.936c-.265,1.086-.559,2.164-.881,3.405a16.076,16.076,0,0,0-5.138-5.981,20.818,20.818,0,0,0-10.759-3.674,26.878,26.878,0,0,0-14.989,2.748c-2.092,1.114-4.021,2.533-6.04,3.823.347-1.475.687-2.967,1.053-4.452.378-1.534.782-3.062,1.174-4.592a5.3,5.3,0,0,0-3.536-6.74,10.57,10.57,0,0,0-3.186-.531c-3.631-.063-7.264-.018-10.9-.027a6.387,6.387,0,0,0-5.54,2.83c-2.146,3.039-4.289,6.082-6.556,9.3-.495-2.539-.975-4.869-1.4-7.21a5.765,5.765,0,0,0-4.506-5.047,12.614,12.614,0,0,0-2.819-.368c-3.281-.044-6.566.049-9.846-.036a6.621,6.621,0,0,0-6.732,5.112c-1,4.077-2.039,8.145-3.092,12.34a5.615,5.615,0,0,0-.375-.537,37.714,37.714,0,0,0-3.943-4.26c-3.762-3.032-8.345-3.752-12.992-3.939a32.04,32.04,0,0,0-5.946.5,23.688,23.688,0,0,0-13.184,6.342,25.207,25.207,0,0,0-7.867,18.6,18.046,18.046,0,0,0,11.4,17.208,31.4,31.4,0,0,0,12.848,1.972,28.011,28.011,0,0,0,14.141-3.586,3.751,3.751,0,0,0,3.026,2.763,16.174,16.174,0,0,0,2.686.326c3.1.094,6.194.164,9.292.171a4.814,4.814,0,0,0,1.7-.52c2.432-.994,3.287-3.115,3.855-5.441.418-1.708.859-3.41,1.354-5.372a3.076,3.076,0,0,0,3.113,1.694c2.488.021,4.974.2,7.459.32-.165.831-.334,1.677-.5,2.523a5.711,5.711,0,0,0,5.238,7.059c3.521.31,7.077.292,10.617.282a4.788,4.788,0,0,0,4.384-2.334c1.205-2.223,2.1-4.617,3.031-6.731a17.723,17.723,0,0,0,11.243,9.477,25.466,25.466,0,0,0,9.924.861,29.2,29.2,0,0,0,7.646-1.594,63.074,63.074,0,0,0,7.407-3.843,20.774,20.774,0,0,0,1.515,3.161c.949,1.393,2.556,1.7,4.122,1.792,2.7.152,5.412.227,8.119.27,3.32.052,6.034-1.084,7.589-4.212.455-.917.757-1.911,1.229-3.128,0,.935-.033,1.592.006,2.245.192,3.2,1.993,4.739,4.873,5.053,2.945.321,5.934.273,8.906.3,4.093.043,6.234-1.677,7.215-5.658.229-.928.491-1.848.813-3.051a17.636,17.636,0,0,0,9.032,7.9,31.52,31.52,0,0,0,15.012,1.93,39.835,39.835,0,0,0,9.9-2.163c2.2-.795,4.744-1.248,4.874-4.384a7.033,7.033,0,0,1,.289-1.522c.768-2.84,1.552-5.675,2.33-8.512l.415.109c.31,1.9.685,3.8.907,5.716.162,1.4.613,2.77-.463,4.192-2.072,2.739-3.932,5.64-5.824,8.511-1.454,2.207-1.726,4.874.015,6.905a7.576,7.576,0,0,0,5.783,2.356c2.665.109,5.345-.1,8.006.057a7.8,7.8,0,0,0,7.312-3.9q13.69-20.611,27.276-41.291A5.31,5.31,0,0,0,1988.263,689.677Zm-219.717,8.11c-.322,2.248-.788,4.475-1.161,6.506-5.705,0-11.162,0-16.619,0-2.1,0-4.2-.055-6.3.02-.286.01-.768.622-.79.979a6.69,6.69,0,0,0,4.523,6.324c4.674,1.549,9.175.882,13.545-1.168,1.142-.536,2.272-1.1,3.695-1.786-.678,2.866-1.246,5.317-1.856,7.758-.05.2-.358.389-.588.487a25.447,25.447,0,0,1-9.524,2.053c-3.546.076-7.1.173-10.528-1.039-6.669-2.357-9.541-7.682-8.554-14.634a20.377,20.377,0,0,1,3.131-8.757,17.832,17.832,0,0,1,12.281-7.788,24.055,24.055,0,0,1,12.9.973,9.161,9.161,0,0,1,5.642,7.619A13.246,13.246,0,0,1,1768.546,697.786Zm46.208,21.409h-10.407c2.226-9,4.438-17.946,6.649-26.888l-.311-.129c-1.434,2.1-2.873,4.2-4.3,6.308-2.289,3.383-4.559,6.778-6.87,10.146a1.458,1.458,0,0,1-.987.592c-1.88.045-3.761,0-5.642-.013-.751-.006-1.079-.256-1.218-1.131-.655-4.115-1.439-8.21-2.187-12.31-.313-1.713-.652-3.42-.979-5.13l-.346-.022q-.721,2.936-1.442,5.872c-1.752,7.1-3.5,14.192-5.282,21.279-.09.361-.536.9-.826.9-2.667.062-5.337.037-8,0a4.875,4.875,0,0,1-1.142-.309l10.108-40.706h12.058c1.425,7.049,2.814,13.917,4.272,21.125.762-1.042,1.367-1.842,1.944-2.662q6.178-8.79,12.354-17.581c.154-.219.432-.5.654-.5,3.931-.031,7.862-.022,12.115-.022C1821.51,691.944,1818.135,705.564,1814.755,719.2Zm43.127-7.14a17.977,17.977,0,0,1-12.885,8.23c-1.328.18-2.669.258-4,.382-3.436.029-6.735-.423-9.659-2.37a10.234,10.234,0,0,1-4.694-7.143,20.256,20.256,0,0,1,3.889-15.738,18.492,18.492,0,0,1,11.578-7.181,22.244,22.244,0,0,1,12.22.791,11.066,11.066,0,0,1,6.992,9.839A21.668,21.668,0,0,1,1857.882,712.056Zm43.218-13.771c-1.606,7.157-3.411,14.27-5.174,21.392-.082.333-.488.831-.75.836-3.041.059-6.084.037-9.316.037.647-2.66,1.229-5.02,1.794-7.384,1.009-4.227,2.137-8.431,2.959-12.694.43-2.228-.592-4.133-3.508-4.362-2.495-.2-4.655.736-6.818,1.707a1.691,1.691,0,0,0-.776,1.037c-1.766,7.073-3.5,14.156-5.244,21.284h-9.783q3.885-15.724,7.64-30.922h9.806c-.326,1.231-.6,2.281-.953,3.6.909-.5,1.686-.866,2.4-1.331a16,16,0,0,1,8.557-2.913c3.176-.032,6.361.433,8.277,3.548A8.169,8.169,0,0,1,1901.1,698.285Zm38.138,8.877c-7.458,0-14.708.018-21.958-.019-1.191-.006-1.546.11-1.459,1.568.22,3.71,3.518,5.9,7.022,6.332a20.266,20.266,0,0,0,12.426-2.609,14.755,14.755,0,0,1,2.192-.753c-.594,2.5-1.13,4.676-1.629,6.865a1.854,1.854,0,0,1-1.574,1.463c-2.549.552-5.1,1.12-7.662,1.585a24.77,24.77,0,0,1-11.148-.787c-4.777-1.328-8.375-4.8-9.038-10.128-1.021-8.2,3.367-16.765,10.867-19.817a23.235,23.235,0,0,1,12.153-1.612c2.818.387,5.477.939,7.757,2.786a9.518,9.518,0,0,1,3.4,7.114A20.273,20.273,0,0,1,1939.238,707.162Zm15.285,25.778h-10.8c2.69-3.926,5.324-7.6,7.721-11.413.489-.778.216-2.134.07-3.193-.53-3.852-1.153-7.692-1.745-11.536-.578-3.753-1.168-7.5-1.741-11.258-.26-1.7-.492-3.407-.725-5.029h9.828c.805,6.894,1.6,13.647,2.415,20.667.37-.485.647-.785.852-1.127,3.677-6.113,7.338-12.236,11.037-18.336a1.716,1.716,0,0,1,1.133-.806c3.186-.065,6.373-.036,9.734-.036Z" transform="translate(0 0)" fill="#58a1dc"/>
    <path id="Path_1060" data-name="Path 1060" d="M2457.985,760.142a8.164,8.164,0,0,0-7.968.843,8.917,8.917,0,0,0-3.556,5.122h13.891c.078-.625.179-1.181.215-1.74A3.978,3.978,0,0,0,2457.985,760.142Z" transform="translate(-529.57 -64.537)" fill="#58a1dc"/>
    <path id="Path_1061" data-name="Path 1061" d="M1802.533,749.191c-4.337-1.615-9.922,1.435-11.1,6.463,4.441,0,8.72.014,13-.026a1.24,1.24,0,0,0,.969-.585A4.8,4.8,0,0,0,1802.533,749.191Z" transform="translate(-46.565 -56.633)" fill="#58a1dc"/>
    <path id="Path_1062" data-name="Path 1062" d="M2149.59,756.7a17.085,17.085,0,0,0-1.9.28,7.849,7.849,0,0,0-4.772,3.76,16.686,16.686,0,0,0-2.2,12.722,3.874,3.874,0,0,0,1.347,1.948c3.473,2.766,7.855.848,10.153-2.4a16.779,16.779,0,0,0,2.841-11.058C2154.845,758.668,2153.063,756.565,2149.59,756.7Z" transform="translate(-303.795 -62.487)" fill="#58a1dc"/>
  </g>
</svg>
