<svg xmlns="http://www.w3.org/2000/svg" width="411.582" height="300.448" viewBox="0 0 411.582 300.448">
  <g id="Group_1085" data-name="Group 1085" transform="translate(-479.718 -188.674)">
    <circle id="Ellipse_31" data-name="Ellipse 31" cx="93.5" cy="93.5" r="93.5" transform="translate(600.179 241.456)" fill="#e20d00"/>
    <g id="Group_1063" data-name="Group 1063" transform="translate(643.059 289.862)">
      <path id="Path_1165" data-name="Path 1165" d="M325.8,353.688c2.605-.733,4.751-1.468,6.955-1.9a3.87,3.87,0,0,1,2.956.526c.485.436.4,1.911.1,2.755-2.591,7.22-5.274,14.407-7.966,21.591-.926,2.472-2.213,2.835-4.252,1.231-5.98-4.706-11.97-9.4-17.874-14.2a3.925,3.925,0,0,1-1.491-2.813c.07-.674,1.475-1.426,2.421-1.75,2.513-.859,5.774-.806,7.462-2.436,1.626-1.571,1.6-4.81,2.4-7.286a40.462,40.462,0,0,1,22.069-25.257c3.094-1.46,5.911-.647,7.208,2,1.314,2.679.269,5.369-2.875,6.913a31.338,31.338,0,0,0-16.626,18.572C326.108,352.134,326.033,352.668,325.8,353.688Z" transform="translate(-304.215 -316.56)" fill="#fff"/>
      <path id="Path_1166" data-name="Path 1166" d="M391.943,453.856c-1.82-1.757-3.593-3.306-5.146-5.05a3.465,3.465,0,0,1-.857-2.642c.142-.6,1.347-1.2,2.158-1.34q11.336-1.945,22.7-3.7c3.091-.478,3.823.43,3.319,3.523-1.2,7.336-2.29,14.69-3.549,22.016a4.122,4.122,0,0,1-1.671,2.744c-.568.29-1.958-.534-2.7-1.182a51.773,51.773,0,0,1-4.826-4.814,2.555,2.555,0,0,0-3.262-.71c-13.618,4.89-26.323,2.917-38.147-5.257-2.794-1.932-3.5-4.859-1.855-7.277,1.631-2.4,4.671-2.848,7.45-.9a31.447,31.447,0,0,0,24.749,5.422,5.113,5.113,0,0,0,.9-.269A5.294,5.294,0,0,0,391.943,453.856Z" transform="translate(-332.26 -378.749)" fill="#fff"/>
      <path id="Path_1167" data-name="Path 1167" d="M435.152,331.74c-.7,2.66-1.2,5-1.961,7.261a3.506,3.506,0,0,1-1.82,2.1c-.6.182-1.747-.542-2.285-1.174q-7.624-8.956-15.1-18.035c-1.533-1.853-1.238-3.045,1.021-3.966q10.867-4.433,21.789-8.73c2.529-.991,3.848.191,3.269,2.86-.514,2.368-1.165,4.707-1.811,7.044a2.318,2.318,0,0,0,.874,2.813c9.738,7.911,14.771,18.241,15.446,30.717a35.016,35.016,0,0,1-.238,4.923c-.276,3.134-2.318,5.1-5.1,4.991-2.848-.114-4.853-2.37-4.725-5.59a34.309,34.309,0,0,0-1.484-12.755A30.389,30.389,0,0,0,435.152,331.74Z" transform="translate(-361.771 -308.844)" fill="#fff"/>
    </g>
    <g id="Group_1064" data-name="Group 1064" transform="translate(803.41 203.064)">
      <path id="Path_1165-2" data-name="Path 1165" d="M315.951,339.883c1.417-.4,2.583-.8,3.782-1.031a2.1,2.1,0,0,1,1.607.286c.264.237.217,1.039.052,1.5-1.409,3.926-2.868,7.834-4.331,11.74-.5,1.344-1.2,1.542-2.312.669-3.251-2.559-6.509-5.111-9.719-7.721a2.134,2.134,0,0,1-.811-1.529c.038-.367.8-.775,1.316-.951,1.367-.467,3.14-.438,4.057-1.325.884-.854.871-2.615,1.3-3.962a22,22,0,0,1,12-13.734c1.682-.794,3.214-.352,3.92,1.086.715,1.457.147,2.919-1.563,3.759a17.04,17.04,0,0,0-9.04,10.1C316.12,339.039,316.079,339.329,315.951,339.883Z" transform="translate(-304.215 -319.695)" fill="#e9e9e9"/>
      <path id="Path_1166-2" data-name="Path 1166" d="M376.108,447.993c-.99-.955-1.953-1.8-2.8-2.746a1.884,1.884,0,0,1-.466-1.437c.077-.325.733-.653,1.174-.728q6.164-1.057,12.346-2.012c1.68-.26,2.079.234,1.8,1.916-.65,3.989-1.245,7.988-1.93,11.971a2.242,2.242,0,0,1-.909,1.492c-.309.158-1.065-.29-1.468-.643a28.156,28.156,0,0,1-2.624-2.618,1.389,1.389,0,0,0-1.774-.386c-7.4,2.659-14.313,1.586-20.742-2.858-1.519-1.051-1.9-2.642-1.009-3.957a2.74,2.74,0,0,1,4.051-.491,17.1,17.1,0,0,0,13.457,2.948,2.779,2.779,0,0,0,.487-.146A2.9,2.9,0,0,0,376.108,447.993Z" transform="translate(-343.655 -407.153)" fill="#e9e9e9"/>
      <path id="Path_1167-2" data-name="Path 1167" d="M425.059,321.294c-.379,1.446-.652,2.721-1.066,3.948a1.906,1.906,0,0,1-.99,1.14c-.327.1-.95-.295-1.242-.638q-4.146-4.87-8.212-9.807c-.833-1.007-.673-1.656.555-2.157q5.909-2.41,11.848-4.747c1.375-.539,2.092.1,1.777,1.555-.279,1.288-.634,2.56-.985,3.83a1.261,1.261,0,0,0,.475,1.53,22.148,22.148,0,0,1,8.4,16.7,19.059,19.059,0,0,1-.129,2.677,2.682,2.682,0,1,1-5.34-.326,18.659,18.659,0,0,0-.807-6.936A16.523,16.523,0,0,0,425.059,321.294Z" transform="translate(-385.158 -308.844)" fill="#e9e9e9"/>
    </g>
    <g id="Group_1065" data-name="Group 1065" transform="translate(853.884 309.558)">
      <path id="Path_1165-3" data-name="Path 1165" d="M312.915,335.628c1.05-.3,1.915-.592,2.8-.764a1.56,1.56,0,0,1,1.191.212c.2.176.161.77.039,1.11-1.044,2.91-2.126,5.807-3.211,8.7-.373,1-.892,1.143-1.714.5-2.41-1.9-4.825-3.789-7.2-5.724a1.582,1.582,0,0,1-.6-1.134c.028-.272.595-.575.976-.705,1.013-.346,2.327-.325,3.008-.982.656-.633.646-1.939.966-2.937a16.31,16.31,0,0,1,8.9-10.181,2.026,2.026,0,0,1,2.906.805,1.994,1.994,0,0,1-1.159,2.787,12.632,12.632,0,0,0-6.7,7.486C313.04,335,313.01,335.217,312.915,335.628Z" transform="translate(-304.215 -320.662)" fill="#e9e9e9"/>
      <path id="Path_1166-3" data-name="Path 1166" d="M371.226,446.185c-.734-.708-1.448-1.333-2.074-2.036a1.4,1.4,0,0,1-.345-1.065c.057-.241.543-.484.87-.54q4.57-.784,9.152-1.492c1.246-.193,1.541.173,1.338,1.42-.482,2.957-.923,5.922-1.431,8.874a1.662,1.662,0,0,1-.674,1.106c-.229.117-.789-.215-1.089-.476a20.906,20.906,0,0,1-1.945-1.941,1.03,1.03,0,0,0-1.315-.286,16.106,16.106,0,0,1-15.377-2.119,2.014,2.014,0,1,1,2.255-3.3,12.675,12.675,0,0,0,9.976,2.186,2.067,2.067,0,0,0,.361-.108A2.158,2.158,0,0,0,371.226,446.185Z" transform="translate(-347.168 -415.91)" fill="#e9e9e9"/>
      <path id="Path_1167-3" data-name="Path 1167" d="M421.947,318.073c-.281,1.072-.484,2.017-.79,2.927a1.414,1.414,0,0,1-.734.845c-.243.073-.7-.218-.921-.473q-3.073-3.61-6.088-7.27c-.618-.747-.5-1.227.412-1.6q4.38-1.787,8.783-3.519c1.019-.4,1.551.077,1.318,1.153-.207.955-.47,1.9-.73,2.839a.934.934,0,0,0,.352,1.134,16.419,16.419,0,0,1,6.226,12.382,14.1,14.1,0,0,1-.1,1.984,1.988,1.988,0,1,1-3.958-.241,13.832,13.832,0,0,0-.6-5.142A12.249,12.249,0,0,0,421.947,318.073Z" transform="translate(-392.367 -308.844)" fill="#e9e9e9"/>
    </g>
    <g id="Group_1066" data-name="Group 1066" transform="translate(758.903 424.686)">
      <path id="Path_1165-4" data-name="Path 1165" d="M319.545,344.922c1.851-.521,3.374-1.043,4.94-1.347a2.748,2.748,0,0,1,2.1.373c.344.31.283,1.357.068,1.957-1.841,5.128-3.746,10.233-5.658,15.335-.658,1.756-1.572,2.014-3.02.874-4.247-3.342-8.5-6.677-12.7-10.086a2.788,2.788,0,0,1-1.059-2c.05-.479,1.048-1.013,1.72-1.243,1.785-.61,4.1-.572,5.3-1.73,1.155-1.115,1.137-3.416,1.7-5.175a28.74,28.74,0,0,1,15.676-17.94c2.2-1.037,4.2-.459,5.12,1.419.934,1.9.191,3.813-2.042,4.911a22.259,22.259,0,0,0-11.809,13.191C319.765,343.818,319.712,344.2,319.545,344.922Z" transform="translate(-304.215 -318.551)" fill="#e9e9e9"/>
      <path id="Path_1166-4" data-name="Path 1166" d="M381.887,450.133c-1.292-1.248-2.552-2.348-3.655-3.587a2.462,2.462,0,0,1-.609-1.877c.1-.424.957-.853,1.533-.952q8.052-1.381,16.127-2.628c2.2-.339,2.715.305,2.357,2.5-.849,5.211-1.627,10.434-2.521,15.637a2.928,2.928,0,0,1-1.187,1.949c-.4.206-1.39-.379-1.918-.839a36.82,36.82,0,0,1-3.428-3.419,1.815,1.815,0,0,0-2.317-.5c-9.672,3.474-18.7,2.072-27.1-3.733-1.985-1.372-2.484-3.452-1.318-5.169s3.318-2.023,5.292-.641a22.335,22.335,0,0,0,17.579,3.851,3.655,3.655,0,0,0,.636-.19A3.808,3.808,0,0,0,381.887,450.133Z" transform="translate(-339.496 -396.785)" fill="#e9e9e9"/>
      <path id="Path_1167-4" data-name="Path 1167" d="M428.743,325.106c-.5,1.889-.852,3.554-1.393,5.157a2.49,2.49,0,0,1-1.293,1.489c-.428.129-1.241-.385-1.623-.834q-5.415-6.361-10.727-12.81c-1.089-1.316-.879-2.163.725-2.817q7.718-3.148,15.476-6.2c1.8-.7,2.733.136,2.321,2.032-.365,1.682-.828,3.344-1.286,5a1.647,1.647,0,0,0,.621,2,28.932,28.932,0,0,1,10.971,21.818,24.9,24.9,0,0,1-.169,3.5c-.2,2.226-1.646,3.624-3.619,3.545a3.53,3.53,0,0,1-3.356-3.97,24.365,24.365,0,0,0-1.054-9.06A21.585,21.585,0,0,0,428.743,325.106Z" transform="translate(-376.622 -308.844)" fill="#e9e9e9"/>
    </g>
    <g id="Group_1067" data-name="Group 1067" transform="translate(482.596 413.173)">
      <path id="Path_1165-5" data-name="Path 1165" d="M316.852,341.147c1.526-.429,2.782-.86,4.073-1.11a2.265,2.265,0,0,1,1.731.308c.284.255.234,1.119.056,1.613-1.517,4.227-3.088,8.436-4.664,12.642-.542,1.447-1.3,1.66-2.489.721-3.5-2.755-7.009-5.5-10.466-8.315a2.3,2.3,0,0,1-.873-1.647c.041-.395.864-.835,1.418-1.025,1.471-.5,3.381-.472,4.369-1.426.952-.919.938-2.816,1.4-4.266a23.692,23.692,0,0,1,12.922-14.789c1.812-.855,3.461-.379,4.22,1.169.77,1.569.158,3.144-1.683,4.048a18.349,18.349,0,0,0-9.735,10.874C317.034,340.238,316.99,340.55,316.852,341.147Z" transform="translate(-304.215 -319.408)" fill="#e9e9e9"/>
      <path id="Path_1166-5" data-name="Path 1166" d="M377.558,448.53c-1.065-1.028-2.1-1.936-3.013-2.957a2.03,2.03,0,0,1-.5-1.547c.083-.35.789-.7,1.264-.784q6.638-1.138,13.294-2.167c1.81-.28,2.238.252,1.943,2.063-.7,4.3-1.341,8.6-2.078,12.891a2.413,2.413,0,0,1-.979,1.607c-.333.17-1.146-.313-1.581-.692a30.38,30.38,0,0,1-2.826-2.819,1.5,1.5,0,0,0-1.91-.416c-7.974,2.863-15.413,1.708-22.336-3.078-1.636-1.131-2.048-2.845-1.086-4.261s2.735-1.668,4.362-.529a18.413,18.413,0,0,0,14.491,3.175,3,3,0,0,0,.524-.157A3.123,3.123,0,0,0,377.558,448.53Z" transform="translate(-342.612 -404.552)" fill="#e9e9e9"/>
      <path id="Path_1167-5" data-name="Path 1167" d="M425.983,322.25c-.408,1.557-.7,2.93-1.148,4.251a2.053,2.053,0,0,1-1.066,1.228c-.353.107-1.023-.317-1.338-.687q-4.464-5.244-8.843-10.56c-.9-1.085-.725-1.783.6-2.323q6.363-2.6,12.758-5.112c1.481-.58,2.253.112,1.914,1.675-.3,1.387-.682,2.756-1.06,4.125a1.357,1.357,0,0,0,.512,1.647,23.85,23.85,0,0,1,9.044,17.986,20.494,20.494,0,0,1-.139,2.882,2.888,2.888,0,1,1-5.75-.35,20.089,20.089,0,0,0-.869-7.469A17.792,17.792,0,0,0,425.983,322.25Z" transform="translate(-383.016 -308.844)" fill="#e9e9e9"/>
    </g>
    <g id="Group_1068" data-name="Group 1068" transform="translate(479.718 188.674)">
      <path id="Path_1165-6" data-name="Path 1165" d="M324.715,352.169c2.475-.7,4.512-1.395,6.607-1.8a3.675,3.675,0,0,1,2.808.5c.46.414.379,1.815.091,2.616-2.462,6.858-5.01,13.684-7.566,20.507-.88,2.348-2.1,2.693-4.038,1.169-5.68-4.47-11.369-8.928-16.977-13.488A3.728,3.728,0,0,1,304.222,359c.067-.64,1.4-1.354,2.3-1.662,2.387-.816,5.484-.765,7.088-2.314,1.545-1.491,1.521-4.569,2.276-6.921a38.432,38.432,0,0,1,20.962-23.99c2.938-1.387,5.614-.614,6.846,1.9,1.249,2.545.256,5.1-2.73,6.567a29.765,29.765,0,0,0-15.792,17.64C325.01,350.694,324.938,351.2,324.715,352.169Z" transform="translate(-304.215 -316.905)" fill="#e9e9e9"/>
      <path id="Path_1166-6" data-name="Path 1166" d="M390.2,453.211c-1.728-1.668-3.412-3.14-4.888-4.8a3.293,3.293,0,0,1-.814-2.509c.135-.567,1.28-1.141,2.05-1.273q10.767-1.846,21.565-3.514c2.935-.454,3.631.408,3.152,3.346-1.136,6.968-2.175,13.953-3.371,20.911a3.916,3.916,0,0,1-1.588,2.606c-.54.276-1.859-.507-2.565-1.122a49.247,49.247,0,0,1-4.584-4.573,2.427,2.427,0,0,0-3.1-.674c-12.935,4.645-25,2.771-36.233-4.992-2.654-1.835-3.322-4.616-1.762-6.912,1.549-2.282,4.437-2.7,7.076-.858A29.869,29.869,0,0,0,388.649,454a4.874,4.874,0,0,0,.85-.255A5.041,5.041,0,0,0,390.2,453.211Z" transform="translate(-333.513 -381.872)" fill="#e9e9e9"/>
      <path id="Path_1167-6" data-name="Path 1167" d="M434.042,330.591c-.663,2.526-1.14,4.752-1.862,6.9a3.329,3.329,0,0,1-1.729,1.992c-.572.173-1.659-.515-2.17-1.115q-7.241-8.506-14.345-17.13c-1.456-1.76-1.176-2.892.969-3.768q10.322-4.21,20.7-8.292c2.4-.941,3.655.181,3.1,2.717-.488,2.249-1.107,4.471-1.72,6.691a2.2,2.2,0,0,0,.83,2.672c9.25,7.515,14.03,17.325,14.671,29.176a33.32,33.32,0,0,1-.226,4.675c-.263,2.977-2.2,4.846-4.84,4.741-2.705-.108-4.609-2.251-4.487-5.309a32.58,32.58,0,0,0-1.41-12.115A28.86,28.86,0,0,0,434.042,330.591Z" transform="translate(-364.343 -308.844)" fill="#e9e9e9"/>
    </g>
  </g>
</svg>
