<svg xmlns="http://www.w3.org/2000/svg" width="213.86" height="155.42" viewBox="0 0 213.86 155.42">
  <g id="Group_1102" data-name="Group 1102" transform="translate(-487.653 -188.712)">
    <circle id="Ellipse_31" data-name="Ellipse 31" cx="51" cy="51" r="51" transform="translate(539.996 217.066)" fill="#e20d00"/>
    <path id="Path_1140" data-name="Path 1140" d="M299.5,266.63a7.073,7.073,0,0,1-.532.731q-5.429,5.443-10.871,10.873a4.025,4.025,0,0,1-6.786-1.6,3.926,3.926,0,0,1,1.115-4.143q5.385-5.4,10.783-10.783c.178-.177.376-.333.616-.544-.208-.219-.357-.384-.514-.542q-5.457-5.46-10.913-10.92a4.025,4.025,0,0,1,1.581-6.788,3.921,3.921,0,0,1,4.145,1.106q5.511,5.495,11.006,11a3.733,3.733,0,0,1,.3.416c.237-.22.4-.366.559-.522q5.37-5.368,10.742-10.735a4.019,4.019,0,0,1,6.718,1.447,3.958,3.958,0,0,1-1.075,4.322q-5.281,5.279-10.562,10.558c-.178.177-.387.322-.637.527.239.254.4.435.574.607q5.346,5.348,10.692,10.7a3.911,3.911,0,0,1,1.057,4.106,3.78,3.78,0,0,1-3,2.747,3.96,3.96,0,0,1-3.794-1.176q-5.32-5.329-10.645-10.653A8.5,8.5,0,0,1,299.5,266.63Z" transform="translate(292.053 7.368)" fill="#fff"/>
    <path id="Path_1141" data-name="Path 1141" d="M292,256.88a4.183,4.183,0,0,1-.315.433q-3.215,3.223-6.438,6.439a2.384,2.384,0,0,1-4.018-.945,2.325,2.325,0,0,1,.66-2.453q3.189-3.2,6.385-6.385c.105-.1.223-.2.365-.322-.123-.13-.211-.228-.3-.321q-3.231-3.233-6.462-6.467a2.383,2.383,0,0,1,.936-4.02,2.322,2.322,0,0,1,2.455.655q3.263,3.254,6.518,6.517a2.205,2.205,0,0,1,.18.246c.14-.13.239-.217.331-.309q3.18-3.179,6.361-6.357a2.38,2.38,0,0,1,3.978.857,2.344,2.344,0,0,1-.637,2.56q-3.127,3.126-6.255,6.252c-.105.1-.229.191-.377.312.142.15.238.257.34.359q3.166,3.167,6.332,6.334a2.316,2.316,0,0,1,.626,2.431,2.239,2.239,0,0,1-1.777,1.627,2.345,2.345,0,0,1-2.247-.7q-3.15-3.156-6.3-6.309A5.054,5.054,0,0,1,292,256.88Z" transform="translate(373.083 -54.01)" fill="#d8d8d8"/>
    <path id="Path_1142" data-name="Path 1142" d="M289.464,253.578a3.2,3.2,0,0,1-.242.332q-2.465,2.471-4.936,4.937a1.828,1.828,0,0,1-3.081-.724,1.783,1.783,0,0,1,.506-1.881q2.445-2.451,4.9-4.9c.081-.08.171-.151.28-.247-.094-.1-.162-.175-.233-.246q-2.478-2.479-4.955-4.958a1.827,1.827,0,0,1,.718-3.082,1.78,1.78,0,0,1,1.882.5q2.5,2.495,5,5a1.688,1.688,0,0,1,.138.189c.107-.1.183-.166.254-.237q2.438-2.437,4.877-4.874a1.825,1.825,0,0,1,3.05.657,1.8,1.8,0,0,1-.488,1.963q-2.4,2.4-4.8,4.794c-.081.08-.176.146-.289.24.109.115.183.2.261.275q2.427,2.428,4.855,4.856a1.776,1.776,0,0,1,.48,1.864,1.716,1.716,0,0,1-1.363,1.247,1.8,1.8,0,0,1-1.723-.534q-2.415-2.42-4.833-4.837A3.875,3.875,0,0,1,289.464,253.578Z" transform="translate(403.786 25.232)" fill="#d8d8d8"/>
    <path id="Path_1143" data-name="Path 1143" d="M292.074,256.971a4.189,4.189,0,0,1-.317.435q-3.236,3.244-6.479,6.48a2.4,2.4,0,0,1-4.044-.951,2.34,2.34,0,0,1,.664-2.469q3.209-3.217,6.427-6.427c.106-.105.224-.2.367-.324-.124-.131-.213-.229-.306-.323q-3.252-3.254-6.5-6.508a2.4,2.4,0,0,1,.942-4.046,2.337,2.337,0,0,1,2.47.659q3.284,3.275,6.56,6.559a2.22,2.22,0,0,1,.182.248c.141-.131.24-.218.333-.311q3.2-3.2,6.4-6.4a2.4,2.4,0,0,1,4,.862,2.359,2.359,0,0,1-.641,2.576q-3.148,3.146-6.3,6.292c-.106.106-.231.192-.38.314.143.151.24.259.342.361q3.186,3.187,6.372,6.374a2.332,2.332,0,0,1,.63,2.447,2.253,2.253,0,0,1-1.789,1.637,2.36,2.36,0,0,1-2.261-.7q-3.171-3.176-6.344-6.349A5.1,5.1,0,0,1,292.074,256.971Z" transform="translate(352.13 79.496)" fill="#d8d8d8"/>
    <path id="Path_1144" data-name="Path 1144" d="M288.943,252.9a2.975,2.975,0,0,1-.227.311q-2.311,2.317-4.628,4.629a1.714,1.714,0,0,1-2.889-.679,1.672,1.672,0,0,1,.475-1.764q2.292-2.3,4.59-4.59c.076-.075.16-.142.262-.232-.088-.093-.152-.164-.219-.23q-2.323-2.324-4.646-4.649a1.713,1.713,0,0,1,.673-2.89,1.669,1.669,0,0,1,1.765.471q2.346,2.339,4.685,4.685a1.6,1.6,0,0,1,.13.177c.1-.094.172-.156.238-.222q2.286-2.285,4.573-4.57a1.711,1.711,0,0,1,2.86.616,1.685,1.685,0,0,1-.458,1.84q-2.248,2.247-4.5,4.495c-.076.075-.165.137-.271.225.1.108.171.185.244.258q2.276,2.277,4.552,4.553a1.665,1.665,0,0,1,.45,1.748,1.609,1.609,0,0,1-1.278,1.169,1.686,1.686,0,0,1-1.615-.5q-2.265-2.269-4.532-4.535A3.638,3.638,0,0,1,288.943,252.9Z" transform="translate(209.667 74.8)" fill="#d8d8d8"/>
    <path id="Path_1145" data-name="Path 1145" d="M293.9,259.346a4.858,4.858,0,0,1-.37.508q-3.775,3.785-7.559,7.56a2.8,2.8,0,0,1-4.718-1.109,2.73,2.73,0,0,1,.775-2.881q3.744-3.753,7.5-7.5c.124-.123.262-.232.428-.378-.144-.152-.248-.267-.357-.376q-3.794-3.8-7.588-7.593a2.8,2.8,0,0,1,1.1-4.72,2.726,2.726,0,0,1,2.882.769q3.832,3.821,7.653,7.652a2.6,2.6,0,0,1,.212.289c.165-.153.28-.254.389-.363q3.734-3.732,7.469-7.464a2.8,2.8,0,0,1,4.671,1.006,2.752,2.752,0,0,1-.747,3.005q-3.672,3.67-7.344,7.341c-.124.123-.269.224-.443.367.166.176.28.3.4.422q3.717,3.718,7.434,7.437a2.72,2.72,0,0,1,.735,2.855,2.628,2.628,0,0,1-2.087,1.91,2.754,2.754,0,0,1-2.638-.818q-3.7-3.706-7.4-7.407A5.94,5.94,0,0,1,293.9,259.346Z" transform="translate(206.536 -43.123)" fill="#d8d8d8"/>
  </g>
</svg>
