<svg id="Group_1056" data-name="Group 1056" xmlns="http://www.w3.org/2000/svg" width="57.755" height="38.633" viewBox="0 0 57.755 38.633">
  <path id="Path_1109" data-name="Path 1109" d="M180.128,527.164H141.641a3.456,3.456,0,0,1,1.657-4.2,23.673,23.673,0,0,1,6.9-2.553c.536-.131,1.079-.249,1.625-.326a4.843,4.843,0,0,0,3.268-1.979,15.541,15.541,0,0,0,1.192-1.83c.6-1.09.583-1.1-.334-1.922a17.808,17.808,0,0,1-4-5.894,6.236,6.236,0,0,0-.716-1.133A5.691,5.691,0,0,1,150,503.608c.028-1.059.38-1.5,1.259-1.749-.079-1.381-.195-2.755-.229-4.133-.149-6.019,4.221-8.6,8.2-9.086a11.28,11.28,0,0,1,7.864,1.681,7.715,7.715,0,0,1,3.552,6.564c.041,1.5-.148,3.009-.232,4.515-.008.147,0,.3,0,.438a1.623,1.623,0,0,1,1.3,1.841,5.729,5.729,0,0,1-1.29,3.7,5.1,5.1,0,0,0-.64,1,16.71,16.71,0,0,1-4.6,6.451.647.647,0,0,0-.141.611,35.094,35.094,0,0,0,2.249,3.364,4.754,4.754,0,0,0,2.731,1.31c2.281.593,4.528,1.311,6.781,2a5.972,5.972,0,0,1,1.08.532C179.937,523.788,180.4,524.7,180.128,527.164Z" transform="translate(-141.477 -488.531)" fill="#fff"/>
  <line id="Line_64" data-name="Line 64" x2="13.158" transform="translate(37.018 4.11)" fill="none" stroke="#fff" stroke-linecap="round" stroke-width="2"/>
  <line id="Line_65" data-name="Line 65" x2="19.737" transform="translate(37.018 12.882)" fill="none" stroke="#fff" stroke-linecap="round" stroke-width="2"/>
  <line id="Line_66" data-name="Line 66" x2="15.351" transform="translate(37.018 21.654)" fill="none" stroke="#fff" stroke-linecap="round" stroke-width="2"/>
</svg>
