<svg id="Group_1057" data-name="Group 1057" xmlns="http://www.w3.org/2000/svg" width="48.853" height="41.429" viewBox="0 0 48.853 41.429">
  <g id="Group_841" data-name="Group 841" transform="translate(0 12.252)">
    <path id="Path_988" data-name="Path 988" d="M98.18,91.624H73.372l-11.7-21.783-4.606,7.6,11.88,21.578H93.77Z" transform="translate(-57.068 -69.842)" fill="#59d46f"/>
  </g>
  <path id="Path_989" data-name="Path 989" d="M61.1,70.77h29.87l4.662-7.6H65.7Z" transform="translate(-53.699 -63.17)" fill="#59d46f"/>
  <g id="Group_843" data-name="Group 843" transform="translate(7.398)">
    <path id="Path_990" data-name="Path 990" d="M102.552,84.4H77.681L65.7,63.17,61.1,70.77,73.275,91.8H98.059Z" transform="translate(-61.097 -63.17)" fill="#59d46f"/>
  </g>
  <g id="Group_848" data-name="Group 848" transform="translate(34.193 14.806)">
    <path id="Path_995" data-name="Path 995" d="M84.608,74.723H77.626l-1.938-3.491H82.67Z" transform="translate(-75.688 -71.232)" fill="#59d46f"/>
  </g>
  <path id="Path_996" data-name="Path 996" d="M85.7,72.292,83.757,68.8h-7v0H69.779l3.855,6.982h6.982L78.69,72.292Z" transform="translate(-46.438 -58.463)" fill="#59d46f"/>
</svg>
