<svg xmlns="http://www.w3.org/2000/svg" width="372.533" height="38.828" viewBox="0 0 372.533 38.828">
  <g id="Group_1080" data-name="Group 1080" transform="translate(-623.429 -536.1)">
    <g id="Group_930" data-name="Group 930" transform="translate(623.429 536.1)">
      <path id="Path_1093" data-name="Path 1093" d="M637.344,564.94a2.516,2.516,0,0,1-1.37-.964,1.982,1.982,0,0,1-.557-1.521,13.72,13.72,0,0,1,.429-2.536c.222-.811.414-1.655.583-2.535l6.391-21.146H631.511q-1.726,5.579-2.94,9.508t-2,6.592q-.79,2.663-1.217,4.235t-.685,2.459q-.255.888-.355,1.292c-.068.272-.119.507-.153.712q-1.522,5.779.128,9.1t6.11,3.879a59.722,59.722,0,0,0,10.4.608,77.694,77.694,0,0,0,10.8-1.115l2.688-9.382a65.123,65.123,0,0,1-8.419,1.166A38.065,38.065,0,0,1,637.344,564.94Z" transform="translate(-623.429 -536.082)" fill="#fba800"/>
      <path id="Path_1094" data-name="Path 1094" d="M767.964,541.867a7.629,7.629,0,0,0-1.572-2.486,9.242,9.242,0,0,0-3.979-2.459,16.085,16.085,0,0,0-4.693-.684H737.03l-11.105,37.88,25.914-.049a8.5,8.5,0,0,0,3.118-.585,11.845,11.845,0,0,0,2.816-1.572,15.556,15.556,0,0,0,2.433-2.281,27.539,27.539,0,0,0,2.03-2.663,13.106,13.106,0,0,0,1.216-2.51q.657-1.7,1.37-3.83t1.368-4.512q.66-2.384,1.192-4.565t.838-3.956a17.518,17.518,0,0,0,.3-2.79A7.954,7.954,0,0,0,767.964,541.867Zm-10.369,6.821q-.331,1.343-.837,3.067t-1.115,3.626q-.611,1.9-1.218,3.6c-.405,1.136-.778,2.13-1.115,2.992a17.183,17.183,0,0,1-.762,1.749,9.366,9.366,0,0,1-.885,1.267,3.2,3.2,0,0,1-1.068.812,5.215,5.215,0,0,1-1.57.431,17.594,17.594,0,0,1-2.307.128h-7.253l6.694-23.277h8.671a2.434,2.434,0,0,1,1.268.329,3.326,3.326,0,0,1,.963.864,4.21,4.21,0,0,1,.634,1.191,3.875,3.875,0,0,1,.228,1.267A9.482,9.482,0,0,1,757.594,548.688Z" transform="translate(-609.885 -536.082)" fill="#fba800"/>
      <path id="Path_1095" data-name="Path 1095" d="M779.813,565a2.028,2.028,0,0,1-1.269-.76,1.694,1.694,0,0,1-.456-1.369,14.383,14.383,0,0,1,.509-2.333q.353-1.167.608-2.332h14.3l2.233-7.251q-4.362,0-6.975-.026t-4.08-.025c-.947,0-1.634.008-2.055.025s-.786.042-1.089.077a7.192,7.192,0,0,0,.811-1.649,14.982,14.982,0,0,1,.836-1.9,6.1,6.1,0,0,1,1.168-1.571,2.412,2.412,0,0,1,1.749-.659h16.125l2.739-9.079H783.159a21.224,21.224,0,0,0-6.566.963,19.557,19.557,0,0,0-5.4,2.714,22.232,22.232,0,0,0-4.387,4.184,32.177,32.177,0,0,0-3.473,5.373.276.276,0,0,0,.153.432.589.589,0,0,0,.557-.026.415.415,0,0,0,.254-.153,7.4,7.4,0,0,1,1.8-1.443,9.2,9.2,0,0,1,1.725-.736,15.725,15.725,0,0,1,1.622-.405,9.975,9.975,0,0,0,1.495-.406,65.017,65.017,0,0,0-2.713,7.277,67.86,67.86,0,0,0-1.85,7.582,17.012,17.012,0,0,0-.227,4.106,12.645,12.645,0,0,0,.885,4.057,8.41,8.41,0,0,0,2.258,3.2,6.779,6.779,0,0,0,3.879,1.571,80.968,80.968,0,0,0,21.2-.456l2.688-9.382a53.184,53.184,0,0,1-8.57.938A47.784,47.784,0,0,1,779.813,565Z" transform="translate(-604.948 -536.094)" fill="#fba800"/>
      <path id="Path_1096" data-name="Path 1096" d="M833.675,538.362a10.7,10.7,0,0,0-3.448-1.572,15.133,15.133,0,0,0-3.855-.507H807.254l-11.409,37.78H806.8l3.245-10.751h7l3.65,10.751h10.651L827.487,562.3a13.963,13.963,0,0,0,3.526-2.662,22.037,22.037,0,0,0,2.762-3.473,19.741,19.741,0,0,0,2.51-5.426,21.047,21.047,0,0,0,.838-5.884,7.329,7.329,0,0,0-.962-3.8A8.607,8.607,0,0,0,833.675,538.362Zm-8.038,11.764a9.3,9.3,0,0,1-1.8,2.84q-.457.508-.887.989a4.1,4.1,0,0,1-1.065.836,5.6,5.6,0,0,1-1.572.558,11.392,11.392,0,0,1-2.358.2h-5.578l3.753-12.424h7a2.567,2.567,0,0,1,1.292.331,3.253,3.253,0,0,1,.99.862,4.283,4.283,0,0,1,.633,1.192,3.889,3.889,0,0,1,.228,1.268A8.853,8.853,0,0,1,825.637,550.126Z" transform="translate(-600.645 -536.076)" fill="#fba800"/>
      <path id="Path_1097" data-name="Path 1097" d="M887.183,537.574a3.7,3.7,0,0,0-1.293-.583,15.492,15.492,0,0,0-1.927-.38q-1.09-.151-2.333-.229t-2.51-.126l.052-.1-10.142-.05a35.868,35.868,0,0,0-7.3.531,13.756,13.756,0,0,0-4.92,1.928,13.5,13.5,0,0,0-3.575,3.549,49.91,49.91,0,0,0-3.22,5.4c-.067.237.025.388.28.456a.552.552,0,0,0,.633-.254,9.052,9.052,0,0,1,2.435-2.028,14.837,14.837,0,0,1,3.4-1.422l-9.18,29.819h19.828a41.719,41.719,0,0,0,4.719-.23,18.585,18.585,0,0,0,3.295-.633,12.853,12.853,0,0,0,5.426-3.4,13.985,13.985,0,0,0,3.3-5.781q2.079-6.339-3.144-8.825a12.135,12.135,0,0,0,2.789-1.443,16.006,16.006,0,0,0,2.511-2.131,15.625,15.625,0,0,0,2-2.586,12.614,12.614,0,0,0,1.318-2.866,8.067,8.067,0,0,0,.127-4.995A7.2,7.2,0,0,0,887.183,537.574Zm-13.132,25.153a5.754,5.754,0,0,1-1.117,2.055,7.583,7.583,0,0,1-1.877,1.648,7.788,7.788,0,0,1-.91.431,6.07,6.07,0,0,1-.966.28,10.067,10.067,0,0,1-1.192.151q-.683.051-1.6.051h-5.578l2.637-8.774h5.782a13.665,13.665,0,0,1,2.612.179,4.068,4.068,0,0,1,1.494.633Q874.811,560.447,874.051,562.727Zm4.713-15.517a6.432,6.432,0,0,1-1.165,2.054,7.606,7.606,0,0,1-1.875,1.648,5.537,5.537,0,0,1-1.828.735,15.436,15.436,0,0,1-2.737.178H865.53l2.586-8.469h8.875v-.05a2.184,2.184,0,0,1,1.013.557Q879.477,544.927,878.764,547.21Z" transform="translate(-593.809 -536.1)" fill="#2a2d33"/>
      <path id="Path_1098" data-name="Path 1098" d="M901.78,565a2.029,2.029,0,0,1-1.269-.76,1.691,1.691,0,0,1-.454-1.369,14.348,14.348,0,0,1,.506-2.333q.353-1.167.609-2.332h14.3l2.232-7.251q-4.363,0-6.975-.026t-4.08-.025c-.947,0-1.634.008-2.056.025s-.785.042-1.087.077a7.232,7.232,0,0,0,.809-1.649,14.832,14.832,0,0,1,.837-1.9,6.109,6.109,0,0,1,1.168-1.571,2.411,2.411,0,0,1,1.749-.659h16.123l2.74-9.079H905.125a21.213,21.213,0,0,0-6.565.963,19.582,19.582,0,0,0-5.4,2.714,22.26,22.26,0,0,0-4.386,4.184,32.183,32.183,0,0,0-3.473,5.373.276.276,0,0,0,.152.432.591.591,0,0,0,.558-.026.412.412,0,0,0,.254-.153,7.353,7.353,0,0,1,1.8-1.443,9.213,9.213,0,0,1,1.723-.736,16.029,16.029,0,0,1,1.622-.405,9.958,9.958,0,0,0,1.5-.406,64.588,64.588,0,0,0-2.713,7.277,68.381,68.381,0,0,0-1.852,7.582,17.059,17.059,0,0,0-.225,4.106,12.616,12.616,0,0,0,.885,4.057,8.411,8.411,0,0,0,2.258,3.2,6.771,6.771,0,0,0,3.877,1.571,80.977,80.977,0,0,0,21.2-.456l2.688-9.382a53.2,53.2,0,0,1-8.572.938A47.793,47.793,0,0,1,901.78,565Z" transform="translate(-588.832 -536.094)" fill="#2a2d33"/>
      <path id="Path_1099" data-name="Path 1099" d="M937.567,536.25v-.1a25.913,25.913,0,0,0-7.379.809,14.94,14.94,0,0,0-5.122,2.563,17.408,17.408,0,0,0-3.777,4.183q-1.625,2.485-3.3,5.679c-.069.238.026.39.281.456a.569.569,0,0,0,.632-.2,18.366,18.366,0,0,1,1.727-1.875,7.55,7.55,0,0,1,2.457-1.471,16.151,16.151,0,0,1,4.005-.888,48.135,48.135,0,0,1,6.418-.177l-8.825,28.854h11.461l8.723-28.854H954.3l2.738-8.977Z" transform="translate(-584.508 -536.094)" fill="#2a2d33"/>
      <rect id="Rectangle_720" data-name="Rectangle 720" width="9.907" height="6.126" transform="translate(240.561 19.02)" fill="#2a2d33"/>
      <path id="Path_1100" data-name="Path 1100" d="M671.035,565a2.028,2.028,0,0,1-1.269-.76,1.7,1.7,0,0,1-.454-1.369,14.352,14.352,0,0,1,.507-2.333q.353-1.167.608-2.332h14.3l2.233-7.251q-4.361,0-6.974-.026t-4.08-.025q-1.422,0-2.056.025c-.422.018-.785.042-1.088.077a7.143,7.143,0,0,0,.809-1.649,14.993,14.993,0,0,1,.838-1.9,6.094,6.094,0,0,1,1.167-1.571,2.411,2.411,0,0,1,1.75-.659h16.123l2.739-9.079H674.382a21.225,21.225,0,0,0-6.566.963,19.592,19.592,0,0,0-5.4,2.714,22.254,22.254,0,0,0-4.386,4.184,32.277,32.277,0,0,0-3.473,5.373.277.277,0,0,0,.153.432.588.588,0,0,0,.557-.026.413.413,0,0,0,.254-.153,7.376,7.376,0,0,1,1.8-1.443,9.265,9.265,0,0,1,1.724-.736,15.969,15.969,0,0,1,1.623-.405,9.957,9.957,0,0,0,1.5-.406,64.78,64.78,0,0,0-2.713,7.277A68.678,68.678,0,0,0,657.6,561.5a16.947,16.947,0,0,0-.225,4.106,12.634,12.634,0,0,0,.884,4.057,8.4,8.4,0,0,0,2.259,3.2,6.77,6.77,0,0,0,3.878,1.571,80.969,80.969,0,0,0,21.2-.456l2.689-9.382a53.213,53.213,0,0,1-8.573.938A47.8,47.8,0,0,1,671.035,565Z" transform="translate(-619.322 -536.094)" fill="#fba800"/>
      <path id="Path_1101" data-name="Path 1101" d="M708.9,536.339a3.762,3.762,0,0,0-2.557,1.7c-7.11,11.816-14.125,23.5-21.592,36.083h11.612s2.057-2.856,4.082-5.958c.847-1.3,1.432-2.005,2.227-2.04,4.47-.2,8.954-.1,13.306-.1.367,3.039.666,5.523.968,8.033h12.485l-5.221-37.8C718.93,536.259,713.911,536.176,708.9,536.339Zm5.567,21.14h-8.313l7.4-13.464.915.24Z" transform="translate(-615.325 -536.082)" fill="#fba800"/>
    </g>
  </g>
</svg>
