<svg xmlns="http://www.w3.org/2000/svg" width="404.555" height="283.669" viewBox="0 0 404.555 283.669">
  <g id="Group_1087" data-name="Group 1087" transform="translate(-487.377 -187.466)">
    <circle id="Ellipse_31" data-name="Ellipse 31" cx="94.6" cy="94.6" r="94.6" transform="translate(585.246 244.325)" fill="#32cc4d"/>
    <g id="Group_968" data-name="Group 968" transform="translate(632.915 304.84)">
      <path id="Path_1135" data-name="Path 1135" d="M130.208-1900.249a17.474,17.474,0,0,1,1.787-2.625q18.031-18.1,36.129-36.125c5.356-5.322,12.682-5.094,17.395.4a11.269,11.269,0,0,1,.434,14.41,20.51,20.51,0,0,1-1.829,2.044q-22.818,22.825-45.659,45.631c-5.5,5.48-11.958,5.493-17.429.067q-11.507-11.414-22.91-22.929c-3.793-3.845-4.62-8.666-2.495-13.1a11.356,11.356,0,0,1,12.1-6.665,13.342,13.342,0,0,1,6.447,3.156c4.678,4.235,9.007,8.856,13.479,13.317C128.289-1902.035,128.955-1901.434,130.208-1900.249Z" transform="translate(-94.484 1942.858)" fill="#fff"/>
    </g>
    <g id="Group_969" data-name="Group 969" transform="translate(793.007 187.466)">
      <path id="Path_1135-2" data-name="Path 1135" d="M114.455-1919.038a9.776,9.776,0,0,1,1-1.467q10.08-10.117,20.2-20.2c2.994-2.974,7.09-2.847,9.724.225a6.3,6.3,0,0,1,.242,8.056,11.382,11.382,0,0,1-1.022,1.142q-12.756,12.76-25.525,25.51c-3.075,3.063-6.685,3.07-9.743.037q-6.432-6.379-12.807-12.818a6.21,6.21,0,0,1-1.395-7.324,6.35,6.35,0,0,1,6.763-3.727,7.478,7.478,0,0,1,3.6,1.765c2.615,2.368,5.035,4.951,7.535,7.445C113.382-1920.037,113.755-1919.7,114.455-1919.038Z" transform="translate(-94.484 1942.858)" fill="#e9e9e9"/>
    </g>
    <g id="Group_970" data-name="Group 970" transform="translate(851.222 338.925)">
      <path id="Path_1135-3" data-name="Path 1135" d="M109.978-1924.378a7.619,7.619,0,0,1,.775-1.138q7.82-7.85,15.67-15.669a4.921,4.921,0,0,1,7.544.175,4.888,4.888,0,0,1,.188,6.25,8.85,8.85,0,0,1-.793.885q-9.9,9.9-19.8,19.791c-2.386,2.376-5.186,2.382-7.559.029q-4.991-4.95-9.936-9.944a4.819,4.819,0,0,1-1.082-5.682,4.926,4.926,0,0,1,5.247-2.891,5.792,5.792,0,0,1,2.8,1.369c2.029,1.837,3.906,3.841,5.846,5.776C109.146-1925.153,109.435-1924.892,109.978-1924.378Z" transform="translate(-94.484 1942.858)" fill="#e9e9e9"/>
    </g>
    <g id="Group_971" data-name="Group 971" transform="translate(487.377 423.765)">
      <path id="Path_1135-4" data-name="Path 1135" d="M112.455-1921.423a8.759,8.759,0,0,1,.9-1.32q9.071-9.1,18.175-18.175c2.694-2.676,6.38-2.561,8.751.2a5.67,5.67,0,0,1,.218,7.25,10.291,10.291,0,0,1-.92,1.028q-11.479,11.483-22.969,22.955c-2.767,2.757-6.016,2.763-8.768.034q-5.788-5.741-11.525-11.534a5.589,5.589,0,0,1-1.255-6.591,5.714,5.714,0,0,1,6.086-3.353,6.725,6.725,0,0,1,3.243,1.587c2.353,2.131,4.531,4.456,6.781,6.7C111.49-1922.322,111.825-1922.019,112.455-1921.423Z" transform="translate(-94.484 1942.858)" fill="#e9e9e9"/>
    </g>
    <g id="Group_972" data-name="Group 972" transform="translate(487.377 216.159)">
      <path id="Path_1135-5" data-name="Path 1135" d="M116.025-1917.166a10.494,10.494,0,0,1,1.077-1.582q10.872-10.913,21.785-21.784c3.23-3.208,7.647-3.071,10.489.243a6.8,6.8,0,0,1,.261,8.69,12.389,12.389,0,0,1-1.1,1.232Q134.775-1916.6,121-1902.853c-3.316,3.3-7.21,3.311-10.509.04q-6.938-6.882-13.814-13.825a6.7,6.7,0,0,1-1.5-7.9,6.847,6.847,0,0,1,7.295-4.02,8.044,8.044,0,0,1,3.887,1.9c2.821,2.554,5.431,5.34,8.128,8.03C114.868-1918.243,115.269-1917.88,116.025-1917.166Z" transform="translate(-94.484 1942.858)" fill="#e9e9e9"/>
    </g>
    <g id="Group_973" data-name="Group 973" transform="translate(757.525 433.524)">
      <path id="Path_1135-6" data-name="Path 1135" d="M113.551-1920.116a9.281,9.281,0,0,1,.954-1.4q9.624-9.66,19.283-19.283c2.859-2.839,6.769-2.717,9.284.215a6.016,6.016,0,0,1,.231,7.692,10.972,10.972,0,0,1-.976,1.09q-12.179,12.183-24.369,24.354c-2.936,2.924-6.382,2.932-9.3.035q-6.141-6.091-12.227-12.237a5.931,5.931,0,0,1-1.331-6.993,6.062,6.062,0,0,1,6.457-3.557,7.126,7.126,0,0,1,3.441,1.684c2.5,2.261,4.807,4.727,7.194,7.108C112.527-1921.07,112.882-1920.749,113.551-1920.116Z" transform="translate(-94.484 1942.858)" fill="#e9e9e9"/>
    </g>
  </g>
</svg>
