<svg id="Group_1059" data-name="Group 1059" xmlns="http://www.w3.org/2000/svg" width="51.228" height="51.215" viewBox="0 0 51.228 51.215">
  <path id="Path_1056" data-name="Path 1056" d="M337.624,298.448c-.193,14.164-11.852,25.653-25.808,25.434A25.713,25.713,0,0,1,286.4,298.052c.171-14.057,11.89-25.606,25.754-25.38C326.379,272.905,337.815,284.479,337.624,298.448Zm-46.52-.2a20.911,20.911,0,1,0,21.165-20.874A20.9,20.9,0,0,0,291.1,298.249Z" transform="translate(-286.399 -272.67)" fill="#5c74a5"/>
  <path id="Path_1057" data-name="Path 1057" d="M375.208,374.047c.358-1.647.907-4.109,1.421-6.579a23.573,23.573,0,0,0,.48-3.013c.114-1.521-.41-2-1.912-1.916-.467.027-.962.269-1.146-.484s.3-.921.8-1.109a18.229,18.229,0,0,1,2.551-.9c2.961-.63,5.1,1.233,4.69,4.224-.364,2.646-1.019,5.251-1.526,7.878a17.521,17.521,0,0,0-.357,2.462c-.068,1.426.475,1.91,1.9,1.853.482-.019,1.071-.36,1.261.484.185.822-.432.933-.932,1.142a14.9,14.9,0,0,1-2.209.85C377.213,379.664,375.152,377.99,375.208,374.047Z" transform="translate(-354.119 -340.11)" fill="#5c74a5"/>
  <path id="Path_1058" data-name="Path 1058" d="M387.217,324.95a3.46,3.46,0,0,1,3.426-3.482,3.493,3.493,0,1,1-3.426,3.482Z" transform="translate(-364.326 -310.388)" fill="#5c74a5"/>
</svg>
