<svg id="Group_1096" data-name="Group 1096" xmlns="http://www.w3.org/2000/svg" width="214.867" height="150.662" viewBox="0 0 214.867 150.662">
  <circle id="Ellipse_31" data-name="Ellipse 31" cx="50.244" cy="50.244" r="50.244" transform="translate(51.981 30.199)" fill="#32cc4d"/>
  <g id="Group_968" data-name="Group 968" transform="translate(77.298 62.34)">
    <path id="Path_1135" data-name="Path 1135" d="M113.458-1920.228a9.3,9.3,0,0,1,.949-1.394q9.576-9.611,19.189-19.187c2.845-2.827,6.736-2.706,9.239.213a5.985,5.985,0,0,1,.23,7.653,10.843,10.843,0,0,1-.971,1.085q-12.119,12.124-24.25,24.236c-2.921,2.911-6.351,2.917-9.257.035q-6.111-6.062-12.168-12.178a5.9,5.9,0,0,1-1.325-6.958,6.031,6.031,0,0,1,6.425-3.54,7.088,7.088,0,0,1,3.424,1.676c2.485,2.249,4.784,4.7,7.159,7.073C112.439-1921.176,112.792-1920.857,113.458-1920.228Z" transform="translate(-94.484 1942.858)" fill="#fff"/>
  </g>
  <g id="Group_969" data-name="Group 969" transform="translate(162.326 0)">
    <path id="Path_1135-2" data-name="Path 1135" d="M105.091-1930.207a5.173,5.173,0,0,1,.531-.779q5.354-5.374,10.727-10.727a3.369,3.369,0,0,1,5.165.119,3.347,3.347,0,0,1,.129,4.279,5.985,5.985,0,0,1-.543.606q-6.775,6.777-13.557,13.549a3.364,3.364,0,0,1-5.175.02q-3.416-3.387-6.8-6.808a3.3,3.3,0,0,1-.741-3.89,3.372,3.372,0,0,1,3.592-1.979,3.971,3.971,0,0,1,1.914.937c1.389,1.258,2.674,2.63,4,3.955C104.521-1930.737,104.719-1930.559,105.091-1930.207Z" transform="translate(-94.484 1942.858)" fill="#d8d8d8"/>
  </g>
  <g id="Group_970" data-name="Group 970" transform="translate(193.246 80.443)">
    <path id="Path_1135-3" data-name="Path 1135" d="M102.713-1933.043a4.04,4.04,0,0,1,.412-.6q4.153-4.169,8.322-8.322a2.614,2.614,0,0,1,4.007.093,2.6,2.6,0,0,1,.1,3.319,4.623,4.623,0,0,1-.421.47q-5.256,5.258-10.518,10.512a2.61,2.61,0,0,1-4.015.015q-2.651-2.629-5.277-5.282a2.559,2.559,0,0,1-.575-3.018,2.616,2.616,0,0,1,2.787-1.536,3.076,3.076,0,0,1,1.485.727c1.078.976,2.075,2.04,3.105,3.068C102.271-1933.455,102.425-1933.316,102.713-1933.043Z" transform="translate(-94.484 1942.858)" fill="#d8d8d8"/>
  </g>
  <g id="Group_971" data-name="Group 971" transform="translate(0 125.503)">
    <path id="Path_1135-4" data-name="Path 1135" d="M104.029-1931.474a4.665,4.665,0,0,1,.477-.7q4.818-4.835,9.653-9.653a3.032,3.032,0,0,1,4.648.107,3.012,3.012,0,0,1,.116,3.851,5.489,5.489,0,0,1-.489.545q-6.1,6.1-12.2,12.192a3.028,3.028,0,0,1-4.657.018q-3.074-3.051-6.121-6.126a2.969,2.969,0,0,1-.667-3.5,3.035,3.035,0,0,1,3.232-1.781,3.574,3.574,0,0,1,1.722.843c1.25,1.131,2.406,2.367,3.6,3.559C103.516-1931.95,103.694-1931.791,104.029-1931.474Z" transform="translate(-94.484 1942.858)" fill="#d8d8d8"/>
  </g>
  <g id="Group_972" data-name="Group 972" transform="translate(0 15.239)">
    <path id="Path_1135-5" data-name="Path 1135" d="M105.925-1929.212a5.552,5.552,0,0,1,.572-.841q5.774-5.8,11.57-11.57a3.635,3.635,0,0,1,5.571.129,3.61,3.61,0,0,1,.139,4.615,6.566,6.566,0,0,1-.586.654q-7.308,7.31-14.622,14.613a3.629,3.629,0,0,1-5.582.021q-3.685-3.655-7.337-7.342a3.558,3.558,0,0,1-.8-4.2,3.637,3.637,0,0,1,3.874-2.135,4.277,4.277,0,0,1,2.065,1.011c1.5,1.356,2.884,2.836,4.317,4.265C105.31-1929.785,105.524-1929.592,105.925-1929.212Z" transform="translate(-94.484 1942.858)" fill="#d8d8d8"/>
  </g>
  <g id="Group_973" data-name="Group 973" transform="translate(143.481 130.686)">
    <path id="Path_1135-6" data-name="Path 1135" d="M104.611-1930.779a4.95,4.95,0,0,1,.507-.744q5.111-5.13,10.242-10.241a3.217,3.217,0,0,1,4.931.115,3.194,3.194,0,0,1,.123,4.084,5.763,5.763,0,0,1-.518.58q-6.468,6.47-12.943,12.935a3.212,3.212,0,0,1-4.941.018q-3.262-3.234-6.494-6.5a3.15,3.15,0,0,1-.707-3.714,3.22,3.22,0,0,1,3.429-1.89,3.784,3.784,0,0,1,1.828.894c1.326,1.2,2.553,2.511,3.821,3.776C104.067-1931.286,104.256-1931.115,104.611-1930.779Z" transform="translate(-94.484 1942.858)" fill="#d8d8d8"/>
  </g>
</svg>
