<svg xmlns="http://www.w3.org/2000/svg" width="321.752" height="73.762" viewBox="0 0 321.752 73.762">
  <g id="layer1" transform="translate(-74.726 -322.697)">
    <path id="path5590" d="M358.849,322.7a37.8,37.8,0,0,1,16.393,3.731c.782.351,1.569.775,2.349,1.2l-3.419,3.032-5.129-5.287-8.835,7.75-5.2-5.565-16.25,14.444,10.4,11.342-4.062,3.518,10.264,11.342-4.062,3.523,14.685,16.134,8.69-7.893,7.558,8.458a42.027,42.027,0,0,1-4.917,3.241,37.545,37.545,0,0,1-18.391,4.787,37.163,37.163,0,0,1-37.344-36.911c-.07-20.219,16.678-36.851,37.272-36.851Zm-6.843,34.589,8.912-7.893,7.981,8.81-8.912,7.889-7.981-8.808Zm6.342,15.219,8.842-7.963,8.051,8.808-8.912,7.893-7.979-8.738Zm-12.68-30.226,8.9-7.889,7.986,8.805-8.912,7.893Zm16.319-4.224,6.625-5.919,5.988,6.551-6.632,5.988-5.986-6.62Zm11.828,27.122,6.625-5.916,5.988,6.62-6.63,5.921-5.986-6.625Zm5.842,13.317,6.629-5.919,5.984,6.551-6.627,5.988Zm2.708-30.439,4.421-3.942,3.988,4.368-4.417,3.944-4-4.37Zm-5.7-13.032,4.421-4.014,3.993,4.44-4.421,3.947-3.991-4.37ZM388,361.1l4.417-3.947,4.06,4.368-4.491,3.944L388,361.1Zm-19.884-9.8,6.627-5.916,5.986,6.551-6.625,5.919-5.988-6.551ZM94.275,348.109h-.336l-6.312,23.972H82.469l-7.743-34.055H80.08l5.352,25.409h.333l6.21-25.409H96.23l6.643,25.409h.338l4.875-25.409h5.593l-7.745,34.055h-5.162m19.7-14.5h10.942c-.238-5.041-2.678-7.06-5.259-7.06-2.917,0-5.162,2.261-5.685,7.06m14.768,9.032v3.653a16.788,16.788,0,0,1-8.463,2.211c-8.032,0-11.324-5-11.324-12.585,0-7.3,3.68-12.585,10.847-12.585,5.972,0,9.653,3.889,9.653,11.717V360.8H120.37c0,5.764,2.338,8.31,7.264,8.31a14.559,14.559,0,0,0,7.6-2.5m11.838,2.016a11.06,11.06,0,0,0,4.4.768c3.542,0,6.211-2.21,6.211-9.993,0-6.1-2.2-8.067-5.4-8.067a9.944,9.944,0,0,0-5.208,1.583v15.705Zm.046-19.259a14.339,14.339,0,0,1,6.453-1.782c5.926,0,9.129,4.132,9.129,11.817,0,8.982-4.306,13.356-11.231,13.356a22.021,22.021,0,0,1-9.322-2.361V336.882l4.972-1.2v13.689Zm37.1,15.486h.236L194.674,338H200.6v34.057h-5.162V347.37h-.428l-9.75,24.689H182.2l-9.75-24.11h-.433v24.11h-4.3V338h5.787m48.182,21.888c0-6.481-2.625-9.22-5.872-9.22-3.153,0-5.88,2.736-5.88,9.22,0,6.581,2.486,9.22,5.88,9.22s5.875-2.639,5.875-9.222m-16.768,0c0-8.407,4.588-12.585,10.9-12.585s10.9,4.176,10.9,12.583c0,8.21-4.347,12.585-10.9,12.585s-10.9-4.375-10.9-12.585M230.5,350.86a24.38,24.38,0,0,1,12.185-3.555c5.736,0,7.884,2.255,7.884,7.2V371.9H245.6v-16.28c0-3.8-1.859-4.468-4.3-4.468a13.176,13.176,0,0,0-5.833,1.729V371.9H230.5V350.858Zm30.592,6.72h10.94c-.231-5.042-2.674-7.06-5.254-7.06-2.917,0-5.162,2.262-5.687,7.06m14.763,9.032v3.653a16.766,16.766,0,0,1-8.46,2.21c-8.021,0-11.319-5-11.319-12.585,0-7.3,3.676-12.585,10.845-12.585,5.972,0,9.657,3.889,9.657,11.717V360.8H260.992c0,5.764,2.338,8.31,7.259,8.31a14.539,14.539,0,0,0,7.6-2.5m20.576-19.3h5.116l-8.653,24c-2.391,6.629-5.3,10.088-10.8,10.088v-3.93c3.25,0,5.254-2.593,6.4-6.153l-9.176-24.009h5.254l6.12,17.671h.287l5.444-17.673Z" transform="translate(0 0)" fill="#006cb4"/>
  </g>
</svg>
