<svg xmlns="http://www.w3.org/2000/svg" width="65.368" height="80.367" viewBox="0 0 65.368 80.367">
  <g id="layer1" transform="translate(0)">
    <g id="g899" transform="translate(0 0)">
      <g id="g876" transform="translate(0 0)">
        <path id="path890" d="M-45.248,183.976a8.313,8.313,0,0,0-8.3,8.3V256.04a8.313,8.313,0,0,0,8.3,8.3H3.509a8.313,8.313,0,0,0,8.3-8.3V203.61a6.873,6.873,0,0,0-.536-3.029,8.394,8.394,0,0,0-1.643-2.375l-.008-.01-12.1-11.865-.02-.02a9.569,9.569,0,0,0-2.564-1.64,9.369,9.369,0,0,0-3.661-.692l.028,0Z" transform="translate(53.548 -183.976)" fill="#ff2116"/>
        <path id="rect2684" d="M-44.833,187.118H-8.248a7.791,7.791,0,0,1,2.531.473,6.937,6.937,0,0,1,1.764,1.115l.005.005L8.119,200.548A6.658,6.658,0,0,1,9.2,202.106a5.912,5.912,0,0,1,.3,1.8q0,.029,0,.058v52.488a5.532,5.532,0,0,1-5.573,5.575H-44.833a5.532,5.532,0,0,1-5.573-5.575V192.694a5.532,5.532,0,0,1,5.573-5.575Z" transform="translate(53.133 -184.391)" fill="#fff"/>
        <path id="path2697" d="M-34.848,234.183c-1.876-1.876.154-4.455,5.663-7.193l3.467-1.723,1.351-2.955c.743-1.625,1.851-4.277,2.464-5.893l1.113-2.938-.767-2.174c-.943-2.674-1.279-6.691-.681-8.136.811-1.957,3.466-1.756,4.517.342.821,1.638.737,4.605-.236,8.347l-.8,3.068.7,1.193a41.392,41.392,0,0,0,2.509,3.462l1.867,2.322,2.323-.3c7.38-.963,9.908.674,9.908,3.02,0,2.962-5.795,3.206-10.661-.212a14.779,14.779,0,0,1-1.847-1.533S-17,223.5-18.5,223.9c-1.549.418-2.322.679-4.592,1.445,0,0-.8,1.156-1.315,2-1.93,3.128-4.184,5.719-5.794,6.663-1.8,1.056-3.692,1.128-4.643.177Zm2.945-1.052a22.2,22.2,0,0,0,4.668-5.521l.6-.949-2.724,1.37c-4.208,2.116-6.133,4.11-5.132,5.316.562.678,1.235.621,2.59-.216Zm27.333-7.672a1.583,1.583,0,0,0-.284-2.766c-.908-.457-1.639-.551-4-.516-1.449.1-3.779.391-4.174.48,0,0,1.28.885,1.848,1.21a24.564,24.564,0,0,0,3.937,1.645c1.324.405,2.09.362,2.67-.053Zm-10.99-4.568a26.977,26.977,0,0,1-2.359-3.044,16.967,16.967,0,0,1-1.322-1.969s-.644,2.07-1.172,3.316l-1.647,4.072-.478.924s2.539-.833,3.831-1.17c1.368-.357,4.145-.9,4.145-.9Zm-3.542-14.2c.159-1.337.227-2.671-.2-3.344-1.191-1.3-2.629-.216-2.385,2.879A21.114,21.114,0,0,0-21,210.143l.629,1.995.443-1.5a39.418,39.418,0,0,0,.83-3.946Z" transform="translate(51.167 -186.333)" fill="#ff2116"/>
        <g id="g858" transform="translate(19.51 56.541)">
          <path id="path845" d="M-31.067,249.125h3.047a8.28,8.28,0,0,1,2.371.279,2.783,2.783,0,0,1,1.532,1.217,4,4,0,0,1,.622,2.262,4.113,4.113,0,0,1-.5,2.091,2.963,2.963,0,0,1-1.361,1.262,6.629,6.629,0,0,1-2.614.388H-29.03v4.8h-2.037Zm2.037,1.577v4.29h1.01a2.658,2.658,0,0,0,1.866-.5,2.2,2.2,0,0,0,.523-1.64,2.462,2.462,0,0,0-.343-1.37,1.4,1.4,0,0,0-.757-.649,4.737,4.737,0,0,0-1.289-.126Z" transform="translate(31.067 -249.125)" fill="#2c2c2c"/>
          <path id="path847" d="M-20.547,249.125h2.767a6.255,6.255,0,0,1,3.209.712,4.428,4.428,0,0,1,1.821,2.118,7.626,7.626,0,0,1,.622,3.119,8.706,8.706,0,0,1-.559,3.218,5.117,5.117,0,0,1-1.695,2.271,5.268,5.268,0,0,1-3.245.865h-2.92Zm2.037,1.631v9.04h.847a2.853,2.853,0,0,0,2.578-1.226,5.964,5.964,0,0,0,.8-3.29q0-4.525-3.38-4.525Z" transform="translate(29.677 -249.125)" fill="#2c2c2c"/>
          <path id="path849" d="M-8.593,249.125H-1.76v1.631h-4.8v3.677h3.84v1.631h-3.84v5.363H-8.593Z" transform="translate(28.098 -249.125)" fill="#2c2c2c"/>
        </g>
      </g>
    </g>
  </g>
</svg>
