<svg id="Layer_1" xmlns="http://www.w3.org/2000/svg" width="344.696" height="66.882" viewBox="0 0 344.696 66.882">
  <path id="Path_1141" data-name="Path 1141" d="M173.491-242.441a12.17,12.17,0,0,0-.351-3.195,2.787,2.787,0,0,0-1.124-1.65,4.3,4.3,0,0,0-2.212-.492,3.839,3.839,0,0,0-2.071.492,2.918,2.918,0,0,0-1.088,1.65,12.434,12.434,0,0,0-.316,3.195v6.951a12.741,12.741,0,0,0,.316,3.23,2.949,2.949,0,0,0,1.088,1.615,3.552,3.552,0,0,0,2.071.492,3.975,3.975,0,0,0,2.212-.492,2.813,2.813,0,0,0,1.124-1.615,12.473,12.473,0,0,0,.351-3.23Zm15.235-7.513c1.334,1.615,2.036,4,2.036,7.126v6.354a27.361,27.361,0,0,1-1.931,10.532h-5.3a31.579,31.579,0,0,0,1.755-10.532v-6.319a7.376,7.376,0,0,0-.737-3.862,2.6,2.6,0,0,0-2.387-1.124,2.737,2.737,0,0,0-2.493,1.158,7.761,7.761,0,0,0-.7,3.827v7.337c0,3.3-.772,5.793-2.317,7.443s-3.826,2.492-6.846,2.492q-4.423,0-6.74-2.527c-1.509-1.65-2.282-4.142-2.282-7.407v-7.021q0-4.844,2.212-7.372c1.475-1.685,3.616-2.527,6.459-2.527a8.317,8.317,0,0,1,4.283.983,5.306,5.306,0,0,1,2.387,2.844,6.83,6.83,0,0,1,2.6-2.914,8.322,8.322,0,0,1,4.072-.912A7.329,7.329,0,0,1,188.727-249.954Z" transform="translate(-73.408 280.713)" fill="#fff"/>
  <path id="Path_1142" data-name="Path 1142" d="M237.975-249.884c1.544,1.685,2.317,4.142,2.317,7.407v6a26.714,26.714,0,0,1-1.931,10.532H232.99a31.579,31.579,0,0,0,1.755-10.532v-5.968a10.844,10.844,0,0,0-.351-3.195,2.718,2.718,0,0,0-1.053-1.65,3.839,3.839,0,0,0-2.071-.492,3.888,3.888,0,0,0-2.107.492,2.717,2.717,0,0,0-1.053,1.65,10.821,10.821,0,0,0-.351,3.195v5.933a32.244,32.244,0,0,0,1.755,10.567h-5.371a27.809,27.809,0,0,1-1.931-10.5v-6.038c0-3.265.772-5.722,2.282-7.407,1.545-1.65,3.791-2.492,6.775-2.492C234.219-252.376,236.466-251.534,237.975-249.884Z" transform="translate(-99.767 280.713)" fill="#fff"/>
  <path id="Path_1143" data-name="Path 1143" d="M273.389-230.707a4.635,4.635,0,0,0,.877-3.089,4.676,4.676,0,0,0-.877-3.124,3.388,3.388,0,0,0-2.739-.983,3.247,3.247,0,0,0-2.633.983,4.688,4.688,0,0,0-.842,3.124,4.646,4.646,0,0,0,.842,3.089,3.374,3.374,0,0,0,2.668.983A3.356,3.356,0,0,0,273.389-230.707Zm6.424-3.054c0,5.687-3.054,8.53-9.127,8.53q-9.058,0-9.057-8.53c0-4.985,2.282-7.829,6.88-8.46v-1.44a2.052,2.052,0,0,0-.456-1.4,9.53,9.53,0,0,0-1.58-1.509c-.457-.421-.807-.738-1.053-1.018a3.516,3.516,0,0,1-.6-1.088,5.921,5.921,0,0,1-.211-1.79V-251.7h5.616v.6a1.783,1.783,0,0,0,.387,1.229,6.374,6.374,0,0,0,1.3,1.263,6.31,6.31,0,0,1,1.65,1.756,4.592,4.592,0,0,1,.492,2.352v2.493C277.883-241.063,279.814-238.325,279.814-233.761Z" transform="translate(-116.681 280.423)" fill="#fff"/>
  <path id="Path_1144" data-name="Path 1144" d="M317.3-249.884c1.544,1.685,2.282,4.142,2.282,7.407v6a27.359,27.359,0,0,1-1.9,10.532h-5.371a31.564,31.564,0,0,0,1.72-10.532v-5.968a12.43,12.43,0,0,0-.316-3.195,2.715,2.715,0,0,0-1.053-1.65,3.974,3.974,0,0,0-2.107-.492,3.839,3.839,0,0,0-2.071.492,2.752,2.752,0,0,0-1.088,1.65,12.434,12.434,0,0,0-.316,3.195v5.933a31.342,31.342,0,0,0,1.755,10.567h-5.371a27.148,27.148,0,0,1-1.931-10.5v-6.038c0-3.265.772-5.722,2.282-7.407,1.509-1.65,3.756-2.492,6.74-2.492C313.508-252.376,315.755-251.534,317.3-249.884Z" transform="translate(-133.806 280.713)" fill="#fff"/>
  <path id="Path_1145" data-name="Path 1145" d="M342.121-251.7h5.547v17.868a4.486,4.486,0,0,0,.913,3.125,3.784,3.784,0,0,0,2.949.983,4.021,4.021,0,0,0,2.949-.948,4.49,4.49,0,0,0,.878-3.124,5.138,5.138,0,0,0-.246-1.685c-.211-.492-.456-1.124-.843-1.861a17.583,17.583,0,0,1-.948-2.246,7.233,7.233,0,0,1-.316-2.247v-.526h5.546a7.63,7.63,0,0,0,.316,1.9,21.535,21.535,0,0,0,.842,2.071,23.287,23.287,0,0,1,.913,2.387,7.141,7.141,0,0,1,.281,2.246q0,8.531-9.373,8.53c-6.284,0-9.408-2.878-9.408-8.565Z" transform="translate(-151.221 280.423)" fill="#fff"/>
  <path id="Path_1146" data-name="Path 1146" d="M398.494-249.884c1.545,1.685,2.317,4.142,2.317,7.407v6a26.714,26.714,0,0,1-1.931,10.532h-5.372a30.709,30.709,0,0,0,1.755-10.532v-5.968a12.436,12.436,0,0,0-.316-3.195,2.753,2.753,0,0,0-1.089-1.65,3.838,3.838,0,0,0-2.071-.492,3.972,3.972,0,0,0-2.106.492,2.718,2.718,0,0,0-1.053,1.65,12.435,12.435,0,0,0-.316,3.195v5.933a32.221,32.221,0,0,0,1.72,10.567h-5.371a27.808,27.808,0,0,1-1.9-10.5v-6.038c0-3.265.737-5.722,2.282-7.407,1.509-1.65,3.756-2.492,6.74-2.492C394.738-252.376,396.985-251.534,398.494-249.884Z" transform="translate(-168.662 280.713)" fill="#fff"/>
  <path id="Path_1147" data-name="Path 1147" d="M448.877-229.075c.842-.948,1.263-2.493,1.263-4.7,0-2.246-.421-3.862-1.263-4.809a5.337,5.337,0,0,0-4.072-1.4,5.217,5.217,0,0,0-4,1.4c-.843.948-1.264,2.563-1.264,4.809,0,2.212.456,3.757,1.3,4.7a5.093,5.093,0,0,0,4,1.4A5.126,5.126,0,0,0,448.877-229.075Zm2.492-10.356a9.334,9.334,0,0,1,1.65,5.687,8.781,8.781,0,0,1-2.141,6.319,7.943,7.943,0,0,1-6.038,2.246,8.355,8.355,0,0,1-4.142-1.053,7.678,7.678,0,0,1-2.949-2.949,9.516,9.516,0,0,1-1.053-4.563,9.769,9.769,0,0,1,.948-4.423,7.494,7.494,0,0,1,2.633-2.984,7.87,7.87,0,0,1,3.791-1.264v-2.246a2.893,2.893,0,0,0-.492-1.756,4.22,4.22,0,0,0-1.439-1.229,3.8,3.8,0,0,1-1.474-1.4,3.642,3.642,0,0,1-.492-1.825v-1.194h2.878v.772a1.957,1.957,0,0,0,.351,1.229,4.516,4.516,0,0,0,1.264,1.053,4.674,4.674,0,0,1,1.685,1.614,4.5,4.5,0,0,1,.562,2.422v2.739A7.1,7.1,0,0,1,451.369-239.431Z" transform="translate(-191.803 280.582)" fill="#fff"/>
  <path id="Path_1148" data-name="Path 1148" d="M482.12-252.069v1.053a10.442,10.442,0,0,0,.281,2.6,5.982,5.982,0,0,0,.807,1.966c.386.6,1.018,1.439,1.861,2.493.983,1.263,1.72,2.281,2.246,3.054a10.7,10.7,0,0,1,1.194,2.914,16.7,16.7,0,0,1,.492,4.353,9.421,9.421,0,0,1-1.053,4.564A7.017,7.017,0,0,1,485.1-226.2a8.689,8.689,0,0,1-4.212,1.018,7.944,7.944,0,0,1-5.863-2.212,8.38,8.38,0,0,1-2.176-6.108,10.814,10.814,0,0,1,1.79-6.248l2.317.842a13.242,13.242,0,0,0-.912,2.317,12.6,12.6,0,0,0-.351,3.054c0,2.141.421,3.651,1.229,4.529a5.065,5.065,0,0,0,3.967,1.334,5.107,5.107,0,0,0,4-1.37c.807-.912,1.229-2.493,1.229-4.739a13.882,13.882,0,0,0-.351-3.51,8.281,8.281,0,0,0-.948-2.387c-.421-.667-1.089-1.58-1.966-2.7a27.759,27.759,0,0,1-2.106-2.949,8.578,8.578,0,0,1-1.053-2.493,11.6,11.6,0,0,1-.351-3.124v-1.124Z" transform="translate(-207.318 280.582)" fill="#fff"/>
  <path id="Path_1149" data-name="Path 1149" d="M522.227-229.075c.878-.948,1.3-2.493,1.3-4.7,0-2.176-.457-3.756-1.4-4.7a5.468,5.468,0,0,0-4.037-1.4,8.141,8.141,0,0,0-2.808.491,6.887,6.887,0,0,0-2.352,1.4v4.213c0,2.212.421,3.757,1.264,4.7a5.124,5.124,0,0,0,4.037,1.4A5.091,5.091,0,0,0,522.227-229.075Zm.281-12.357a7.035,7.035,0,0,1,2.809,2.914,10.094,10.094,0,0,1,1.053,4.774,8.746,8.746,0,0,1-2.176,6.389,8.206,8.206,0,0,1-5.968,2.176,8.215,8.215,0,0,1-5.9-2.141,8.175,8.175,0,0,1-2.212-6.143v-11.865a6.376,6.376,0,0,1,2-4.914,7.308,7.308,0,0,1,5.231-1.826h7.372v2.563H517.7a5.445,5.445,0,0,0-3.686,1.018,4.475,4.475,0,0,0-1.088,3.37v4.985a6.534,6.534,0,0,1,2.493-1.685,8.752,8.752,0,0,1,3.195-.6A8.434,8.434,0,0,1,522.508-241.432Z" transform="translate(-223.308 280.582)" fill="#fff"/>
  <path id="Path_1150" data-name="Path 1150" d="M547.317-236.412l2.563.6a8.859,8.859,0,0,0-.667,3.37c0,3.194,1.72,4.774,5.2,4.774,1.931,0,3.265-.421,4.037-1.3.807-.877,1.193-2.422,1.193-4.564a7.242,7.242,0,0,0-1.263-4.7,4.893,4.893,0,0,0-4.037-1.545h-1.544v-2.457h2a3.947,3.947,0,0,0,3.3-1.229,5.565,5.565,0,0,0,.913-3.3,7.636,7.636,0,0,0-.421-2.527,18.243,18.243,0,0,0-1.369-2.773h2.738a9.548,9.548,0,0,1,1.861,5.511,6.093,6.093,0,0,1-1.194,3.686,5.347,5.347,0,0,1-3.756,1.931,5.473,5.473,0,0,1,4.318,2.422,9.676,9.676,0,0,1,1.3,5.125c0,2.668-.7,4.7-2.141,6.109a8.057,8.057,0,0,1-5.933,2.106,9.485,9.485,0,0,1-4.177-.912,6.552,6.552,0,0,1-2.844-2.493,6.956,6.956,0,0,1-1.053-3.827A8.043,8.043,0,0,1,547.317-236.412Z" transform="translate(-238.849 280.582)" fill="#fff"/>
  <path id="Path_1151" data-name="Path 1151" d="M597.491-250.367c1.369,1.544,2.071,3.862,2.071,6.985v4.74a38.705,38.705,0,0,1-.667,7.337,17.333,17.333,0,0,1-1.861,5.442h-2.773c1.685-2.879,2.527-7.162,2.527-12.814v-4.528a14.255,14.255,0,0,0-.491-4.178,3.52,3.52,0,0,0-1.58-2.141,6.331,6.331,0,0,0-3.089-.632,6.186,6.186,0,0,0-3.054.632,3.7,3.7,0,0,0-1.615,2.141,14.253,14.253,0,0,0-.492,4.178v4.528a34.923,34.923,0,0,0,.772,7.372,22.919,22.919,0,0,0,1.79,5.442h-2.879a23.4,23.4,0,0,1-1.755-5.477,35.529,35.529,0,0,1-.737-7.3v-4.774c0-3.125.7-5.441,2.071-6.986a7.567,7.567,0,0,1,5.9-2.282A7.388,7.388,0,0,1,597.491-250.367Z" transform="translate(-254.866 280.846)" fill="#fff"/>
  <path id="Path_1152" data-name="Path 1152" d="M40.941-264.97c.316,3.16.492,4.774-2.071,7.478-2.668,2.808-9.338,7.969-16.148,11.9A65.284,65.284,0,0,1,13-240.852c-2.177.807-4,1.124-4.915-.456a2.973,2.973,0,0,1,0-2.773c2.387-6.424,9.2-18.466,13.656-26.259.456-.807.948-1.614,1.4-2.457,6.88-11.831,15.973-26.329,17.763-28.646.246-.351.738-.737,1.159-.492a.906.906,0,0,1,.316.948,4.592,4.592,0,0,1-.175.632C39.292-288.384,39.607-276.659,40.941-264.97Z" transform="translate(-7.733 302.013)" fill="#fff"/>
  <path id="Path_1153" data-name="Path 1153" d="M77.71-260.988c-2.878-1.334-4.388-2-5.441-5.582-1.088-3.686-2.246-12.041-2.246-19.94a71.727,71.727,0,0,1,.737-10.743c.421-2.317,1.053-4.072,2.878-4.072a3.083,3.083,0,0,1,2.422,1.4c4.388,5.266,11.339,17.2,15.9,24.995.456.772.913,1.58,1.4,2.422,6.81,11.866,14.814,27,15.938,29.7.175.386.281.983-.176,1.263a.926.926,0,0,1-.948-.211l-.456-.456C98.808-250.737,88.522-256.319,77.71-260.988Z" transform="translate(-34.462 301.717)" fill="#fff"/>
  <path id="Path_1154" data-name="Path 1154" d="M44.639-220.425c2.6-1.825,3.932-2.773,7.548-1.931,3.721.913,11.55,4.108,18.4,8.039a73.921,73.921,0,0,1,8.952,6.038c1.755,1.51,2.984,2.914,2.071,4.494a3.064,3.064,0,0,1-2.422,1.4c-6.775,1.158-20.606,1.229-29.593,1.3H46.781c-13.691-.035-30.787-.667-33.7-1.053-.421-.035-.983-.245-.983-.772a.868.868,0,0,1,.632-.738c.07,0,.492-.14.632-.175C25.191-207.261,35.2-213.369,44.639-220.425Z" transform="translate(-9.606 267.965)" fill="#fff"/>
</svg>
