<svg xmlns="http://www.w3.org/2000/svg" xmlns:xlink="http://www.w3.org/1999/xlink" width="253.266" height="95.14" viewBox="0 0 253.266 95.14">
  <defs>
    <linearGradient id="linear-gradient" x1="0.5" y1="1" x2="0.5" gradientUnits="objectBoundingBox">
      <stop offset="0" stop-color="#00aeef"/>
      <stop offset="0.211" stop-color="#1bb7c1"/>
      <stop offset="0.686" stop-color="#5dcc4f"/>
      <stop offset="1" stop-color="#8bdb00"/>
    </linearGradient>
  </defs>
  <g id="main_logo.ka" transform="translate(0.001 0)">
    <g id="Group_919" data-name="Group 919" transform="translate(118.878 28.566)">
      <g id="Group_913" data-name="Group 913" transform="translate(14.842 48.492)">
        <g id="Group_911" data-name="Group 911">
          <path id="Path_1066" data-name="Path 1066" d="M537.529,308.6h-.962a1.043,1.043,0,0,0-1.041,1.042v.619h.729v-.619a.313.313,0,0,1,.312-.312h.962a.312.312,0,0,1,.312.312v7.635a.313.313,0,0,1-.312.313h-.962a.313.313,0,0,1-.312-.313V313.46h-.729v3.817a1.042,1.042,0,0,0,1.041,1.041h.962a1.042,1.042,0,0,0,1.042-1.041v-7.635A1.043,1.043,0,0,0,537.529,308.6Z" transform="translate(-535.526 -308.6)" fill="#00aeef"/>
          <path id="Path_1067" data-name="Path 1067" d="M709.908,313.095h-.962a1.024,1.024,0,0,0-.312.049v-3.5a.312.312,0,0,1,.312-.312h2v-.73h-2a1.043,1.043,0,0,0-1.041,1.042v7.635a1.042,1.042,0,0,0,1.041,1.041h.962a1.043,1.043,0,0,0,1.042-1.041v-3.14A1.043,1.043,0,0,0,709.908,313.095Zm.312,3.018v1.164a.313.313,0,0,1-.312.313h-.962a.313.313,0,0,1-.312-.313v-3.14a.313.313,0,0,1,.312-.313h.962a.313.313,0,0,1,.312.313Z" transform="translate(-664.863 -308.6)" fill="#8bdb00"/>
          <path id="Path_1068" data-name="Path 1068" d="M684.464,308.6h-1.4a1.043,1.043,0,0,0-1.041,1.042v8.624h.729v-8.624a.312.312,0,0,1,.312-.312h.337v2.592h.73V309.33h.338a.312.312,0,0,1,.312.312v8.624h.729v-8.624A1.043,1.043,0,0,0,684.464,308.6Z" transform="translate(-645.439 -308.6)" fill="#8bdb00"/>
          <path id="Path_1069" data-name="Path 1069" d="M782.253,308.6h-.962a1.043,1.043,0,0,0-1.042,1.042v8.624h.73v-8.624a.312.312,0,0,1,.312-.312h.962a.312.312,0,0,1,.312.312v8.624h.729v-8.624A1.043,1.043,0,0,0,782.253,308.6Z" transform="translate(-719.142 -308.6)" fill="#8bdb00"/>
          <path id="Path_1070" data-name="Path 1070" d="M658.944,309.33h.961a.313.313,0,0,1,.313.312h.729A1.043,1.043,0,0,0,659.9,308.6h-.961a1.043,1.043,0,0,0-1.042,1.042v8.624h.729v-4.129a.313.313,0,0,1,.313-.313h.961a.313.313,0,0,1,.313.313v4.129h.729v-4.129a1.042,1.042,0,0,0-1.042-1.042h-.961a1.026,1.026,0,0,0-.313.049v-3.5A.312.312,0,0,1,658.944,309.33Z" transform="translate(-627.345 -308.6)" fill="#8bdb00"/>
          <path id="Path_1071" data-name="Path 1071" d="M634.461,309.335h-.338v-.729h-.729v.729h-.337a1.043,1.043,0,0,0-1.042,1.041v6.906a1.042,1.042,0,0,0,1.042,1.041h1.4a1.043,1.043,0,0,0,1.042-1.041v-6.906A1.044,1.044,0,0,0,634.461,309.335Zm.312,7.947a.313.313,0,0,1-.312.313h-1.4a.314.314,0,0,1-.313-.313v-6.906a.312.312,0,0,1,.313-.312h.337v1.862h.73v-1.862h.338a.312.312,0,0,1,.312.312v6.906Z" transform="translate(-607.922 -308.604)" fill="#8bdb00"/>
          <path id="Path_1072" data-name="Path 1072" d="M561.643,308.6h-.962a1.044,1.044,0,0,0-1.042,1.042v7.635a1.043,1.043,0,0,0,1.042,1.041h1.638v-.729h-1.638a.313.313,0,0,1-.312-.313v-7.635a.313.313,0,0,1,.312-.312h.962a.312.312,0,0,1,.312.312v3.14h.729v-3.14A1.043,1.043,0,0,0,561.643,308.6Z" transform="translate(-553.618 -308.6)" fill="#00aeef"/>
          <path id="Path_1073" data-name="Path 1073" d="M758.138,308.6h-.961a1.043,1.043,0,0,0-1.042,1.042v7.635a1.042,1.042,0,0,0,1.042,1.041h1.638v-.729h-1.638a.314.314,0,0,1-.313-.313v-7.635a.313.313,0,0,1,.313-.312h.961a.312.312,0,0,1,.312.312v3.14h.73v-3.14A1.043,1.043,0,0,0,758.138,308.6Z" transform="translate(-701.049 -308.6)" fill="#8bdb00"/>
          <path id="Path_1074" data-name="Path 1074" d="M585.759,308.6H584.8a1.042,1.042,0,0,0-1.04,1.042v.619h.729v-.619a.313.313,0,0,1,.312-.312h.962a.312.312,0,0,1,.312.312v7.635a.313.313,0,0,1-.312.313H584.8a.313.313,0,0,1-.312-.313V313.46h-.729v3.817a1.042,1.042,0,0,0,1.04,1.041h.962a1.043,1.043,0,0,0,1.042-1.041v-7.635A1.043,1.043,0,0,0,585.759,308.6Z" transform="translate(-571.714 -308.6)" fill="#8bdb00"/>
          <path id="Path_1075" data-name="Path 1075" d="M734.023,308.6h-.962a1.043,1.043,0,0,0-1.042,1.042h.729a.313.313,0,0,1,.312-.312h.117v2.592h.729V309.33h.117a.312.312,0,0,1,.312.312v7.635a.313.313,0,0,1-.312.313h-.962a.313.313,0,0,1-.312-.313V313.46h-.729v3.817a1.043,1.043,0,0,0,1.042,1.041h.962a1.042,1.042,0,0,0,1.041-1.041v-7.635A1.043,1.043,0,0,0,734.023,308.6Z" transform="translate(-682.955 -308.6)" fill="#8bdb00"/>
          <path id="Path_1076" data-name="Path 1076" d="M609.872,308.6v.73a.313.313,0,0,1,.313.312v2.776h-1.274a1.043,1.043,0,0,0-1.042,1.041h.729a.313.313,0,0,1,.313-.312h1.274v4.13a.313.313,0,0,1-.313.313h-.961a.314.314,0,0,1-.313-.313v-1.164h-.729v1.164a1.043,1.043,0,0,0,1.042,1.041h.961a1.042,1.042,0,0,0,1.042-1.041v-7.635A1.043,1.043,0,0,0,609.872,308.6Z" transform="translate(-589.805 -308.6)" fill="#8bdb00"/>
        </g>
        <g id="Group_912" data-name="Group 912" transform="translate(71.256)">
          <path id="Path_1077" data-name="Path 1077" d="M871.573,308.6h-1.4a1.043,1.043,0,0,0-1.042,1.042v3.14a1.042,1.042,0,0,0,1.042,1.041h.082a1.043,1.043,0,0,0,1.042-1.041v-3.14a1.046,1.046,0,0,0-.048-.312h.329a.312.312,0,0,1,.312.312v3.14a.312.312,0,0,1-.312.313h-.046v.729h.046a.313.313,0,0,1,.312.313v3.14a.313.313,0,0,1-.312.313h-1.4a.313.313,0,0,1-.313-.313v-1.164h-.729v1.164a1.042,1.042,0,0,0,1.042,1.041h1.4a1.041,1.041,0,0,0,1.04-1.041v-3.14a1.04,1.04,0,0,1,0-1.354v-3.14A1.042,1.042,0,0,0,871.573,308.6Zm-1.01,4.182a.312.312,0,0,1-.312.313h-.082a.313.313,0,0,1-.313-.313v-3.14a.313.313,0,0,1,.313-.312h.082a.312.312,0,0,1,.312.312Z" transform="translate(-857.083 -308.6)" fill="#00aeef"/>
          <path id="Path_1078" data-name="Path 1078" d="M921.13,308.6h-.962a1.043,1.043,0,0,0-1.042,1.042v7.635a1.043,1.043,0,0,0,1.042,1.041h1.638v-.729h-1.638a.313.313,0,0,1-.312-.313v-7.635a.312.312,0,0,1,.312-.312h.962a.313.313,0,0,1,.312.312v3.14h.729v-3.14A1.043,1.043,0,0,0,921.13,308.6Z" transform="translate(-894.598 -308.6)" fill="#00aeef"/>
          <path id="Path_1079" data-name="Path 1079" d="M945.246,308.6h-.961a1.043,1.043,0,0,0-1.042,1.042v.619h.729v-.619a.313.313,0,0,1,.313-.312h.961a.312.312,0,0,1,.313.312v7.635a.313.313,0,0,1-.313.313h-.961a.313.313,0,0,1-.313-.313V313.46h-.729v3.817a1.043,1.043,0,0,0,1.042,1.041h.961a1.043,1.043,0,0,0,1.042-1.041v-7.635A1.043,1.043,0,0,0,945.246,308.6Z" transform="translate(-912.693 -308.6)" fill="#00aeef"/>
          <path id="Path_1080" data-name="Path 1080" d="M847.013,308.6h-.962v.73h.962a.312.312,0,0,1,.312.312v7.635a.313.313,0,0,1-.312.313h-.962a.313.313,0,0,1-.312-.313v-1.164h-.73v1.164a1.043,1.043,0,0,0,1.042,1.041h.962a1.042,1.042,0,0,0,1.041-1.041v-7.635A1.042,1.042,0,0,0,847.013,308.6Z" transform="translate(-838.988 -308.6)" fill="#00aeef"/>
          <path id="Path_1081" data-name="Path 1081" d="M823.208,317.282a.313.313,0,0,1-.313.313h-.961a.313.313,0,0,1-.313-.313v-8.675h-.729v8.675a1.043,1.043,0,0,0,1.042,1.041h.961a1.042,1.042,0,0,0,1.042-1.041v-1.164h-.729Z" transform="translate(-820.893 -308.605)" fill="#00aeef"/>
          <path id="Path_1082" data-name="Path 1082" d="M897.017,308.6h-.961a1.043,1.043,0,0,0-1.042,1.042h.729a.313.313,0,0,1,.313-.312h.116v2.592h.73V309.33h.116a.312.312,0,0,1,.313.312v7.635a.313.313,0,0,1-.313.313h-.961a.314.314,0,0,1-.313-.313h-.729a1.042,1.042,0,0,0,1.042,1.041h.961a1.043,1.043,0,0,0,1.042-1.041v-7.635A1.044,1.044,0,0,0,897.017,308.6Z" transform="translate(-876.507 -308.6)" fill="#00aeef"/>
        </g>
      </g>
      <g id="Group_918" data-name="Group 918">
        <g id="Group_914" data-name="Group 914" transform="translate(38.937)">
          <path id="Path_1083" data-name="Path 1083" d="M654.3,246.344a8.042,8.042,0,0,1-5.505,2.169h-15.2a1.572,1.572,0,1,0,0,3.144h15.2a11.175,11.175,0,0,0,7.65-3.015,1.572,1.572,0,0,0-2.145-2.3Z" transform="translate(-632.023 -213.081)" fill="#8bdb00"/>
          <path id="Path_1084" data-name="Path 1084" d="M662.224,133.158a9.5,9.5,0,0,0,1.958-5.8,9.617,9.617,0,0,0-9.607-9.6H643.5v-1.784a1.572,1.572,0,0,0-3.144,0v3.356a1.572,1.572,0,0,0,1.572,1.572h12.647a6.47,6.47,0,0,1,6.463,6.461,6.393,6.393,0,0,1-1.5,4.138,11.139,11.139,0,0,0-4.486-.944h-5.558a1.572,1.572,0,0,0,0,3.144h5.558a8.076,8.076,0,0,1,8.067,8.067q0,.337-.027.668a1.571,1.571,0,0,0,1.441,1.692c.043,0,.085.005.127.005a1.573,1.573,0,0,0,1.566-1.447c.025-.3.036-.608.036-.919A11.192,11.192,0,0,0,662.224,133.158Z" transform="translate(-638.276 -114.4)" fill="#8bdb00"/>
        </g>
        <g id="Group_915" data-name="Group 915" transform="translate(69.159)">
          <path id="Path_1085" data-name="Path 1085" d="M777.006,163.732a9.6,9.6,0,0,0,1.848-7.249,1.572,1.572,0,1,0-3.109.47,6.538,6.538,0,0,1,.074.979,6.423,6.423,0,0,1-1.5,4.136,11.164,11.164,0,0,0-4.484-.942h-5.557a1.572,1.572,0,0,0,0,3.144h5.557a8.067,8.067,0,1,1,0,16.135h-15.2a1.572,1.572,0,1,0,0,3.144h15.2a11.2,11.2,0,0,0,7.173-19.816Z" transform="translate(-753.057 -144.972)" fill="#8bdb00"/>
          <path id="Path_1086" data-name="Path 1086" d="M762.966,120.9h12.647a6.442,6.442,0,0,1,3.336.927,1.572,1.572,0,1,0,1.627-2.69,9.587,9.587,0,0,0-4.963-1.381H764.538v-1.784a1.572,1.572,0,1,0-3.144,0v3.356A1.571,1.571,0,0,0,762.966,120.9Z" transform="translate(-759.312 -114.4)" fill="#8bdb00"/>
        </g>
        <g id="Group_916" data-name="Group 916" transform="translate(0 1.482)">
          <path id="Path_1087" data-name="Path 1087" d="M504.227,126.365a1.537,1.537,0,0,0,1.791-2.5,18.777,18.777,0,0,0-10.936-3.526c-.01,0-.018,0-.028,0h-.044a18.923,18.923,0,0,0-5.506,37.027,1.512,1.512,0,0,0,.447.067,1.537,1.537,0,0,0,.447-3.007,15.846,15.846,0,0,1,3.119-30.936V139.3a1.537,1.537,0,1,0,3.074,0V123.5A15.7,15.7,0,0,1,504.227,126.365Z" transform="translate(-476.088 -120.337)" fill="#8bdb00"/>
          <path id="Path_1088" data-name="Path 1088" d="M578.536,153.97a1.537,1.537,0,1,0-2.611,1.622,15.853,15.853,0,0,1-8.855,23.521,1.537,1.537,0,0,0,.447,3.007,1.506,1.506,0,0,0,.447-.067,18.926,18.926,0,0,0,10.573-28.083Z" transform="translate(-543.533 -145.026)" fill="#8bdb00"/>
        </g>
        <g id="Group_917" data-name="Group 917" transform="translate(100.207 1.784)">
          <path id="Path_1089" data-name="Path 1089" d="M918.485,141.454c0-9.575-6.551-19.909-17.134-19.909H888.177a1.572,1.572,0,0,0,0,3.144h13.175c8.642,0,13.99,8.7,13.99,16.765,0,.42-.025.839-.063,1.256-.005.03-.016.058-.019.088a13.979,13.979,0,0,1-3.764,8.218,1.572,1.572,0,0,0,2.28,2.164,17.146,17.146,0,0,0,3.9-6.656,1.368,1.368,0,0,0,.1-.2A16.857,16.857,0,0,0,918.485,141.454Z" transform="translate(-884.306 -121.545)" fill="#8bdb00"/>
          <path id="Path_1090" data-name="Path 1090" d="M899.433,209.438a13.945,13.945,0,0,1-18.8-11.462h3.594a1.572,1.572,0,0,0,0-3.144h-5.261A1.572,1.572,0,0,0,877.4,196.4a17.094,17.094,0,0,0,23.154,15.972,1.572,1.572,0,0,0-1.118-2.938Z" transform="translate(-877.397 -176.532)" fill="#8bdb00"/>
        </g>
      </g>
    </g>
    <g id="Group_920" data-name="Group 920" transform="translate(-0.001 0)">
      <path id="Path_1091" data-name="Path 1091" d="M19.943,70.78a1.551,1.551,0,0,0,.206-.253c.02-.028.031-.058.051-.087a1.765,1.765,0,0,0,.1-.192c.017-.042.026-.083.042-.123.019-.059.039-.118.052-.176s.015-.09.023-.135.013-.12.016-.178c0-.043,0-.091,0-.135a1.231,1.231,0,0,0-.017-.18c-.006-.043-.015-.088-.026-.134a1.238,1.238,0,0,0-.051-.169c-.016-.045-.032-.088-.051-.134a1.192,1.192,0,0,0-.082-.153c-.025-.044-.053-.087-.08-.128a.628.628,0,0,0-.032-.054,34.276,34.276,0,0,1-3.523-5.658.606.606,0,0,0-.037-.092,1.7,1.7,0,0,0-2.271-.778l-3.512,1.72a1.7,1.7,0,0,0,1.5,3.052l2.014-.987a38.156,38.156,0,0,0,2.253,3.6l-4.467,4.467A44.217,44.217,0,0,1,3.633,52.189l6.205-.408a39.137,39.137,0,0,0,.711,4.252,1.7,1.7,0,1,0,3.312-.756,34.77,34.77,0,0,1-.814-5.994l6.284,0a28.127,28.127,0,0,0,4.922,14.285.127.127,0,0,0,.011.015.153.153,0,0,0,.014.024c.029.039.064.073.1.112a1.352,1.352,0,0,0,.1.124.036.036,0,0,0,.015.011,1.549,1.549,0,0,0,.157.128c.037.028.072.059.106.085.051.031.1.055.159.083s.088.049.136.069.1.028.148.044.109.033.164.044a1.147,1.147,0,0,0,.162.015,1.451,1.451,0,0,0,.162.016,1.422,1.422,0,0,0,.169-.019,1.153,1.153,0,0,0,.158-.016,1.368,1.368,0,0,0,.144-.04,1.538,1.538,0,0,0,.173-.056,1.081,1.081,0,0,0,.114-.058c.061-.031.124-.063.186-.1.006,0,.01,0,.013-.009a1.543,1.543,0,0,0,.24-.2,0,0,0,0,0,0,0l7.046-7.046,0,0a1.8,1.8,0,0,0,.2-.244c.018-.026.035-.057.052-.085a1.742,1.742,0,0,0,.1-.181,1.108,1.108,0,0,0,.043-.107,1.727,1.727,0,0,0,.056-.19c.007-.033.016-.067.024-.1a1.608,1.608,0,0,0,.024-.268c0-.009,0-.018,0-.028a1.71,1.71,0,0,0-.028-.3c-.006-.03-.015-.059-.023-.086a1.839,1.839,0,0,0-.061-.2,1.043,1.043,0,0,0-.049-.112c-.014-.034-.026-.067-.044-.1a15.094,15.094,0,0,1-.71-12.891,1.7,1.7,0,1,0-3.148-1.276,18.456,18.456,0,0,0,.3,14.631l-4.689,4.69a24.7,24.7,0,0,1-3.3-12.263c0-.03.009-.057.009-.087s-.009-.061-.009-.092a24.79,24.79,0,0,1,.215-3.155l.671-3.328a24.882,24.882,0,0,1,14.65-16.459l1.971,6.029a18.44,18.44,0,0,0-2.953,1.6.2.2,0,0,1-.035.029.109.109,0,0,0-.016.011,1.7,1.7,0,0,0-.461,2.357l2.563,3.8a1.7,1.7,0,0,0,2.355.46,1.634,1.634,0,0,0,.256-.211,1.7,1.7,0,0,0,.206-2.149l-1.556-2.3a14.825,14.825,0,0,1,2.22-.953.608.608,0,0,0,.068-.013c.034-.011.066-.026.1-.04a15.054,15.054,0,0,1,9.656.162l-5.419,5.417A8.828,8.828,0,0,0,38.7,48a1.7,1.7,0,0,0,3.393-.161,5.438,5.438,0,0,1,5.7-5.705.2.2,0,0,1,.038,0,1.9,1.9,0,0,0,.223-.014c.04,0,.083,0,.125-.011a2.339,2.339,0,0,0,.234-.066c.028-.011.062-.015.094-.028a1.715,1.715,0,0,0,.567-.377l7.661-7.661h0a1.98,1.98,0,0,0,.195-.239.89.89,0,0,0,.049-.081c.015-.026.034-.049.05-.076s.019-.054.033-.081c.025-.055.05-.111.07-.169s.03-.1.046-.15.024-.111.033-.164.011-.11.014-.166,0-.106,0-.159-.009-.109-.014-.163-.019-.11-.031-.162-.029-.1-.047-.152a1.656,1.656,0,0,0-.061-.154A1.5,1.5,0,0,0,57,31.917c-.026-.042-.057-.086-.085-.132a1.646,1.646,0,0,0-.118-.139c-.02-.024-.033-.048-.053-.069a.468.468,0,0,0-.056-.044,1.482,1.482,0,0,0-.137-.112c-.047-.035-.1-.067-.145-.1-.02-.012-.04-.026-.06-.038a18.451,18.451,0,0,0-12.931-1.765L41.447,23.5a24.759,24.759,0,0,1,7.525-.722,1.7,1.7,0,1,0,.2-3.393c-.445-.026-.892-.038-1.337-.044l-.314-6.261A34.347,34.347,0,0,1,66.919,19L62.37,23.545A27.981,27.981,0,0,0,57,20.964a1.7,1.7,0,1,0-1.133,3.2,24.674,24.674,0,0,1,5.775,2.952s.009,0,.014.009c.035.023.072.037.107.058a1.313,1.313,0,0,0,.177.095l.118.04a1.618,1.618,0,0,0,.183.054.947.947,0,0,0,.12.017,1.049,1.049,0,0,0,.188.02c.042,0,.086,0,.126,0a1.271,1.271,0,0,0,.181-.02c.043,0,.086-.014.129-.021.061-.016.119-.034.175-.05s.081-.03.12-.047a1.43,1.43,0,0,0,.188-.1c.028-.016.058-.029.088-.048a1.9,1.9,0,0,0,.248-.206h0l6.93-6.929v0a1.757,1.757,0,0,0,.152-.172c.011-.015.019-.033.031-.05a1.433,1.433,0,0,0,.1-.154c.025-.043.052-.092.073-.139s.041-.106.058-.159a1.275,1.275,0,0,0,.045-.155c.011-.054.017-.106.026-.159s.012-.11.016-.164,0-.109-.006-.162-.008-.109-.016-.159-.023-.109-.037-.163-.027-.1-.046-.155-.043-.1-.066-.147a1.07,1.07,0,0,0-.08-.15,1.182,1.182,0,0,0-.092-.13c-.036-.045-.074-.095-.114-.139-.015-.015-.023-.03-.038-.047s-.057-.045-.086-.069-.052-.054-.08-.08a37.573,37.573,0,0,0-11-5.819L61.281,5.6A44.667,44.667,0,0,1,75.324,13.25a1.7,1.7,0,0,0,2.267-.123,1.419,1.419,0,0,0,.123-.134,1.7,1.7,0,0,0-.255-2.39,47.788,47.788,0,0,0-8.607-5.536A47.513,47.513,0,0,0,1.808,34.545a.759.759,0,0,0-.029.071c-.009.03-.01.064-.018.1A47.619,47.619,0,0,0,.088,50.453a1.7,1.7,0,0,0-.01.267c.006.076.023.143.034.212A47.628,47.628,0,0,0,10.556,77.513c.018.023.042.04.062.064a.731.731,0,0,0,.058.067c.02.021.043.034.063.054.044.039.088.076.134.111s.09.062.138.09a1.2,1.2,0,0,0,.147.076,1.246,1.246,0,0,0,.153.064.969.969,0,0,0,.154.047,1.369,1.369,0,0,0,.164.031,1.538,1.538,0,0,0,.158.018c.056,0,.107,0,.164,0a1.23,1.23,0,0,0,.162-.016,1.5,1.5,0,0,0,.161-.03,1.448,1.448,0,0,0,.155-.045c.054-.019.106-.04.158-.064s.095-.045.143-.072a1.667,1.667,0,0,0,.149-.1c.022-.016.045-.028.068-.043s.04-.045.063-.065.047-.037.071-.055l6.861-6.862S19.941,70.784,19.943,70.78ZM33.614,5.671c.569-.186,1.136-.36,1.71-.527l3.3-.818a43.661,43.661,0,0,1,19.4.341L56.3,10.689a38.071,38.071,0,0,0-34.352,8.9l-4.424-4.426A44.054,44.054,0,0,1,33.614,5.671ZM4.625,37.187l.924-3.269a44.255,44.255,0,0,1,9.572-16.35l4.42,4.423a37.762,37.762,0,0,0-6.233,9.22,1.7,1.7,0,0,0,.8,2.267c.035.014.071.023.106.038l4.01,1.921a1.706,1.706,0,0,0,1.936-.331,1.732,1.732,0,0,0,.331-.47,1.7,1.7,0,0,0-.8-2.265l-2.536-1.217A34.483,34.483,0,0,1,44.123,13.248l.312,6.265a28.227,28.227,0,0,0-11.778,4.07l-2.772,1.964a28.191,28.191,0,0,0-10.558,20.34H13.05a35.426,35.426,0,0,1,.486-4.386,1.7,1.7,0,1,0-3.345-.594,38.355,38.355,0,0,0-.583,7.482l-6.2.41A44.442,44.442,0,0,1,4.625,37.187Z" transform="translate(0.001 0)" fill="url(#linear-gradient)"/>
      <path id="Path_1092" data-name="Path 1092" d="M144.787,87.532a2.029,2.029,0,0,0-.04-.255,1.3,1.3,0,0,0-.054-.149,47.488,47.488,0,0,0-9.114-18.274c-.021-.023-.044-.039-.064-.062a.734.734,0,0,0-.058-.071c-.018-.018-.04-.031-.061-.051-.044-.039-.09-.076-.137-.111s-.088-.063-.135-.09-.1-.054-.151-.078-.1-.043-.15-.064-.105-.031-.156-.044-.107-.023-.159-.035a1.4,1.4,0,0,0-.163-.014,1.375,1.375,0,0,0-.161,0,1.352,1.352,0,0,0-.164.015,1.583,1.583,0,0,0-.158.029l-.158.045c-.054.02-.106.04-.157.062s-.1.049-.142.077-.1.063-.151.1c-.021.018-.045.026-.065.043s-.044.045-.066.064-.047.033-.068.054l-6.864,6.866c-.017.016-.025.031-.039.047-.039.043-.072.086-.106.13a1.412,1.412,0,0,0-.1.142c-.027.043-.047.088-.07.134a1.188,1.188,0,0,0-.075.166c-.017.047-.028.092-.041.14s-.031.115-.04.172a1.28,1.28,0,0,0-.014.153c0,.055-.009.111-.008.168s.009.107.015.162.015.107.023.161.031.1.049.157a1.349,1.349,0,0,0,.057.158c.023.049.049.095.074.143s.061.1.095.153c.013.014.019.031.034.049a34.446,34.446,0,0,1,3.437,5.488,1.7,1.7,0,0,0,2.28.757,1.732,1.732,0,0,0,.443-.317,1.707,1.707,0,0,0,.318-1.962,38.011,38.011,0,0,0-2.9-4.825l4.468-4.468a44.122,44.122,0,0,1,6.9,13.97l-7.648,1.905a1.7,1.7,0,0,0-1.238,2.057c0,.016.014.03.019.049a34.754,34.754,0,0,1,.962,6.608h-6.3A28.138,28.138,0,0,0,121.88,82.8s-.006-.009-.01-.015l-.015-.023a.989.989,0,0,0-.1-.114,1.317,1.317,0,0,0-.1-.124s-.009-.005-.011-.01c-.052-.048-.107-.09-.162-.131-.035-.025-.066-.058-.1-.08a1.638,1.638,0,0,0-.159-.086c-.045-.022-.092-.049-.136-.07a1.488,1.488,0,0,0-.149-.043c-.057-.016-.111-.035-.167-.048s-.107-.009-.159-.012a.892.892,0,0,0-.335,0c-.051,0-.1.006-.153.015a1.091,1.091,0,0,0-.144.044,1,1,0,0,0-.173.053c-.042.017-.077.042-.114.059a1.652,1.652,0,0,0-.185.1l-.015,0c-.046.031-.08.072-.121.1a1.431,1.431,0,0,0-.117.094l-.023.024,0,0-7.03,7.03c-.021.021-.034.044-.053.064-.043.049-.081.095-.119.147s-.057.085-.085.128-.055.1-.079.153-.043.1-.061.149-.034.106-.047.158-.023.1-.03.154a1.576,1.576,0,0,0-.015.172.786.786,0,0,0,0,.153,1.066,1.066,0,0,0,.015.169c.008.054.02.11.031.162a1.55,1.55,0,0,0,.045.154,1.48,1.48,0,0,0,.071.167c.012.025.02.052.033.081a15.13,15.13,0,0,1-18.365,21.454l5.421-5.42a8.828,8.828,0,0,0,8.472-9.259,1.7,1.7,0,0,0-3.395.162,5.432,5.432,0,0,1-5.7,5.7c-.014,0-.026,0-.04,0a1.5,1.5,0,0,0-.183.01.808.808,0,0,0-.15.014c-.059.011-.11.026-.166.042s-.1.028-.154.045-.1.048-.15.072a1.371,1.371,0,0,0-.143.077c-.044.028-.083.061-.125.092s-.094.074-.14.115a.251.251,0,0,0-.03.025l-7.665,7.664c-.018.016-.027.037-.043.052a1.336,1.336,0,0,0-.111.14,1.276,1.276,0,0,0-.1.144c-.01.019-.027.034-.039.058s-.021.053-.033.077c-.026.055-.051.112-.072.172s-.03.1-.043.15-.024.107-.033.164a1.3,1.3,0,0,0-.014.163c0,.054,0,.107,0,.162a1.333,1.333,0,0,0,.014.163c.009.053.018.106.033.163s.027.1.043.149a1.424,1.424,0,0,0,.064.154,1.528,1.528,0,0,0,.076.147c.027.048.056.091.086.135s.077.094.119.142c.018.021.032.045.053.067s.037.029.054.044c.043.039.088.073.138.112a1.635,1.635,0,0,0,.145.1c.019.011.037.025.056.038a18.294,18.294,0,0,0,5.054,1.831l-.713,6.312a24.824,24.824,0,0,1-9.627-3.978l-.014-.006a1.592,1.592,0,0,0-.186-.1.836.836,0,0,0-.113-.061,1.245,1.245,0,0,0-.19-.061c-.044-.011-.085-.029-.126-.037a1.133,1.133,0,0,0-.2-.02c-.044,0-.087-.013-.13-.014a1.786,1.786,0,0,0-.2.019c-.041.006-.081.006-.119.011a1.352,1.352,0,0,0-.18.052c-.045.013-.092.023-.138.039a1.267,1.267,0,0,0-.121.063,1.4,1.4,0,0,0-.173.091c-.029.019-.054.044-.081.062a1.322,1.322,0,0,0-.184.153.022.022,0,0,0-.01.006L75.4,126.381c-.025.026-.046.058-.071.088s-.053.051-.076.082a.312.312,0,0,0-.029.047,1.7,1.7,0,0,0-.094.154,1.258,1.258,0,0,0-.075.142,1.387,1.387,0,0,0-.06.159c-.016.052-.033.1-.045.157a1.532,1.532,0,0,0-.026.158,1.491,1.491,0,0,0-.014.163c0,.055,0,.107,0,.163s.009.106.016.161.024.107.037.161.029.1.047.154a1.456,1.456,0,0,0,.066.149c.025.049.051.1.079.15a1.507,1.507,0,0,0,.09.13c.038.047.073.095.116.14.014.015.024.031.035.043.03.029.061.047.088.072s.051.053.083.077a37.655,37.655,0,0,0,5.926,3.715l-2.556,5.684c-.046-.02-.091-.043-.136-.066a44.465,44.465,0,0,1-7.993-5.145,1.7,1.7,0,0,0-2.136,2.645,47.553,47.553,0,0,0,44.188,8.356.66.66,0,0,0,.08-.016c.037-.013.072-.029.109-.042a47.473,47.473,0,0,0,31.737-56.531ZM82.034,139.725l2.558-5.687c.822.331,1.654.633,2.5.9a1.7,1.7,0,0,0,1.715-.418,1.678,1.678,0,0,0,.418-.689,1.7,1.7,0,0,0-1.108-2.132,34.532,34.532,0,0,1-3.679-1.412.1.1,0,0,1-.021-.014.119.119,0,0,1-.026-.008,34.163,34.163,0,0,1-5.18-2.9l4.547-4.547A28.256,28.256,0,0,0,96.9,126.974v6.3c-.747-.038-1.494-.088-2.238-.172,0,0,0,0-.008,0h-.01a.041.041,0,0,1-.016,0,1.7,1.7,0,0,0-1.879,1.495,2.008,2.008,0,0,0-.008.263l-.489,4.265a1.7,1.7,0,0,0,3.375.387l.329-2.877a38.086,38.086,0,0,0,12.456-1.206l1.876,5.925A44,44,0,0,1,82.034,139.725Zm31.488.6-1.873-5.925a37.434,37.434,0,0,0,7.747-3.886,1.515,1.515,0,0,0,.27-.218,1.7,1.7,0,0,0-2.135-2.62,34.523,34.523,0,0,1-17.241,5.6v-6.3a28.444,28.444,0,0,0,5.188-.789,1.7,1.7,0,0,0-.827-3.3,24.8,24.8,0,0,1-7.151.715l.715-6.318a18.611,18.611,0,0,0,13.48-5.4,18.3,18.3,0,0,0,3.358-4.63l5.9,2.383a24.894,24.894,0,0,1-7.293,8.908,25.679,25.679,0,0,1-2.2,1.5,1.7,1.7,0,0,0-.572,2.334s.007.006.009.013l2,3.3a1.7,1.7,0,0,0,2.333.574,1.669,1.669,0,0,0,.321-.253,1.7,1.7,0,0,0,.249-2.08l-1.157-1.913c.361-.253.721-.508,1.071-.775a28.249,28.249,0,0,0,9.078-11.895,1.7,1.7,0,0,0-.942-2.212c-.014,0-.029-.008-.045-.013a.338.338,0,0,0-.044-.021l-7.447-3.005a18.631,18.631,0,0,0-.855-12.981l4.69-4.688a24.638,24.638,0,0,1,2.16,4.937l.79,3.306a24.791,24.791,0,0,1,.344,4.1s0,0,0,0a.112.112,0,0,1,0,.014c0,.612-.029,1.223-.076,1.835l-2.447-.349a1.7,1.7,0,0,0-.485,3.364l4.085.586c.037.008.069.018.1.027a1.7,1.7,0,0,0,1.926-1.44c.111-.778.185-1.556.232-2.335h6.3a34.544,34.544,0,0,1-4.38,15.22c-.006.012-.016.02-.022.035a.157.157,0,0,1-.012.025,34.326,34.326,0,0,1-3.028,4.492l-1.853-1.629a1.7,1.7,0,0,0-2.242,2.549l3.163,2.784a1.7,1.7,0,0,0,2.321-.076c.024-.023.05-.05.076-.078a37.514,37.514,0,0,0,3.669-4.941l5.429,3.06A44.009,44.009,0,0,1,113.522,140.324Zm28.973-36.849a43.955,43.955,0,0,1-4.418,15.1c-.064.132-.135.258-.2.388l-5.426-3.057a37.988,37.988,0,0,0,3.328-24.638l6.03-1.5a44.361,44.361,0,0,1,.915,10.324Z" transform="translate(-51.052 -51.193)" fill="url(#linear-gradient)"/>
    </g>
  </g>
</svg>
