<svg xmlns="http://www.w3.org/2000/svg" width="275.295" height="72.013" viewBox="0 0 275.295 72.013">
  <g id="new-logo.421be624" transform="translate(0 -0.899)">
    <g id="Group_910" data-name="Group 910" transform="translate(0 0.899)">
      <path id="Path_1063" data-name="Path 1063" d="M35.781,40.077c.327,3.4.5,5.165-2.258,8.074-2.85,3-10.035,8.574-17.39,12.819a74.713,74.713,0,0,1-10.449,5.1c-2.353.849-4.332,1.209-5.316-.5a3.274,3.274,0,0,1,.008-3C2.933,55.644,10.3,42.71,15.1,34.292c.49-.859,1-1.741,1.514-2.635C24,18.909,33.8,3.3,35.727.8c.279-.363.784-.786,1.254-.51a.9.9,0,0,1,.332.99c-.008.057-.124.514-.168.693-3.176,12.885-2.833,25.515-1.365,38.1" transform="translate(0 -0.2)" fill="#00adee" fill-rule="evenodd"/>
    </g>
    <path id="Path_1064" data-name="Path 1064" d="M45.49,44.571c-3.105-1.415-4.724-2.152-5.863-5.993-1.177-3.97-2.409-12.976-2.409-21.469a74.861,74.861,0,0,1,.809-11.6c.441-2.463,1.121-4.356,3.089-4.356a3.267,3.267,0,0,1,2.592,1.507C48.431,8.342,55.95,21.19,60.839,29.552q.748,1.284,1.524,2.63C69.712,44.955,78.33,61.246,79.532,64.165c.175.423.289,1.071-.183,1.343a.911.911,0,0,1-1.024-.21c-.045-.037-.384-.364-.519-.492C68.235,55.613,57.128,49.595,45.49,44.571m-8.833,7.362c2.778-1.981,4.223-3.016,8.121-2.081,4.027.967,12.443,4.4,19.8,8.648a74.937,74.937,0,0,1,9.64,6.5c1.914,1.615,3.213,3.151,2.229,4.853a3.27,3.27,0,0,1-2.6,1.492c-7.28,1.251-22.166,1.336-31.853,1.39-.99.005-2.006.007-3.04.005C24.212,72.718,5.8,72.034,2.666,71.616c-.453-.059-1.071-.285-1.071-.828,0-.441.4-.675.695-.784.054-.02.505-.151.683-.2,12.747-3.693,23.512-10.3,33.684-17.87" transform="translate(1.082 0.173)" fill="#00adee" fill-rule="evenodd"/>
    <path id="Path_1065" data-name="Path 1065" d="M66.368,42.022V59H61.551V42.022H56.132V38.065H71.79v3.956ZM83.762,55.157a1.479,1.479,0,0,0,.89-.8,5.632,5.632,0,0,0,0-3.384,1.486,1.486,0,0,0-.9-.8,5.853,5.853,0,0,0-1.88-.232H79.345v5.449H81.87a5.839,5.839,0,0,0,1.892-.228Zm-.473-8.791a1.311,1.311,0,0,0,.747-.73,5.694,5.694,0,0,0,0-3.1,1.306,1.306,0,0,0-.747-.729,4.275,4.275,0,0,0-1.561-.218H79.345v4.992H81.7a4.474,4.474,0,0,0,1.591-.217Zm-1.074-8.3q6.536,0,6.538,5.591a4.863,4.863,0,0,1-.917,3.139,3.491,3.491,0,0,1-2.61,1.249,4.609,4.609,0,0,1,3.283,1.376,5.023,5.023,0,0,1,1.16,3.525Q89.669,59,82.328,59H74.7V38.065ZM94.486,56.619q-2.379-2.669-2.379-8.057,0-10.784,9.548-10.783a13.357,13.357,0,0,1,4.418.688l-.89,3.842a6.814,6.814,0,0,0-3.24-.718,6.452,6.452,0,0,0-3.085.589,3.265,3.265,0,0,0-1.474,2.065,16.3,16.3,0,0,0-.433,4.317,16.493,16.493,0,0,0,.416,4.257,3.146,3.146,0,0,0,1.464,2.021,6.407,6.407,0,0,0,3.025.576,7.338,7.338,0,0,0,3.757-.89l.861,3.928a12.955,12.955,0,0,1-4.819.833q-4.789,0-7.168-2.667M66.371,14.243a9.435,9.435,0,0,0-.279-2.588,2.234,2.234,0,0,0-.908-1.314,3.3,3.3,0,0,0-1.768-.4,3.027,3.027,0,0,0-1.684.4,2.238,2.238,0,0,0-.864,1.314,10.031,10.031,0,0,0-.262,2.588v5.618a10.013,10.013,0,0,0,.262,2.588,2.237,2.237,0,0,0,.864,1.316,3.028,3.028,0,0,0,1.684.394,3.3,3.3,0,0,0,1.768-.394,2.231,2.231,0,0,0,.906-1.316,9.343,9.343,0,0,0,.28-2.588ZM78.657,8.19a8.745,8.745,0,0,1,1.637,5.732V19.07a21.847,21.847,0,0,1-1.551,8.485H74.471a25.4,25.4,0,0,0,1.4-8.485v-5.12a6.18,6.18,0,0,0-.567-3.1,2.121,2.121,0,0,0-1.947-.906,2.171,2.171,0,0,0-1.989.92,6.026,6.026,0,0,0-.584,3.087v5.937q0,3.978-1.858,5.983a7.158,7.158,0,0,1-5.513,2,7,7,0,0,1-5.442-2.018q-1.843-2.019-1.841-5.969V14.216q0-3.918,1.781-5.952a6.56,6.56,0,0,1,5.209-2.033,6.86,6.86,0,0,1,3.453.789,4.277,4.277,0,0,1,1.93,2.31A5.323,5.323,0,0,1,70.6,6.974a6.55,6.55,0,0,1,3.29-.744A5.864,5.864,0,0,1,78.657,8.19Zm18.47.055q1.861,2.024,1.858,5.969V19.07a21.841,21.841,0,0,1-1.551,8.485H93.106a25.481,25.481,0,0,0,1.4-8.485V14.243a9.822,9.822,0,0,0-.265-2.585,2.252,2.252,0,0,0-.861-1.319,3.79,3.79,0,0,0-3.367,0,2.238,2.238,0,0,0-.861,1.318,9.849,9.849,0,0,0-.264,2.587v4.8a25.97,25.97,0,0,0,1.4,8.51H85.969A22.16,22.16,0,0,1,84.416,19.1V14.214q0-3.948,1.843-5.967A7.009,7.009,0,0,1,91.7,6.229a7,7,0,0,1,5.425,2.018m14.918,15.24a3.771,3.771,0,0,0,.688-2.515,3.776,3.776,0,0,0-.688-2.516,2.779,2.779,0,0,0-2.206-.791,2.672,2.672,0,0,0-2.139.791,3.858,3.858,0,0,0-.671,2.518,3.768,3.768,0,0,0,.688,2.513,2.692,2.692,0,0,0,2.149.789,2.728,2.728,0,0,0,2.179-.789M117.209,21q0,6.871-7.342,6.874-7.312,0-7.312-6.876,0-6.023,5.556-6.815V13.014a1.738,1.738,0,0,0-.366-1.125,10.036,10.036,0,0,0-1.272-1.215,7.811,7.811,0,0,1-.863-.817,2.651,2.651,0,0,1-.47-.863,4.513,4.513,0,0,1-.188-1.447v-1h4.532V7.02a1.6,1.6,0,0,0,.309,1.009,6.714,6.714,0,0,0,1.069,1.011,5.113,5.113,0,0,1,1.316,1.418,3.8,3.8,0,0,1,.41,1.887v2.021q4.62,1.136,4.621,6.637M133.634,8.245q1.856,2.024,1.857,5.969V19.07a21.9,21.9,0,0,1-1.549,8.485h-4.331a25.4,25.4,0,0,0,1.4-8.485V14.243a9.92,9.92,0,0,0-.262-2.585,2.24,2.24,0,0,0-.865-1.319,3.783,3.783,0,0,0-3.364,0,2.241,2.241,0,0,0-.864,1.318,10.007,10.007,0,0,0-.262,2.587v4.8a25.838,25.838,0,0,0,1.4,8.51h-4.331a22.223,22.223,0,0,1-1.549-8.455V14.214q0-3.948,1.843-5.967a8.325,8.325,0,0,1,10.867,0m5.981-1.7h4.475V20.942a3.667,3.667,0,0,0,.732,2.545,3.084,3.084,0,0,0,2.367.791,3.141,3.141,0,0,0,2.374-.774,3.621,3.621,0,0,0,.73-2.53,4.028,4.028,0,0,0-.218-1.348,13.954,13.954,0,0,0-.661-1.491,13.425,13.425,0,0,1-.772-1.83,5.9,5.9,0,0,1-.252-1.8v-.436h4.477a5.313,5.313,0,0,0,.252,1.519,16.427,16.427,0,0,0,.683,1.7c.334.781.576,1.418.734,1.917a6.1,6.1,0,0,1,.233,1.8q0,6.874-7.577,6.876t-7.576-6.9V6.55Zm31.4,1.694q1.856,2.024,1.855,5.969V19.07a21.9,21.9,0,0,1-1.548,8.485h-4.331a25.48,25.48,0,0,0,1.4-8.485V14.243a9.992,9.992,0,0,0-.262-2.585,2.241,2.241,0,0,0-.864-1.319,3.783,3.783,0,0,0-3.364,0,2.251,2.251,0,0,0-.866,1.318,10.018,10.018,0,0,0-.26,2.587v4.8a25.839,25.839,0,0,0,1.4,8.51h-4.331a22.223,22.223,0,0,1-1.549-8.455V14.214q0-3.948,1.841-5.967a8.327,8.327,0,0,1,10.869,0m20.947,7.639a4.982,4.982,0,0,0,.935-3.324,4.968,4.968,0,0,0-.935-3.352A3.633,3.633,0,0,0,189.1,8.159a3.541,3.541,0,0,0-2.835,1.051,5.072,5.072,0,0,0-.906,3.352,5.014,5.014,0,0,0,.923,3.339,4.3,4.3,0,0,0,5.684-.015m10.508,2.719a6.587,6.587,0,0,1,.705,3.082,5.367,5.367,0,0,1-2.132,4.62,11.005,11.005,0,0,1-11.054.159,4.452,4.452,0,0,1-2.045-3.859,3.9,3.9,0,0,1,.2-1.237l2.1.262a4.994,4.994,0,0,0-.084.92,2.778,2.778,0,0,0,1.324,2.563,7.632,7.632,0,0,0,3.911.806,7.048,7.048,0,0,0,4.233-.98,3.864,3.864,0,0,0,1.266-3.253,5.061,5.061,0,0,0-.776-3.021,2.957,2.957,0,0,0-2.563-1.066h-.171V15.643h.89a3.179,3.179,0,0,0,2.536-.878,4.41,4.41,0,0,0,.749-2.865q0-3.739-3.226-3.74a3.073,3.073,0,0,0-2.4.906,3.659,3.659,0,0,0-.821,2.548v.948a6.4,6.4,0,0,1-1.6,4.779,6.853,6.853,0,0,1-8.709-.013,6.248,6.248,0,0,1-1.669-4.767A6.265,6.265,0,0,1,184.8,7.783a6.071,6.071,0,0,1,4.332-1.553q3.568,0,4.807,2.792a4.106,4.106,0,0,1,1.813-2.16,6.03,6.03,0,0,1,2.879-.631,4.557,4.557,0,0,1,3.928,1.653,6.706,6.706,0,0,1,1.225,4.1,5.324,5.324,0,0,1-.937,3.109,4.283,4.283,0,0,1-2.837,1.729,3.541,3.541,0,0,1,2.462,1.781M217.14,6.991a5.76,5.76,0,0,1,2.246,2.174,6.392,6.392,0,0,1,.833,3.31v8.868a6.558,6.558,0,0,1-1.7,4.821,6.351,6.351,0,0,1-4.724,1.712,7.145,7.145,0,0,1-3.339-.747,5.423,5.423,0,0,1-2.216-2.06,5.615,5.615,0,0,1-.777-2.921,6.145,6.145,0,0,1,.777-3.168l2.014.46a7.341,7.341,0,0,0-.517,2.679,3.82,3.82,0,0,0,.964,2.862,4.312,4.312,0,0,0,3.094.938,4.185,4.185,0,0,0,3.283-1.066,5.576,5.576,0,0,0,.92-3.626V12.591A4.7,4.7,0,0,0,217,9.2a3.931,3.931,0,0,0-2.907-1.007q-3.769,0-3.77,3.4a6.971,6.971,0,0,0,.373,2.274l-2.1.458a5.836,5.836,0,0,1-.547-2.645,4.824,4.824,0,0,1,.834-2.765,5.894,5.894,0,0,1,2.233-1.957,6.4,6.4,0,0,1,2.978-.718,6.314,6.314,0,0,1,3.052.76M235.577,8.1Q237.2,9.94,237.2,13.657V17.4a30.9,30.9,0,0,1-.5,5.843,14.381,14.381,0,0,1-1.484,4.319H233q2.014-3.455,2.014-10.191V13.8a11.218,11.218,0,0,0-.386-3.34,2.873,2.873,0,0,0-1.269-1.684,6.126,6.126,0,0,0-4.865,0,2.877,2.877,0,0,0-1.269,1.685,11.249,11.249,0,0,0-.386,3.34V17.37a27.282,27.282,0,0,0,.591,5.858,18.328,18.328,0,0,0,1.423,4.332h-2.273a18.2,18.2,0,0,1-1.4-4.363,27.846,27.846,0,0,1-.589-5.8v-3.77q0-3.714,1.64-5.543a5.978,5.978,0,0,1,4.692-1.826,5.878,5.878,0,0,1,4.65,1.84M126.742,48.318a2.3,2.3,0,0,0,1.219-1.306,7.673,7.673,0,0,0,.358-2.666,7.7,7.7,0,0,0-.358-2.669,2.29,2.29,0,0,0-1.219-1.3,6.2,6.2,0,0,0-2.468-.388h-4.012V48.7h3.985a6.361,6.361,0,0,0,2.494-.386m3.755-3.972q0,6.307-6.135,6.308h-4.1V59H118V38.065h6.4q6.108,0,6.107,6.281M139.13,40.7,135.315,52h7.6Zm-4.447,13.221L132.965,59h-2.409l7.512-20.935h2.154L147.733,59h-2.468l-1.69-5.076h-8.892Zm11.9-15.858h2.55l5.392,10.521,5.392-10.521h2.466l-6.854,12.789V59H153.44V50.854Z" transform="translate(38.091 3.617)" fill="#6c6e70" fill-rule="evenodd"/>
  </g>
</svg>
