<svg xmlns="http://www.w3.org/2000/svg" width="48.032" height="62.622" viewBox="0 0 48.032 62.622">
  <path id="Path_1102" data-name="Path 1102" d="M768.011,497.881c-3.3-4.142-6.5-8.145-9.689-12.158-3.162-3.981-6.421-7.892-9.445-11.975a24.02,24.02,0,0,1,15.131-38.119c12.692-2.344,25.582,6.726,27.685,19.447a23.92,23.92,0,0,1-5.028,19.464c-5.919,7.521-11.9,14.99-17.863,22.479C768.6,497.279,768.353,497.511,768.011,497.881Zm-8.935-38.567a8.975,8.975,0,1,0,9.038-8.894A9.048,9.048,0,0,0,759.076,459.314Z" transform="translate(-744.031 -435.259)" fill="#fba800"/>
</svg>
