<svg id="Group_852" data-name="Group 852" xmlns="http://www.w3.org/2000/svg" width="39.928" height="42.592" viewBox="0 0 39.928 42.592">
  <g id="Group_851" data-name="Group 851">
    <path id="Path_1007" data-name="Path 1007" d="M179.892,235a3.413,3.413,0,0,0,1.339,2.878,10.836,10.836,0,0,0,3.354,1.881,31.734,31.734,0,0,0,10.833,1.694c.764-.045,1.945-.083,3.119-.19a25.719,25.719,0,0,0,7.15-1.589,10.621,10.621,0,0,0,3.135-1.8,3.424,3.424,0,0,0,1.336-2.88c-.05-.958-.046-1.922,0-2.88a3.356,3.356,0,0,0-1.269-2.767,10.688,10.688,0,0,0-3.467-1.962,26.78,26.78,0,0,0-7.592-1.543A33.216,33.216,0,0,0,185.739,227a12.1,12.1,0,0,0-4.545,2.311,3.379,3.379,0,0,0-1.3,2.847A26.938,26.938,0,0,1,179.892,235Z" transform="translate(-170.234 -225.735)" fill="#fff"/>
    <path id="Path_1008" data-name="Path 1008" d="M255.915,345.632a11.862,11.862,0,0,0,4.493-2.312,3.366,3.366,0,0,0,1.281-2.809c-.048-.958-.009-1.92-.011-2.88,0-.132-.016-.264-.026-.423-.568.332-1.08.667-1.622.943a28.107,28.107,0,0,1-11.164,2.677,3.547,3.547,0,0,1,.2,1.163,3.883,3.883,0,0,1-1.44,2.945l-2.208,1.964A31.96,31.96,0,0,0,255.915,345.632Z" transform="translate(-221.766 -313.4)" fill="#fff"/>
    <path id="Path_1009" data-name="Path 1009" d="M228.391,380.842V379.6c-.6.349-1.108.684-1.65.959a28.381,28.381,0,0,1-11.381,2.69,37.616,37.616,0,0,1-6.419-.181l-.9.8-2.087,1.856-.346.31c-.35.315-.711.64-1.107.967a4.11,4.11,0,0,1-1.417.754,27.093,27.093,0,0,0,7.455,1.474,33.126,33.126,0,0,0,12.132-1.2,11.785,11.785,0,0,0,4.448-2.3,3.331,3.331,0,0,0,1.279-2.808C228.356,382.229,228.391,381.535,228.391,380.842Z" transform="translate(-188.478 -346.737)" fill="#fff"/>
    <path id="Path_1010" data-name="Path 1010" d="M180.5,400.21c.009.031.018.063.028.093,0-.035,0-.07,0-.1Z" transform="translate(-170.719 -362.937)" fill="#fff"/>
    <path id="Path_1011" data-name="Path 1011" d="M180.109,300.3a3.744,3.744,0,0,1,2.18-3.03,18.466,18.466,0,0,1-2.358-1.32c0,1.141.014,2.206,0,3.271A2.893,2.893,0,0,0,180.109,300.3Z" transform="translate(-170.265 -280.957)" fill="#fff"/>
    <path id="Path_1012" data-name="Path 1012" d="M235.948,302.45a3.674,3.674,0,0,0,1.877-2.54c.122-1.241.027-2.5.027-3.8a1.6,1.6,0,0,0-.191.091,18.976,18.976,0,0,1-6.541,2.684,37.452,37.452,0,0,1-12.795.67c-1.073-.124-2.135-.284-3.183-.5,1.509,1.332,3.021,2.672,4.493,3.978l1.209,1.072.588.522,1.022.9a33.617,33.617,0,0,0,7.852-.806A15.778,15.778,0,0,0,235.948,302.45Z" transform="translate(-197.961 -281.08)" fill="#fff"/>
    <path id="Path_1013" data-name="Path 1013" d="M150.847,332.909l2.832-2.519q2.3-2.046,4.6-4.092c.393-.349.393-.421-.014-.78l-.851-.754-2.1-1.862-1.83-1.622q-2.492-2.21-4.99-4.413a.529.529,0,0,0-.322-.11.312.312,0,0,0-.1.014c-.083.027-.146.236-.148.364-.01.761,0,1.523,0,2.285,0,.068,0,.137,0,.206,0,.514,0,1.029,0,1.563-.1.009-.157.016-.216.019a11.579,11.579,0,0,0-2.486.416q-.437.122-.863.278a12.19,12.19,0,0,0-2.2,1.071,14.413,14.413,0,0,0-5.8,7.108,25.037,25.037,0,0,0-1.662,9.476c0,.175.034.321.236.348a.4.4,0,0,0,.053,0c.194,0,.25-.163.3-.324a12.27,12.27,0,0,1,4.467-6.194,14.046,14.046,0,0,1,4.617-2.367q.5-.142,1.017-.242a12.1,12.1,0,0,1,1.212-.174c.161-.015.322-.019.485-.019.279,0,.562.014.85.014,0,.145,0,.254,0,.362q0,.515,0,1.029c0,.893-.008,1.786,0,2.68,0,.146.074.39.161.413a.286.286,0,0,0,.073.009.672.672,0,0,0,.385-.148c.465-.384.908-.794,1.358-1.2Z" transform="translate(-134.695 -297.318)" fill="#fff"/>
  </g>
</svg>
